<?xml version="1.0" encoding="UTF-8" standalone="no"?>
<!-- Created with Inkscape (http://www.inkscape.org/) -->

<svg
   xmlns:dc="http://purl.org/dc/elements/1.1/"
   xmlns:cc="http://creativecommons.org/ns#"
   xmlns:rdf="http://www.w3.org/1999/02/22-rdf-syntax-ns#"
   xmlns:svg="http://www.w3.org/2000/svg"
   xmlns="http://www.w3.org/2000/svg"
   xmlns:sodipodi="http://sodipodi.sourceforge.net/DTD/sodipodi-0.dtd"
   xmlns:inkscape="http://www.inkscape.org/namespaces/inkscape"
   version="1.1"
   id="svg2"
   xml:space="preserve"
   width="80mm"
   height="20mm"
   viewBox="0 0 302.3622 75.590551"
   sodipodi:docname="logo.svg"
   inkscape:version="0.92.2 2405546, 2018-03-11"><metadata
     id="metadata8"><rdf:RDF><cc:Work
         rdf:about=""><dc:format>image/svg+xml</dc:format><dc:type
           rdf:resource="http://purl.org/dc/dcmitype/StillImage" /><dc:title></dc:title></cc:Work></rdf:RDF></metadata><defs
     id="defs6"><clipPath
       clipPathUnits="userSpaceOnUse"
       id="clipPath20"><path
         d="M 0,595.28 H 841.89 V 0 H 0 Z"
         id="path18"
         inkscape:connector-curvature="0" /></clipPath><clipPath
       clipPathUnits="userSpaceOnUse"
       id="clipPath60"><path
         d="M 42.498,525.705 H 64.2971 V 514.308 H 42.498 Z"
         id="path58"
         inkscape:connector-curvature="0" /></clipPath><clipPath
       clipPathUnits="userSpaceOnUse"
       id="clipPath76"><path
         d="M 42.1685,538.836 H 53.068 V 514.308 H 42.1685 Z"
         id="path74"
         inkscape:connector-curvature="0" /></clipPath><clipPath
       clipPathUnits="userSpaceOnUse"
       id="clipPath92"><path
         d="M 53.068,538.836 H 63.9675 V 514.308 H 53.068 Z"
         id="path90"
         inkscape:connector-curvature="0" /></clipPath><clipPath
       clipPathUnits="userSpaceOnUse"
       id="clipPath108"><path
         d="M 42.5497,518.684 H 53.4492 V 503.325 H 42.5497 Z"
         id="path106"
         inkscape:connector-curvature="0" /></clipPath><clipPath
       clipPathUnits="userSpaceOnUse"
       id="clipPath124"><path
         d="m 53.4492,518.684 h 10.906 v -15.359 h -10.906 z"
         id="path122"
         inkscape:connector-curvature="0" /></clipPath><clipPath
       clipPathUnits="userSpaceOnUse"
       id="clipPath146"><path
         d="M 0,595.28 H 841.89 V 0 H 0 Z"
         id="path144"
         inkscape:connector-curvature="0" /></clipPath></defs><sodipodi:namedview
     pagecolor="#ffffff"
     bordercolor="#666666"
     borderopacity="1"
     objecttolerance="10"
     gridtolerance="10"
     guidetolerance="10"
     inkscape:pageopacity="0"
     inkscape:pageshadow="2"
     inkscape:window-width="1366"
     inkscape:window-height="730"
     id="namedview4"
     showgrid="false"
     units="mm"
     fit-margin-top="0"
     fit-margin-left="0"
     fit-margin-right="0"
     fit-margin-bottom="0"
     inkscape:zoom="2.3787125"
     inkscape:cx="143.20105"
     inkscape:cy="36.163571"
     inkscape:window-x="0"
     inkscape:window-y="38"
     inkscape:window-maximized="0"
     inkscape:current-layer="g10"
     inkscape:snap-page="true" /><g
     id="g10"
     inkscape:groupmode="layer"
     inkscape:label="Ethereum_Visual_Identity_1.0.0"
     transform="matrix(1.3333333,0,0,-1.3333333,-212.15294,325.96897)"><rect
       style="opacity:1;fill:#000000;fill-opacity:1;stroke:none;stroke-width:2.0250001;stroke-linecap:round;stroke-linejoin:bevel;stroke-miterlimit:4;stroke-dasharray:none;stroke-dashoffset:0;stroke-opacity:1"
       id="rect1307"
       width="226.77165"
       height="56.692909"
       x="159.11472"
       y="-244.47673"
       transform="scale(1,-1)" /><path
       style="fill:#ffffff;fill-opacity:1;fill-rule:nonzero;stroke:none;stroke-width:0.99999994"
       d="m 182.58376,242.29501 -16.06249,-26.65004 16.06249,-9.49407 16.06123,9.49407 z m 70.48645,-9.67146 c -0.36848,0 -0.64494,-0.3223 -0.64494,-0.64493 v -26.96173 c 0,-0.36849 0.27646,-0.64493 0.64494,-0.64493 0.36934,0 0.64493,0.27644 0.64493,0.64493 v 6.17564 c 0,0.0467 -0.0455,0.46116 -0.0455,0.5537 -0.23009,3.54901 1.47488,7.00557 5.43821,7.00557 3.08797,0 4.65517,-2.76538 4.65517,-5.53071 v -8.2042 c 0,-0.36849 0.27646,-0.64493 0.64494,-0.64493 0.32263,0 0.6462,0.27644 0.6462,0.64493 v 8.2042 c 0,3.50229 -2.16635,6.82056 -5.94631,6.82056 -2.3043,0 -4.28628,-1.33588 -5.3926,-3.31841 v 15.25538 c 0,0.32263 -0.27559,0.64493 -0.64492,0.64493 z m -13.18121,-7.2349 c -0.36935,0 -0.64493,-0.27646 -0.64493,-0.64494 v -4.97826 h -3.3197 c -0.36848,0 -0.64366,-0.32231 -0.64366,-0.64494 0,-0.36848 0.27518,-0.64619 0.64366,-0.64619 h 3.3197 V 204.9244 c 0,-0.32265 0.27558,-0.64494 0.64493,-0.64494 0.36848,0 0.64493,0.32229 0.64493,0.64494 v 13.54992 h 3.45654 c 0.36848,0 0.64493,0.27771 0.64493,0.64619 0,0.32263 -0.27645,0.64494 -0.64493,0.64494 h -3.45654 v 4.97826 c 0,0.36848 -0.27645,0.64494 -0.64493,0.64494 z m -18.98813,-5.30137 c -4.33268,0 -7.42117,-3.87078 -7.42117,-8.01921 0,-4.14844 3.08849,-8.01921 7.42117,-8.01921 2.53438,0 5.11442,1.10558 6.40498,3.36403 0.0458,0.0925 0.0924,0.18471 0.0924,0.3231 0,0.36936 -0.27645,0.64494 -0.64492,0.64494 -0.23095,0 -0.41533,-0.13886 -0.55371,-0.3231 -1.29054,-1.84328 -2.99454,-2.71785 -5.29884,-2.71785 -3.36476,0 -5.76177,2.90263 -6.08442,6.08316 h 12.85812 c 0.36933,0 0.69181,0.27645 0.69181,0.64493 0,4.14843 -3.1337,8.01921 -7.46551,8.01921 z m 59.77727,0 c -4.33268,0 -7.4199,-3.87078 -7.4199,-8.01921 0,-4.14844 3.08722,-8.01921 7.4199,-8.01921 2.53438,0 5.11569,1.10558 6.40625,3.36403 0.0458,0.0925 0.0924,0.18471 0.0924,0.3231 0,0.36936 -0.27644,0.64494 -0.64492,0.64494 -0.23095,0 -0.41531,-0.13886 -0.55371,-0.3231 -1.29054,-1.84328 -2.9958,-2.71785 -5.3001,-2.71785 -3.36477,0 -5.76178,2.90263 -6.08441,6.08316 h 12.85937 c 0.36934,0 0.69182,0.27645 0.69182,0.64493 0,4.14843 -3.13497,8.01921 -7.46678,8.01921 z m 36.96389,0 c -4.33268,0 -7.4199,-3.87078 -7.4199,-8.01921 0,-4.14844 3.08722,-8.01921 7.4199,-8.01921 2.53437,0 5.11568,1.10558 6.40625,3.36403 0.0458,0.0925 0.0924,0.18471 0.0924,0.3231 0,0.36936 -0.27645,0.64494 -0.64492,0.64494 -0.23095,0 -0.41531,-0.13886 -0.55371,-0.3231 -1.29054,-1.84328 -2.9958,-2.71785 -5.3001,-2.71785 -3.36477,0 -5.76179,2.90263 -6.08441,6.08316 h 12.85937 c 0.36848,0 0.69181,0.27645 0.69181,0.64493 0,4.14843 -3.13496,8.01921 -7.46677,8.01921 z m 43.59947,-0.0455 c -2.30431,0 -4.28503,-1.28987 -5.39133,-3.27154 v 2.35039 c 0,0.36848 -0.27773,0.64494 -0.64621,0.64494 -0.36848,0 -0.64493,-0.27646 -0.64493,-0.64494 v -14.10362 c 0,-0.36848 0.27645,-0.6462 0.64493,-0.6462 0.36848,0 0.64621,0.27772 0.64621,0.6462 v 6.22126 c 0.0458,0.0467 0,0.2314 0,0.3231 -0.13841,4.10259 1.47384,7.19055 5.39133,7.19055 3.08797,0 4.65517,-2.71976 4.65517,-5.4851 v -8.24981 c 0,-0.36848 0.27686,-0.6462 0.6462,-0.6462 0.32263,0 0.64366,0.27772 0.64366,0.6462 v 6.35936 c 0,3.22637 1.47621,7.37555 5.34699,7.37555 3.08796,0 4.65518,-2.71976 4.65518,-5.4851 v -8.24981 c 0,-0.36848 0.27642,-0.6462 0.6449,-0.6462 0.32268,0 0.6462,0.27772 0.6462,0.6462 v 8.24981 c 0,3.50317 -2.16632,6.77496 -5.94628,6.77496 -2.67279,0 -4.74733,-1.70588 -5.80693,-4.10273 -0.82951,2.44356 -2.85816,4.10273 -5.48509,4.10273 z m -64.01685,-0.27621 c -0.36934,0 -0.6462,-0.27646 -0.6462,-0.64494 v -14.05801 c 0,-0.36848 0.27686,-0.64493 0.6462,-0.64493 0.36848,0 0.64494,0.27645 0.64494,0.64493 v 6.17565 c 0,3.59484 1.70472,6.68257 5.48383,7.23617 0.36934,0.0458 0.59931,0.27662 0.59931,0.69181 0,0.36848 -0.36791,0.59932 -0.69055,0.59932 -2.21261,0 -4.333,-1.70599 -5.39259,-3.50341 v 2.85847 c 0,0.36848 -0.27646,0.64494 -0.64494,0.64494 z m 36.73329,-0.0926 c -0.36935,0 -0.64493,-0.32229 -0.64493,-0.64493 v -8.24981 c 0,-3.5023 2.11883,-6.82185 5.94376,-6.82185 2.39685,0 4.28739,1.52146 5.34698,3.64152 v -2.67348 c 0,-0.36848 0.27646,-0.64493 0.64494,-0.64493 0.32263,0 0.64619,0.27645 0.64619,0.64493 v 9.63217 4.47145 c 0,0.32264 -0.32356,0.64493 -0.64619,0.64493 -0.36848,0 -0.64494,-0.32229 -0.64494,-0.64493 v -5.25449 c 0,-4.47107 -1.01431,-8.52604 -5.34698,-8.52604 -3.08797,0 -4.65517,2.76538 -4.65517,5.53072 v 8.24981 c 0,0.32264 -0.27518,0.64493 -0.64366,0.64493 z m -113.05707,-0.87553 c 3.3639,0 5.80636,-2.90388 6.08314,-6.08441 h -12.16756 c 0.32265,3.18053 2.71966,6.08441 6.08442,6.08441 z m 59.77727,0 c 3.3639,0 5.80635,-2.90388 6.08315,-6.08441 h -12.16757 c 0.32264,3.18053 2.71965,6.08441 6.08442,6.08441 z m 36.96389,0 c 3.3639,0 5.80634,-2.90388 6.08314,-6.08441 h -12.16756 c 0.32263,3.18053 2.71965,6.08441 6.08442,6.08441 z m -150.70137,-6.19717 16.0625,-22.63473 16.07137,22.63473 -16.07137,-9.49027 z"
       id="path272"
       inkscape:connector-curvature="0" /></g></svg>