<?xml version="1.0" encoding="UTF-8" standalone="no"?>
<!-- Created with Inkscape (http://www.inkscape.org/) -->

<svg
   xmlns:dc="http://purl.org/dc/elements/1.1/"
   xmlns:cc="http://creativecommons.org/ns#"
   xmlns:rdf="http://www.w3.org/1999/02/22-rdf-syntax-ns#"
   xmlns:svg="http://www.w3.org/2000/svg"
   xmlns="http://www.w3.org/2000/svg"
   xmlns:xlink="http://www.w3.org/1999/xlink"
   xmlns:sodipodi="http://sodipodi.sourceforge.net/DTD/sodipodi-0.dtd"
   xmlns:inkscape="http://www.inkscape.org/namespaces/inkscape"
   version="1.1"
   id="svg29"
   xml:space="preserve"
   width="100.00012mm"
   height="70mm"
   viewBox="0 0 377.95323 264.56694"
   sodipodi:docname="01.svg"
   inkscape:version="0.92.2 2405546, 2018-03-11"><metadata
     id="metadata35"><rdf:RDF><cc:Work
         rdf:about=""><dc:format>image/svg+xml</dc:format><dc:type
           rdf:resource="http://purl.org/dc/dcmitype/StillImage" /><dc:title /></cc:Work></rdf:RDF></metadata><defs
     id="defs33"><linearGradient
       inkscape:collect="always"
       id="linearGradient876"><stop
         style="stop-color:#ffffff;stop-opacity:1"
         offset="0"
         id="stop872" /><stop
         style="stop-color:#ffffff;stop-opacity:0"
         offset="1"
         id="stop874" /></linearGradient><linearGradient
       inkscape:collect="always"
       xlink:href="#linearGradient876"
       id="linearGradient878"
       x1="100.8952"
       y1="53.721825"
       x2="100.8952"
       y2="35.612434"
       gradientUnits="userSpaceOnUse" /></defs><sodipodi:namedview
     pagecolor="#000000"
     bordercolor="#666666"
     borderopacity="1"
     objecttolerance="10"
     gridtolerance="10"
     guidetolerance="10"
     inkscape:pageopacity="1"
     inkscape:pageshadow="2"
     inkscape:window-width="1366"
     inkscape:window-height="730"
     id="namedview31"
     showgrid="false"
     units="mm"
     inkscape:snap-page="true"
     borderlayer="true"
     inkscape:zoom="1.5461588"
     inkscape:cx="66.457518"
     inkscape:cy="78.821644"
     inkscape:window-x="0"
     inkscape:window-y="38"
     inkscape:window-maximized="0"
     inkscape:current-layer="layer1"
     inkscape:measure-start="0,0"
     inkscape:measure-end="0,0"
     inkscape:snap-bbox="true"
     inkscape:bbox-nodes="true"
     inkscape:object-nodes="true"
     inkscape:bbox-paths="true"
     inkscape:snap-object-midpoints="true"
     inkscape:object-paths="true" /><g
     id="g37"
     inkscape:groupmode="layer"
     inkscape:label="Background"
     transform="matrix(1.3333333,0,0,-1.3333333,0,264.56696)"
     sodipodi:insensitive="true"><rect
       style="opacity:1;fill:#000000;fill-opacity:1;stroke:none;stroke-width:0.75118107;stroke-linecap:round;stroke-linejoin:bevel;stroke-miterlimit:4;stroke-dasharray:none;stroke-dashoffset:0;stroke-opacity:1"
       id="rect43"
       width="283.4649"
       height="198.4252"
       x="0"
       y="-198.42522"
       transform="scale(1,-1)" /></g><g
     inkscape:groupmode="layer"
     id="layer1"
     inkscape:label="Foreground"><path
   style="opacity:1;fill:#212121;fill-opacity:1;stroke:none;stroke-width:1.00157475;stroke-linecap:round;stroke-linejoin:bevel;stroke-miterlimit:4;stroke-dasharray:none;stroke-dashoffset:0;stroke-opacity:1"
   d="M 15.796875 7.1152344 C 11.61641 7.1152344 8.2519531 10.479691 8.2519531 14.660156 L 8.2519531 151.08203 L 8.2519531 250.71094 L 8.2519531 255.2832 C 8.2519531 256.93005 11.61641 258.25586 15.796875 258.25586 L 362.15625 258.25586 C 366.33672 258.25586 369.70312 256.93005 369.70312 255.2832 L 369.70312 250.71094 L 369.70312 151.08203 L 369.70312 14.660156 C 369.70312 10.479691 366.33672 7.1152344 362.15625 7.1152344 L 15.796875 7.1152344 z "
   id="rect884" /><rect
   style="opacity:1;fill:#bdbdbd;fill-opacity:1;stroke:none;stroke-width:1.00157475;stroke-linecap:round;stroke-linejoin:bevel;stroke-miterlimit:4;stroke-dasharray:none;stroke-dashoffset:0;stroke-opacity:1"
   id="rect882"
   width="355.9632"
   height="224.9899"
   x="10.99499"
   y="30.522339" /><rect
   y="30.522335"
   x="10.99499"
   height="35.488022"
   width="355.9632"
   id="rect889"
   style="opacity:1;fill:#00838f;fill-opacity:1;stroke:none;stroke-width:1.00157475;stroke-linecap:round;stroke-linejoin:bevel;stroke-miterlimit:4;stroke-dasharray:none;stroke-dashoffset:0;stroke-opacity:1" /><text
   xml:space="preserve"
   style="font-style:normal;font-weight:normal;font-size:21.96496964px;line-height:1.25;font-family:sans-serif;letter-spacing:0px;word-spacing:0px;fill:#ffffff;fill-opacity:1;stroke:none;stroke-width:1;"
   x="26.748734"
   y="54.612503"
   id="text893"><tspan
     sodipodi:role="line"
     id="tspan891"
     x="26.748734"
     y="54.612503"
     style="font-style:normal;font-variant:normal;font-weight:normal;font-stretch:normal;font-family:Roboto;-inkscape-font-specification:Roboto;stroke-width:1;fill:#ffffff;"><tspan
   style="font-style:normal;font-variant:normal;font-weight:300;font-stretch:normal;font-family:Roboto;-inkscape-font-specification:'Roboto Light';stroke-width:1;fill:#ffffff;"
   id="tspan895">blockchain</tspan>explorer</tspan></text>













<path
   style="opacity:1;fill:#424242;fill-opacity:1;stroke:none;stroke-width:1.00157475;stroke-linecap:round;stroke-linejoin:bevel;stroke-miterlimit:4;stroke-dasharray:none;stroke-dashoffset:0;stroke-opacity:1"
   d="M 348.55078 7.1152344 L 348.55078 19.097656 C 348.55078 23.278116 351.91524 26.642578 356.0957 26.642578 L 369.70312 26.642578 L 369.70312 14.660156 C 369.70312 10.479691 366.33672 7.1152344 362.15625 7.1152344 L 348.55078 7.1152344 z "
   id="path1084" /><path
   style="color:#000000;font-style:normal;font-variant:normal;font-weight:normal;font-stretch:normal;font-size:medium;line-height:normal;font-family:sans-serif;font-variant-ligatures:normal;font-variant-position:normal;font-variant-caps:normal;font-variant-numeric:normal;font-variant-alternates:normal;font-feature-settings:normal;text-indent:0;text-align:start;text-decoration:none;text-decoration-line:none;text-decoration-style:solid;text-decoration-color:#000000;letter-spacing:normal;word-spacing:normal;text-transform:none;writing-mode:lr-tb;direction:ltr;text-orientation:mixed;dominant-baseline:auto;baseline-shift:baseline;text-anchor:start;white-space:normal;shape-padding:0;clip-rule:nonzero;display:inline;overflow:visible;visibility:visible;opacity:1;isolation:auto;mix-blend-mode:normal;color-interpolation:sRGB;color-interpolation-filters:linearRGB;solid-color:#000000;solid-opacity:1;vector-effect:none;fill:#ffffff;fill-opacity:1;fill-rule:nonzero;stroke:none;stroke-width:2;stroke-linecap:round;stroke-linejoin:miter;stroke-miterlimit:4;stroke-dasharray:none;stroke-dashoffset:0;stroke-opacity:1;color-rendering:auto;image-rendering:auto;shape-rendering:auto;text-rendering:auto;enable-background:accumulate"
   d="m 355.77927,12.195981 a 0.81441173,0.81441173 0 0 0 -0.56781,1.39804 l 3.61359,3.61359 -3.61359,3.615181 a 0.81441173,0.81441173 0 1 0 1.15151,1.151515 l 3.61359,-3.613591 3.61359,3.613591 a 0.81441173,0.81441173 0 1 0 1.15151,-1.151515 l -3.61359,-3.615181 3.61359,-3.61359 a 0.81441173,0.81441173 0 0 0 -0.59166,-1.39804 0.81441173,0.81441173 0 0 0 -0.55985,0.246526 l -3.61359,3.613591 -3.61359,-3.613591 a 0.81441173,0.81441173 0 0 0 -0.5837,-0.246526 z"
   id="path1089"
   inkscape:connector-curvature="0" /><rect
   y="-89.79158"
   x="41.636185"
   height="20.641853"
   width="294.68082"
   id="rect872"
   style="opacity:1;fill:#212121;fill-opacity:1;stroke:none;stroke-width:2.70000005;stroke-linecap:round;stroke-linejoin:bevel;stroke-miterlimit:4;stroke-dasharray:none;stroke-dashoffset:0;stroke-opacity:1"
   transform="scale(1,-1)" /><text
   xml:space="preserve"
   style="font-style:normal;font-weight:normal;font-size:19.10177422px;line-height:1.25;font-family:sans-serif;letter-spacing:0px;word-spacing:0px;fill:#ffffff;fill-opacity:1;stroke:none;stroke-width:1"
   x="44.47963"
   y="85.671928"
   id="text876"><tspan
     sodipodi:role="line"
     id="tspan874"
     x="44.47963"
     y="85.671928"
     style="font-style:normal;font-variant:normal;font-weight:normal;font-stretch:normal;font-family:'Roboto Condensed';-inkscape-font-specification:'Roboto Condensed, ';fill:#ffffff;stroke-width:1.90984654">Contracts with verified souce code</tspan></text>

<g
   id="g953"><rect
   y="89.791588"
   x="41.636185"
   height="27.487473"
   width="294.68082"
   id="rect878"
   style="opacity:1;fill:#fafafa;fill-opacity:1;stroke:none;stroke-width:2.70000005;stroke-linecap:round;stroke-linejoin:bevel;stroke-miterlimit:4;stroke-dasharray:none;stroke-dashoffset:0;stroke-opacity:1" /><g
   transform="translate(0.22866564,1.038002)"
   id="g922"><circle
     style="opacity:1;fill:#7cb342;fill-opacity:1;stroke:none;stroke-width:2.70000005;stroke-linecap:round;stroke-linejoin:bevel;stroke-miterlimit:4;stroke-dasharray:none;stroke-dashoffset:0;stroke-opacity:1"
     id="path912"
     cx="59.710491"
     cy="102.49732"
     r="7.9873252" /><path
     style="font-style:normal;font-weight:normal;font-size:medium;font-family:Dialog;color-interpolation:auto;fill:#ffffff;fill-opacity:1;stroke:none;stroke-width:1.00000012;stroke-linecap:square;stroke-linejoin:miter;stroke-miterlimit:10;stroke-dasharray:none;stroke-dashoffset:0;stroke-opacity:1;color-rendering:auto;image-rendering:auto;shape-rendering:auto;text-rendering:auto"
     inkscape:connector-curvature="0"
     d="m 57.528787,105.75144 q 0.616632,-1.40754 1.323745,-2.69107 0.707119,-1.28354 1.457801,-2.36934 0.884728,-1.27348 1.394124,-1.836492 0.328422,-0.361934 0.616627,-0.596523 0.167567,-0.13405 0.529501,-0.201077 0.87803,-0.160861 1.226561,-0.160861 0.154159,0 0.154159,0.10724 0,0.100539 -0.154159,0.241296 -1.340503,1.193046 -2.811707,3.411577 -1.471203,2.21854 -2.483285,4.71187 -0.382042,0.93166 -0.532846,1.14278 -0.150808,0.21113 -0.941703,0.21113 -0.516097,0 -0.646797,-0.10054 -0.1307,-0.10053 -0.472525,-0.63674 -0.589822,-0.89143 -1.266779,-1.6086 -0.355233,-0.37534 -0.355233,-0.57641 0,-0.28151 0.39545,-0.55297 0.39545,-0.27145 0.650144,-0.27145 0.355236,0 0.854571,0.3988 0.49934,0.39881 1.062351,1.37738 z"
     id="path893" /></g><text
   id="text926"
   y="107.66115"
   x="74.878281"
   style="font-style:normal;font-weight:normal;font-size:15.37704277px;line-height:1.25;font-family:sans-serif;letter-spacing:0px;word-spacing:0px;fill:#000000;fill-opacity:1;stroke:none;stroke-width:0.99999994"
   xml:space="preserve"><tspan
     style="font-style:normal;font-variant:normal;font-weight:500;font-stretch:normal;font-family:Roboto;-inkscape-font-specification:'Roboto Medium';stroke-width:2.60128021"
     y="107.66115"
     x="74.878281"
     id="tspan924"
     sodipodi:role="line">MyOwnToken</tspan></text>

<g
   style="stroke-width:6.95650482"
   transform="matrix(0.14105693,0,0,0.14105693,292.72857,98.329481)"
   id="g11874"><path
     style="fill:#afb42b;fill-opacity:1;stroke:none;stroke-width:185.76042175px;stroke-linecap:butt;stroke-linejoin:miter;stroke-opacity:1"
     d="m 191.41508,36.905578 26.70308,-53.40567 26.70308,53.40567 z"
     id="path11870"
     inkscape:connector-curvature="0" /><path
     style="fill:#dce775;fill-opacity:1;stroke:none;stroke-width:185.76042175px;stroke-linecap:butt;stroke-linejoin:miter;stroke-opacity:1"
     d="m 191.41508,36.905578 26.70308,53.40646 26.70308,-53.40646 z"
     id="path11872"
     inkscape:connector-curvature="0" /></g><text
   id="text940"
   y="110.63102"
   x="310.67819"
   style="font-style:normal;font-weight:normal;font-size:20.59707642px;line-height:1.25;font-family:sans-serif;letter-spacing:0px;word-spacing:0px;fill:#424242;fill-opacity:1;stroke:none;stroke-width:1"
   xml:space="preserve"><tspan
     style="font-style:normal;font-variant:normal;font-weight:normal;font-stretch:normal;font-family:'Fira Code';-inkscape-font-specification:'Fira Code';text-align:end;text-anchor:end;fill:#424242;stroke-width:1.94202316"
     y="110.63102"
     x="310.67819"
     id="tspan938"
     sodipodi:role="line">0.0</tspan></text>

</g><g
   id="g977"
   transform="translate(0,27.487473)"><rect
   style="opacity:1;fill:#eeeeee;fill-opacity:1;stroke:none;stroke-width:2.70000005;stroke-linecap:round;stroke-linejoin:bevel;stroke-miterlimit:4;stroke-dasharray:none;stroke-dashoffset:0;stroke-opacity:1"
   id="rect955"
   width="294.68082"
   height="27.487473"
   x="41.636185"
   y="89.791588" /><g
   id="g961"
   transform="translate(0.22866564,1.038002)"><circle
     r="7.9873252"
     cy="102.49732"
     cx="59.710491"
     id="circle957"
     style="opacity:1;fill:#7cb342;fill-opacity:1;stroke:none;stroke-width:2.70000005;stroke-linecap:round;stroke-linejoin:bevel;stroke-miterlimit:4;stroke-dasharray:none;stroke-dashoffset:0;stroke-opacity:1" /><path
     id="path959"
     d="m 57.528787,105.75144 q 0.616632,-1.40754 1.323745,-2.69107 0.707119,-1.28354 1.457801,-2.36934 0.884728,-1.27348 1.394124,-1.836492 0.328422,-0.361934 0.616627,-0.596523 0.167567,-0.13405 0.529501,-0.201077 0.87803,-0.160861 1.226561,-0.160861 0.154159,0 0.154159,0.10724 0,0.100539 -0.154159,0.241296 -1.340503,1.193046 -2.811707,3.411577 -1.471203,2.21854 -2.483285,4.71187 -0.382042,0.93166 -0.532846,1.14278 -0.150808,0.21113 -0.941703,0.21113 -0.516097,0 -0.646797,-0.10054 -0.1307,-0.10053 -0.472525,-0.63674 -0.589822,-0.89143 -1.266779,-1.6086 -0.355233,-0.37534 -0.355233,-0.57641 0,-0.28151 0.39545,-0.55297 0.39545,-0.27145 0.650144,-0.27145 0.355236,0 0.854571,0.3988 0.49934,0.39881 1.062351,1.37738 z"
     inkscape:connector-curvature="0"
     style="font-style:normal;font-weight:normal;font-size:medium;font-family:Dialog;color-interpolation:auto;fill:#ffffff;fill-opacity:1;stroke:none;stroke-width:1.00000012;stroke-linecap:square;stroke-linejoin:miter;stroke-miterlimit:10;stroke-dasharray:none;stroke-dashoffset:0;stroke-opacity:1;color-rendering:auto;image-rendering:auto;shape-rendering:auto;text-rendering:auto" /></g><text
   xml:space="preserve"
   style="font-style:normal;font-weight:normal;font-size:15.37704277px;line-height:1.25;font-family:sans-serif;letter-spacing:0px;word-spacing:0px;fill:#000000;fill-opacity:1;stroke:none;stroke-width:0.99999994"
   x="74.878281"
   y="107.66115"
   id="text965"><tspan
     sodipodi:role="line"
     id="tspan963"
     x="74.878281"
     y="107.66115"
     style="font-style:normal;font-variant:normal;font-weight:500;font-stretch:normal;font-family:Roboto;-inkscape-font-specification:'Roboto Medium';stroke-width:2.60128021">WM2018BetGame</tspan></text>

<g
   id="g971"
   transform="matrix(0.14105693,0,0,0.14105693,292.72857,98.329481)"
   style="stroke-width:6.95650482"><path
     inkscape:connector-curvature="0"
     id="path967"
     d="m 191.41508,36.905578 26.70308,-53.40567 26.70308,53.40567 z"
     style="fill:#afb42b;fill-opacity:1;stroke:none;stroke-width:185.76042175px;stroke-linecap:butt;stroke-linejoin:miter;stroke-opacity:1" /><path
     inkscape:connector-curvature="0"
     id="path969"
     d="m 191.41508,36.905578 26.70308,53.40646 26.70308,-53.40646 z"
     style="fill:#dce775;fill-opacity:1;stroke:none;stroke-width:185.76042175px;stroke-linecap:butt;stroke-linejoin:miter;stroke-opacity:1" /></g><text
   xml:space="preserve"
   style="font-style:normal;font-weight:normal;font-size:20.59707642px;line-height:1.25;font-family:sans-serif;letter-spacing:0px;word-spacing:0px;fill:#424242;fill-opacity:1;stroke:none;stroke-width:1"
   x="310.67819"
   y="110.63102"
   id="text975"><tspan
     sodipodi:role="line"
     id="tspan973"
     x="310.67819"
     y="110.63102"
     style="font-style:normal;font-variant:normal;font-weight:normal;font-stretch:normal;font-family:'Fira Code';-inkscape-font-specification:'Fira Code';text-align:end;text-anchor:end;fill:#424242;stroke-width:1.94202316">0.2</tspan></text>

</g><g
   transform="translate(0,54.974946)"
   id="g1001"><rect
   y="89.791588"
   x="41.636185"
   height="27.487473"
   width="294.68082"
   id="rect979"
   style="opacity:1;fill:#fafafa;fill-opacity:1;stroke:none;stroke-width:2.70000005;stroke-linecap:round;stroke-linejoin:bevel;stroke-miterlimit:4;stroke-dasharray:none;stroke-dashoffset:0;stroke-opacity:1" /><g
   transform="translate(0.22866564,1.038002)"
   id="g985"><circle
     style="opacity:1;fill:#7cb342;fill-opacity:1;stroke:none;stroke-width:2.70000005;stroke-linecap:round;stroke-linejoin:bevel;stroke-miterlimit:4;stroke-dasharray:none;stroke-dashoffset:0;stroke-opacity:1"
     id="circle981"
     cx="59.710491"
     cy="102.49732"
     r="7.9873252" /><path
     style="font-style:normal;font-weight:normal;font-size:medium;font-family:Dialog;color-interpolation:auto;fill:#ffffff;fill-opacity:1;stroke:none;stroke-width:1.00000012;stroke-linecap:square;stroke-linejoin:miter;stroke-miterlimit:10;stroke-dasharray:none;stroke-dashoffset:0;stroke-opacity:1;color-rendering:auto;image-rendering:auto;shape-rendering:auto;text-rendering:auto"
     inkscape:connector-curvature="0"
     d="m 57.528787,105.75144 q 0.616632,-1.40754 1.323745,-2.69107 0.707119,-1.28354 1.457801,-2.36934 0.884728,-1.27348 1.394124,-1.836492 0.328422,-0.361934 0.616627,-0.596523 0.167567,-0.13405 0.529501,-0.201077 0.87803,-0.160861 1.226561,-0.160861 0.154159,0 0.154159,0.10724 0,0.100539 -0.154159,0.241296 -1.340503,1.193046 -2.811707,3.411577 -1.471203,2.21854 -2.483285,4.71187 -0.382042,0.93166 -0.532846,1.14278 -0.150808,0.21113 -0.941703,0.21113 -0.516097,0 -0.646797,-0.10054 -0.1307,-0.10053 -0.472525,-0.63674 -0.589822,-0.89143 -1.266779,-1.6086 -0.355233,-0.37534 -0.355233,-0.57641 0,-0.28151 0.39545,-0.55297 0.39545,-0.27145 0.650144,-0.27145 0.355236,0 0.854571,0.3988 0.49934,0.39881 1.062351,1.37738 z"
     id="path983" /></g><text
   id="text989"
   y="107.66115"
   x="74.878281"
   style="font-style:normal;font-weight:normal;font-size:15.37704277px;line-height:1.25;font-family:sans-serif;letter-spacing:0px;word-spacing:0px;fill:#000000;fill-opacity:1;stroke:none;stroke-width:0.99999994"
   xml:space="preserve"><tspan
     style="font-style:normal;font-variant:normal;font-weight:500;font-stretch:normal;font-family:Roboto;-inkscape-font-specification:'Roboto Medium';stroke-width:2.60128021"
     y="107.66115"
     x="74.878281"
     id="tspan987"
     sodipodi:role="line">X2_FLASH</tspan></text>

<g
   style="stroke-width:6.95650482"
   transform="matrix(0.14105693,0,0,0.14105693,292.72857,98.329481)"
   id="g995"><path
     style="fill:#afb42b;fill-opacity:1;stroke:none;stroke-width:185.76042175px;stroke-linecap:butt;stroke-linejoin:miter;stroke-opacity:1"
     d="m 191.41508,36.905578 26.70308,-53.40567 26.70308,53.40567 z"
     id="path991"
     inkscape:connector-curvature="0" /><path
     style="fill:#dce775;fill-opacity:1;stroke:none;stroke-width:185.76042175px;stroke-linecap:butt;stroke-linejoin:miter;stroke-opacity:1"
     d="m 191.41508,36.905578 26.70308,53.40646 26.70308,-53.40646 z"
     id="path993"
     inkscape:connector-curvature="0" /></g><text
   id="text999"
   y="110.63102"
   x="310.67819"
   style="font-style:normal;font-weight:normal;font-size:20.59707642px;line-height:1.25;font-family:sans-serif;letter-spacing:0px;word-spacing:0px;fill:#424242;fill-opacity:1;stroke:none;stroke-width:1"
   xml:space="preserve"><tspan
     style="font-style:normal;font-variant:normal;font-weight:normal;font-stretch:normal;font-family:'Fira Code';-inkscape-font-specification:'Fira Code';text-align:end;text-anchor:end;fill:#424242;stroke-width:1.94202316"
     y="110.63102"
     x="310.67819"
     id="tspan997"
     sodipodi:role="line">1.0</tspan></text>

</g><g
   id="g1025"
   transform="translate(0,82.462419)"><rect
   style="opacity:1;fill:#eeeeee;fill-opacity:1;stroke:none;stroke-width:2.70000005;stroke-linecap:round;stroke-linejoin:bevel;stroke-miterlimit:4;stroke-dasharray:none;stroke-dashoffset:0;stroke-opacity:1"
   id="rect1003"
   width="294.68082"
   height="27.487473"
   x="41.636185"
   y="89.791588" /><g
   id="g1009"
   transform="translate(0.22866564,1.038002)"><circle
     r="7.9873252"
     cy="102.49732"
     cx="59.710491"
     id="circle1005"
     style="opacity:1;fill:#7cb342;fill-opacity:1;stroke:none;stroke-width:2.70000005;stroke-linecap:round;stroke-linejoin:bevel;stroke-miterlimit:4;stroke-dasharray:none;stroke-dashoffset:0;stroke-opacity:1" /><path
     id="path1007"
     d="m 57.528787,105.75144 q 0.616632,-1.40754 1.323745,-2.69107 0.707119,-1.28354 1.457801,-2.36934 0.884728,-1.27348 1.394124,-1.836492 0.328422,-0.361934 0.616627,-0.596523 0.167567,-0.13405 0.529501,-0.201077 0.87803,-0.160861 1.226561,-0.160861 0.154159,0 0.154159,0.10724 0,0.100539 -0.154159,0.241296 -1.340503,1.193046 -2.811707,3.411577 -1.471203,2.21854 -2.483285,4.71187 -0.382042,0.93166 -0.532846,1.14278 -0.150808,0.21113 -0.941703,0.21113 -0.516097,0 -0.646797,-0.10054 -0.1307,-0.10053 -0.472525,-0.63674 -0.589822,-0.89143 -1.266779,-1.6086 -0.355233,-0.37534 -0.355233,-0.57641 0,-0.28151 0.39545,-0.55297 0.39545,-0.27145 0.650144,-0.27145 0.355236,0 0.854571,0.3988 0.49934,0.39881 1.062351,1.37738 z"
     inkscape:connector-curvature="0"
     style="font-style:normal;font-weight:normal;font-size:medium;font-family:Dialog;color-interpolation:auto;fill:#ffffff;fill-opacity:1;stroke:none;stroke-width:1.00000012;stroke-linecap:square;stroke-linejoin:miter;stroke-miterlimit:10;stroke-dasharray:none;stroke-dashoffset:0;stroke-opacity:1;color-rendering:auto;image-rendering:auto;shape-rendering:auto;text-rendering:auto" /></g><text
   xml:space="preserve"
   style="font-style:normal;font-weight:normal;font-size:15.37704277px;line-height:1.25;font-family:sans-serif;letter-spacing:0px;word-spacing:0px;fill:#000000;fill-opacity:1;stroke:none;stroke-width:0.99999994"
   x="74.878281"
   y="107.66115"
   id="text1013"><tspan
     sodipodi:role="line"
     id="tspan1011"
     x="74.878281"
     y="107.66115"
     style="font-style:normal;font-variant:normal;font-weight:500;font-stretch:normal;font-family:Roboto;-inkscape-font-specification:'Roboto Medium';stroke-width:2.60128021">MultiSignatureWallet</tspan></text>

<g
   id="g1019"
   transform="matrix(0.14105693,0,0,0.14105693,292.72857,98.329481)"
   style="stroke-width:6.95650482"><path
     inkscape:connector-curvature="0"
     id="path1015"
     d="m 191.41508,36.905578 26.70308,-53.40567 26.70308,53.40567 z"
     style="fill:#afb42b;fill-opacity:1;stroke:none;stroke-width:185.76042175px;stroke-linecap:butt;stroke-linejoin:miter;stroke-opacity:1" /><path
     inkscape:connector-curvature="0"
     id="path1017"
     d="m 191.41508,36.905578 26.70308,53.40646 26.70308,-53.40646 z"
     style="fill:#dce775;fill-opacity:1;stroke:none;stroke-width:185.76042175px;stroke-linecap:butt;stroke-linejoin:miter;stroke-opacity:1" /></g><text
   xml:space="preserve"
   style="font-style:normal;font-weight:normal;font-size:20.59707642px;line-height:1.25;font-family:sans-serif;letter-spacing:0px;word-spacing:0px;fill:#424242;fill-opacity:1;stroke:none;stroke-width:1"
   x="310.67819"
   y="110.63102"
   id="text1023"><tspan
     sodipodi:role="line"
     id="tspan1021"
     x="310.67819"
     y="110.63102"
     style="font-style:normal;font-variant:normal;font-weight:normal;font-stretch:normal;font-family:'Fira Code';-inkscape-font-specification:'Fira Code';text-align:end;text-anchor:end;fill:#424242;stroke-width:1.94202316">2.0</tspan></text>

</g><g
   transform="translate(0,109.94989)"
   id="g1049"><rect
   y="89.791588"
   x="41.636185"
   height="27.487473"
   width="294.68082"
   id="rect1027"
   style="opacity:1;fill:#fafafa;fill-opacity:1;stroke:none;stroke-width:2.70000005;stroke-linecap:round;stroke-linejoin:bevel;stroke-miterlimit:4;stroke-dasharray:none;stroke-dashoffset:0;stroke-opacity:1" /><g
   transform="translate(0.22866564,1.038002)"
   id="g1033"><circle
     style="opacity:1;fill:#7cb342;fill-opacity:1;stroke:none;stroke-width:2.70000005;stroke-linecap:round;stroke-linejoin:bevel;stroke-miterlimit:4;stroke-dasharray:none;stroke-dashoffset:0;stroke-opacity:1"
     id="circle1029"
     cx="59.710491"
     cy="102.49732"
     r="7.9873252" /><path
     style="font-style:normal;font-weight:normal;font-size:medium;font-family:Dialog;color-interpolation:auto;fill:#ffffff;fill-opacity:1;stroke:none;stroke-width:1.00000012;stroke-linecap:square;stroke-linejoin:miter;stroke-miterlimit:10;stroke-dasharray:none;stroke-dashoffset:0;stroke-opacity:1;color-rendering:auto;image-rendering:auto;shape-rendering:auto;text-rendering:auto"
     inkscape:connector-curvature="0"
     d="m 57.528787,105.75144 q 0.616632,-1.40754 1.323745,-2.69107 0.707119,-1.28354 1.457801,-2.36934 0.884728,-1.27348 1.394124,-1.836492 0.328422,-0.361934 0.616627,-0.596523 0.167567,-0.13405 0.529501,-0.201077 0.87803,-0.160861 1.226561,-0.160861 0.154159,0 0.154159,0.10724 0,0.100539 -0.154159,0.241296 -1.340503,1.193046 -2.811707,3.411577 -1.471203,2.21854 -2.483285,4.71187 -0.382042,0.93166 -0.532846,1.14278 -0.150808,0.21113 -0.941703,0.21113 -0.516097,0 -0.646797,-0.10054 -0.1307,-0.10053 -0.472525,-0.63674 -0.589822,-0.89143 -1.266779,-1.6086 -0.355233,-0.37534 -0.355233,-0.57641 0,-0.28151 0.39545,-0.55297 0.39545,-0.27145 0.650144,-0.27145 0.355236,0 0.854571,0.3988 0.49934,0.39881 1.062351,1.37738 z"
     id="path1031" /></g><text
   id="text1037"
   y="107.66115"
   x="74.878281"
   style="font-style:normal;font-weight:normal;font-size:15.37704277px;line-height:1.25;font-family:sans-serif;letter-spacing:0px;word-spacing:0px;fill:#000000;fill-opacity:1;stroke:none;stroke-width:0.99999994"
   xml:space="preserve"><tspan
     style="font-style:normal;font-variant:normal;font-weight:500;font-stretch:normal;font-family:Roboto;-inkscape-font-specification:'Roboto Medium';stroke-width:2.60128021"
     y="107.66115"
     x="74.878281"
     id="tspan1035"
     sodipodi:role="line">CrowdFunding</tspan></text>

<g
   style="stroke-width:6.95650482"
   transform="matrix(0.14105693,0,0,0.14105693,292.72857,98.329481)"
   id="g1043"><path
     style="fill:#afb42b;fill-opacity:1;stroke:none;stroke-width:185.76042175px;stroke-linecap:butt;stroke-linejoin:miter;stroke-opacity:1"
     d="m 191.41508,36.905578 26.70308,-53.40567 26.70308,53.40567 z"
     id="path1039"
     inkscape:connector-curvature="0" /><path
     style="fill:#dce775;fill-opacity:1;stroke:none;stroke-width:185.76042175px;stroke-linecap:butt;stroke-linejoin:miter;stroke-opacity:1"
     d="m 191.41508,36.905578 26.70308,53.40646 26.70308,-53.40646 z"
     id="path1041"
     inkscape:connector-curvature="0" /></g><text
   id="text1047"
   y="110.63102"
   x="310.67819"
   style="font-style:normal;font-weight:normal;font-size:20.59707642px;line-height:1.25;font-family:sans-serif;letter-spacing:0px;word-spacing:0px;fill:#424242;fill-opacity:1;stroke:none;stroke-width:1"
   xml:space="preserve"><tspan
     style="font-style:normal;font-variant:normal;font-weight:normal;font-stretch:normal;font-family:'Fira Code';-inkscape-font-specification:'Fira Code';text-align:end;text-anchor:end;fill:#424242;stroke-width:1.94202316"
     y="110.63102"
     x="310.67819"
     id="tspan1045"
     sodipodi:role="line">0.0</tspan></text>

</g><g
   id="g1073"
   transform="translate(0,137.43736)"><rect
   style="opacity:1;fill:#eeeeee;fill-opacity:1;stroke:none;stroke-width:2.70000005;stroke-linecap:round;stroke-linejoin:bevel;stroke-miterlimit:4;stroke-dasharray:none;stroke-dashoffset:0;stroke-opacity:1"
   id="rect1051"
   width="294.68082"
   height="27.487473"
   x="41.636185"
   y="89.791588" /><g
   id="g1057"
   transform="translate(0.22866564,1.038002)"><circle
     r="7.9873252"
     cy="102.49732"
     cx="59.710491"
     id="circle1053"
     style="opacity:1;fill:#7cb342;fill-opacity:1;stroke:none;stroke-width:2.70000005;stroke-linecap:round;stroke-linejoin:bevel;stroke-miterlimit:4;stroke-dasharray:none;stroke-dashoffset:0;stroke-opacity:1" /><path
     id="path1055"
     d="m 57.528787,105.75144 q 0.616632,-1.40754 1.323745,-2.69107 0.707119,-1.28354 1.457801,-2.36934 0.884728,-1.27348 1.394124,-1.836492 0.328422,-0.361934 0.616627,-0.596523 0.167567,-0.13405 0.529501,-0.201077 0.87803,-0.160861 1.226561,-0.160861 0.154159,0 0.154159,0.10724 0,0.100539 -0.154159,0.241296 -1.340503,1.193046 -2.811707,3.411577 -1.471203,2.21854 -2.483285,4.71187 -0.382042,0.93166 -0.532846,1.14278 -0.150808,0.21113 -0.941703,0.21113 -0.516097,0 -0.646797,-0.10054 -0.1307,-0.10053 -0.472525,-0.63674 -0.589822,-0.89143 -1.266779,-1.6086 -0.355233,-0.37534 -0.355233,-0.57641 0,-0.28151 0.39545,-0.55297 0.39545,-0.27145 0.650144,-0.27145 0.355236,0 0.854571,0.3988 0.49934,0.39881 1.062351,1.37738 z"
     inkscape:connector-curvature="0"
     style="font-style:normal;font-weight:normal;font-size:medium;font-family:Dialog;color-interpolation:auto;fill:#ffffff;fill-opacity:1;stroke:none;stroke-width:1.00000012;stroke-linecap:square;stroke-linejoin:miter;stroke-miterlimit:10;stroke-dasharray:none;stroke-dashoffset:0;stroke-opacity:1;color-rendering:auto;image-rendering:auto;shape-rendering:auto;text-rendering:auto" /></g><text
   xml:space="preserve"
   style="font-style:normal;font-weight:normal;font-size:15.37704277px;line-height:1.25;font-family:sans-serif;letter-spacing:0px;word-spacing:0px;fill:#000000;fill-opacity:1;stroke:none;stroke-width:0.99999994"
   x="74.878281"
   y="107.66115"
   id="text1061"><tspan
     sodipodi:role="line"
     id="tspan1059"
     x="74.878281"
     y="107.66115"
     style="font-style:normal;font-variant:normal;font-weight:500;font-stretch:normal;font-family:Roboto;-inkscape-font-specification:'Roboto Medium';stroke-width:2.60128021">HelloWorld</tspan></text>

<g
   id="g1067"
   transform="matrix(0.14105693,0,0,0.14105693,292.72857,98.329481)"
   style="stroke-width:6.95650482"><path
     inkscape:connector-curvature="0"
     id="path1063"
     d="m 191.41508,36.905578 26.70308,-53.40567 26.70308,53.40567 z"
     style="fill:#afb42b;fill-opacity:1;stroke:none;stroke-width:185.76042175px;stroke-linecap:butt;stroke-linejoin:miter;stroke-opacity:1" /><path
     inkscape:connector-curvature="0"
     id="path1065"
     d="m 191.41508,36.905578 26.70308,53.40646 26.70308,-53.40646 z"
     style="fill:#dce775;fill-opacity:1;stroke:none;stroke-width:185.76042175px;stroke-linecap:butt;stroke-linejoin:miter;stroke-opacity:1" /></g><text
   xml:space="preserve"
   style="font-style:normal;font-weight:normal;font-size:20.59707642px;line-height:1.25;font-family:sans-serif;letter-spacing:0px;word-spacing:0px;fill:#424242;fill-opacity:1;stroke:none;stroke-width:1"
   x="310.67819"
   y="110.63102"
   id="text1071"><tspan
     sodipodi:role="line"
     id="tspan1069"
     x="310.67819"
     y="110.63102"
     style="font-style:normal;font-variant:normal;font-weight:normal;font-stretch:normal;font-family:'Fira Code';-inkscape-font-specification:'Fira Code';text-align:end;text-anchor:end;fill:#424242;stroke-width:1.94202316">0.0</tspan></text>

</g></g></svg>