<?xml version="1.0" encoding="UTF-8" standalone="no"?>
<!-- Created with Inkscape (http://www.inkscape.org/) -->

<svg
   xmlns:dc="http://purl.org/dc/elements/1.1/"
   xmlns:cc="http://creativecommons.org/ns#"
   xmlns:rdf="http://www.w3.org/1999/02/22-rdf-syntax-ns#"
   xmlns:svg="http://www.w3.org/2000/svg"
   xmlns="http://www.w3.org/2000/svg"
   xmlns:xlink="http://www.w3.org/1999/xlink"
   xmlns:sodipodi="http://sodipodi.sourceforge.net/DTD/sodipodi-0.dtd"
   xmlns:inkscape="http://www.inkscape.org/namespaces/inkscape"
   version="1.1"
   id="svg29"
   xml:space="preserve"
   width="100.00012mm"
   height="70mm"
   viewBox="0 0 377.95323 264.56694"
   sodipodi:docname="01.svg"
   inkscape:version="0.92.2 2405546, 2018-03-11"><metadata
     id="metadata35"><rdf:RDF><cc:Work
         rdf:about=""><dc:format>image/svg+xml</dc:format><dc:type
           rdf:resource="http://purl.org/dc/dcmitype/StillImage" /><dc:title></dc:title></cc:Work></rdf:RDF></metadata><defs
     id="defs33"><linearGradient
       inkscape:collect="always"
       id="linearGradient876"><stop
         style="stop-color:#ffffff;stop-opacity:1"
         offset="0"
         id="stop872" /><stop
         style="stop-color:#ffffff;stop-opacity:0"
         offset="1"
         id="stop874" /></linearGradient><linearGradient
       inkscape:collect="always"
       xlink:href="#linearGradient876"
       id="linearGradient878"
       x1="100.8952"
       y1="53.721825"
       x2="100.8952"
       y2="35.612434"
       gradientUnits="userSpaceOnUse" /></defs><sodipodi:namedview
     pagecolor="#000000"
     bordercolor="#666666"
     borderopacity="1"
     objecttolerance="10"
     gridtolerance="10"
     guidetolerance="10"
     inkscape:pageopacity="1"
     inkscape:pageshadow="2"
     inkscape:window-width="1366"
     inkscape:window-height="730"
     id="namedview31"
     showgrid="false"
     units="mm"
     inkscape:snap-page="true"
     borderlayer="true"
     inkscape:zoom="1.8101934"
     inkscape:cx="194.08252"
     inkscape:cy="123.63829"
     inkscape:window-x="0"
     inkscape:window-y="38"
     inkscape:window-maximized="0"
     inkscape:current-layer="layer1"
     inkscape:measure-start="0,0"
     inkscape:measure-end="0,0"
     inkscape:snap-bbox="true"
     inkscape:bbox-nodes="true"
     inkscape:object-nodes="true"
     inkscape:bbox-paths="true"
     inkscape:snap-object-midpoints="true"
     inkscape:object-paths="true"><inkscape:grid
       type="xygrid"
       id="grid1165" /></sodipodi:namedview><g
     id="g37"
     inkscape:groupmode="layer"
     inkscape:label="Background"
     transform="matrix(1.3333333,0,0,-1.3333333,0,264.56696)"
     sodipodi:insensitive="true"><rect
       style="opacity:1;fill:#000000;fill-opacity:1;stroke:none;stroke-width:0.75118107;stroke-linecap:round;stroke-linejoin:bevel;stroke-miterlimit:4;stroke-dasharray:none;stroke-dashoffset:0;stroke-opacity:1"
       id="rect43"
       width="283.4649"
       height="198.4252"
       x="0"
       y="-198.42522"
       transform="scale(1,-1)" /></g><g
     inkscape:groupmode="layer"
     id="layer1"
     inkscape:label="Foreground">






























<g
   aria-label="0x2600280546001019055"
   style="font-style:normal;font-weight:normal;font-size:27.70996284px;line-height:1.25;font-family:sans-serif;letter-spacing:0px;word-spacing:0px;fill:#fdd835;fill-opacity:1;stroke:none;stroke-width:0.99999994"
   id="text892"
   transform="translate(-0.30758836,4.5669291e-6)"><path
     d="m 30.910966,122.32173 q 3.048095,0 4.627563,2.54932 1.607178,2.5216 1.607178,7.28772 0,4.79382 -1.607178,7.34314 -1.579468,2.5216 -4.627563,2.5216 -3.048096,0 -4.655274,-2.5216 -1.579468,-2.54932 -1.579468,-7.34314 0,-4.76612 1.579468,-7.28772 1.607178,-2.54932 4.655274,-2.54932 z m 0,1.88428 q -3.796265,0 -3.796265,7.95276 0,3.15893 0.498779,4.98779 l 5.819092,-11.72131 q -0.886719,-1.21924 -2.521606,-1.21924 z m 0,15.93323 q 3.796264,0 3.796264,-7.98047 0,-3.18665 -0.498779,-5.01551 l -5.791382,11.80445 q 0.886719,1.19153 2.493897,1.19153 z"
     style="fill:#212121"
     id="path961"
     inkscape:connector-curvature="0" /><path
     d="m 43.425045,141.7187 h -2.660156 l 5.375733,-7.70337 -4.738404,-6.89978 h 2.770996 l 3.380616,5.43116 3.408325,-5.43116 h 2.687867 l -4.738404,6.78894 5.375733,7.81421 h -2.826416 l -4.017945,-6.26245 z"
     style="fill:#212121"
     id="path963"
     inkscape:connector-curvature="0" /><path
     d="m 66.419026,128.83357 q 1.524048,0 2.743286,0.74817 1.219239,0.74817 1.911988,2.2168 0.720459,1.44092 0.720459,3.40832 0,1.9397 -0.859009,3.54688 -0.831299,1.57947 -2.383057,2.5216 -1.524048,0.91443 -3.574585,0.91443 -3.602295,0 -5.375733,-2.54931 -1.773437,-2.57703 -1.773437,-6.59497 0,-3.24207 0.997558,-5.73597 1.025269,-2.49389 2.909546,-3.87939 1.884278,-1.41321 4.433594,-1.41321 2.355347,0 4.156495,1.24695 l -1.662598,2.66016 q -1.108398,-0.77588 -2.438477,-0.77588 -1.579468,0 -2.632446,1.44091 -1.025269,1.41321 -1.191529,3.99024 0.859009,-0.85901 1.911988,-1.30237 1.052979,-0.44336 2.105957,-0.44336 z m -1.385498,10.22498 q 1.191528,0 1.773438,-0.99756 0.609619,-0.99756 0.609619,-2.60474 0,-1.91198 -0.554199,-2.74328 -0.52649,-0.85901 -1.579468,-0.85901 -0.775879,0 -1.524048,0.38794 -0.748169,0.38794 -1.357789,1.1084 0.05542,2.99267 0.63733,4.35046 0.581909,1.35779 1.995117,1.35779 z"
     style="font-style:normal;font-variant:normal;font-weight:bold;font-stretch:normal;font-family:'Fira Code';-inkscape-font-specification:'Fira Code Bold';fill:#fdd835;fill-opacity:1;stroke-width:0.99999994"
     id="path967"
     inkscape:connector-curvature="0" /><path
     d="m 81.371583,122.01692 q 3.408327,0 5.154057,2.63245 1.77343,2.63244 1.77343,7.42627 0,4.82153 -1.77343,7.48169 -1.74573,2.63244 -5.154057,2.63244 -3.408326,0 -5.181763,-2.63244 -1.745728,-2.66016 -1.745728,-7.48169 0,-4.79383 1.745728,-7.42627 1.773437,-2.63245 5.181763,-2.63245 z m 0,3.18665 q -1.468628,0 -2.161377,1.60717 -0.66504,1.57947 -0.66504,5.2649 0,2.41076 0.16626,3.87939 l 4.682984,-9.80932 q -0.33252,-0.52649 -0.803589,-0.72046 -0.471069,-0.22168 -1.219238,-0.22168 z m 0,13.82727 q 1.468628,0 2.133667,-1.57947 0.66504,-1.57947 0.66504,-5.37573 0,-1.52405 -0.0831,-2.68787 l -4.405885,9.11658 q 0.554199,0.52649 1.690308,0.52649 z"
     style="font-style:normal;font-variant:normal;font-weight:bold;font-stretch:normal;font-family:'Fira Code';-inkscape-font-specification:'Fira Code Bold';fill:#fdd835;fill-opacity:1;stroke-width:0.99999994"
     id="path969"
     inkscape:connector-curvature="0" /><path
     d="m 97.98674,122.32173 q 3.0481,0 4.62756,2.54932 1.60718,2.5216 1.60718,7.28772 0,4.79382 -1.60718,7.34314 -1.57946,2.5216 -4.62756,2.5216 -3.0481,0 -4.65527,-2.5216 -1.57947,-2.54932 -1.57947,-7.34314 0,-4.76612 1.57947,-7.28772 1.60717,-2.54932 4.65527,-2.54932 z m 0,1.88428 q -3.79626,0 -3.79626,7.95276 0,3.15893 0.49878,4.98779 l 5.81909,-11.72131 q -0.88672,-1.21924 -2.52161,-1.21924 z m 0,15.93323 q 3.79627,0 3.79627,-7.98047 0,-3.18665 -0.49878,-5.01551 l -5.79139,11.80445 q 0.88672,1.19153 2.4939,1.19153 z"
     style="font-style:normal;font-variant:normal;font-weight:normal;font-stretch:normal;font-family:'Fira Code';-inkscape-font-specification:'Fira Code';fill:#ffffff;stroke-width:0.99999994"
     id="path971"
     inkscape:connector-curvature="0" /><path
     d="m 113.74288,122.32173 q 1.74573,0 3.0481,0.69275 1.33008,0.69275 2.02283,1.91199 0.69274,1.19153 0.69274,2.71557 0,1.77344 -0.83129,3.43604 -0.80359,1.6626 -2.60474,3.65771 -1.80115,1.96741 -5.09863,4.9878 h 8.97802 l -0.2771,1.99511 h -11.36108 v -1.88427 q 3.74084,-3.57459 5.54199,-5.59742 1.82886,-2.02282 2.52161,-3.46374 0.69275,-1.44092 0.69275,-3.0481 0,-1.60717 -0.91443,-2.5216 -0.91443,-0.91443 -2.52161,-0.91443 -1.35779,0 -2.27221,0.47107 -0.88672,0.44336 -1.82886,1.55175 l -1.60718,-1.24694 q 1.13611,-1.41321 2.52161,-2.07825 1.4132,-0.66504 3.29748,-0.66504 z"
     style="font-style:normal;font-variant:normal;font-weight:normal;font-stretch:normal;font-family:'Fira Code';-inkscape-font-specification:'Fira Code';fill:#ffffff;stroke-width:0.99999994"
     id="path973"
     inkscape:connector-curvature="0" /><path
     d="m 137.59033,127.11555 q 0,1.33008 -0.72046,2.29993 -0.69275,0.96985 -2.2445,1.85657 3.71313,1.88428 3.71313,5.23718 0,1.52405 -0.8313,2.82642 -0.8313,1.30237 -2.46618,2.07824 -1.60718,0.77588 -3.90711,0.77588 -2.24451,0 -3.85168,-0.74817 -1.57947,-0.77587 -2.38306,-2.02282 -0.80359,-1.27466 -0.80359,-2.79871 0,-1.60718 0.91443,-2.82642 0.94214,-1.24694 2.60474,-1.9674 -1.52405,-0.96985 -2.16138,-1.9397 -0.60962,-0.99756 -0.60962,-2.54932 0,-1.60717 0.8313,-2.7987 0.8313,-1.21924 2.27222,-1.85657 1.46862,-0.66504 3.29748,-0.66504 1.85657,0 3.29749,0.63733 1.44092,0.60962 2.2445,1.77344 0.80359,1.13611 0.80359,2.68786 z m -8.59009,0.22168 q 0,0.99756 0.66504,1.6626 0.66504,0.66504 2.13367,1.21924 0.91443,-0.66504 1.27466,-1.33008 0.36023,-0.66504 0.36023,-1.52405 0,-1.08069 -0.5542,-1.71801 -0.5542,-0.63733 -1.63489,-0.63733 -1.08069,0 -1.6626,0.60962 -0.58191,0.58191 -0.58191,1.71801 z m 4.96009,9.14429 q 0,-0.94214 -0.38794,-1.52405 -0.36023,-0.60962 -1.1084,-1.02527 -0.74817,-0.44335 -2.16138,-0.94213 -1.82885,1.16381 -1.82885,3.3529 0,1.24695 0.69274,1.99512 0.72046,0.72046 2.07825,0.72046 1.35779,0 2.02283,-0.72046 0.69275,-0.74817 0.69275,-1.85657 z"
     style="font-style:normal;font-variant:normal;font-weight:bold;font-stretch:normal;font-family:'Fira Code';-inkscape-font-specification:'Fira Code Bold';fill:#fdd835;fill-opacity:1;stroke-width:0.99999994"
     id="path975"
     inkscape:connector-curvature="0" /><path
     d="m 147.8322,122.01692 q 3.40833,0 5.15405,2.63245 1.77344,2.63244 1.77344,7.42627 0,4.82153 -1.77344,7.48169 -1.74572,2.63244 -5.15405,2.63244 -3.40833,0 -5.18176,-2.63244 -1.74573,-2.66016 -1.74573,-7.48169 0,-4.79383 1.74573,-7.42627 1.77343,-2.63245 5.18176,-2.63245 z m 0,3.18665 q -1.46863,0 -2.16138,1.60717 -0.66504,1.57947 -0.66504,5.2649 0,2.41076 0.16626,3.87939 l 4.68299,-9.80932 q -0.33252,-0.52649 -0.80359,-0.72046 -0.47107,-0.22168 -1.21924,-0.22168 z m 0,13.82727 q 1.46863,0 2.13367,-1.57947 0.66504,-1.57947 0.66504,-5.37573 0,-1.52405 -0.0831,-2.68787 l -4.40589,9.11658 q 0.5542,0.52649 1.69031,0.52649 z"
     style="font-style:normal;font-variant:normal;font-weight:bold;font-stretch:normal;font-family:'Fira Code';-inkscape-font-specification:'Fira Code Bold';fill:#fdd835;fill-opacity:1;stroke-width:0.99999994"
     id="path977"
     inkscape:connector-curvature="0" /><path
     d="m 169.90622,125.64693 h -7.01062 v 4.15649 q 1.35779,-0.63733 2.82642,-0.63733 1.49633,0 2.71557,0.77588 1.24695,0.74817 1.96741,2.16138 0.72046,1.41321 0.72046,3.29748 0,1.9397 -0.94214,3.49146 -0.94214,1.55176 -2.66016,2.43847 -1.71801,0.85901 -3.93481,0.85901 -2.02283,0 -3.65772,-0.74817 -1.60717,-0.77587 -2.71557,-2.13366 l 2.5216,-2.29993 q 0.69275,0.88672 1.57947,1.35779 0.91443,0.47107 1.9397,0.47107 1.52405,0 2.43848,-0.91443 0.91442,-0.94214 0.91442,-2.43848 0,-3.29748 -2.60473,-3.29748 -1.19153,0 -2.32764,0.63733 H 158.7114 V 122.5157 h 11.6936 z"
     style="fill:#ff5722;fill-opacity:1;stroke-width:0.99999994"
     id="path979"
     inkscape:connector-curvature="0" /><path
     d="m 188.07314,134.40327 v 3.26978 h -1.91199 v 4.04565 h -4.18421 l -0.0277,-4.04565 h -7.95275 v -2.88184 l 5.32031,-12.77429 3.71313,1.3855 -4.51672,11.00085 h 3.46374 l 0.47107,-4.62756 h 3.71314 v 4.62756 z"
     style="fill:#ff5722;fill-opacity:1;stroke-width:0.99999994"
     id="path981"
     inkscape:connector-curvature="0" /><path
     d="m 199.34026,128.83357 q 1.52404,0 2.74328,0.74817 1.21924,0.74817 1.91199,2.2168 0.72046,1.44092 0.72046,3.40832 0,1.9397 -0.85901,3.54688 -0.8313,1.57947 -2.38306,2.5216 -1.52404,0.91443 -3.57458,0.91443 -3.6023,0 -5.37573,-2.54931 -1.77344,-2.57703 -1.77344,-6.59497 0,-3.24207 0.99756,-5.73597 1.02527,-2.49389 2.90954,-3.87939 1.88428,-1.41321 4.4336,-1.41321 2.35534,0 4.15649,1.24695 l -1.6626,2.66016 q -1.1084,-0.77588 -2.43847,-0.77588 -1.57947,0 -2.63245,1.44091 -1.02527,1.41321 -1.19153,3.99024 0.85901,-0.85901 1.91199,-1.30237 1.05298,-0.44336 2.10596,-0.44336 z m -1.3855,10.22498 q 1.19153,0 1.77344,-0.99756 0.60962,-0.99756 0.60962,-2.60474 0,-1.91198 -0.5542,-2.74328 -0.52649,-0.85901 -1.57947,-0.85901 -0.77588,0 -1.52405,0.38794 -0.74817,0.38794 -1.35779,1.1084 0.0554,2.99267 0.63733,4.35046 0.58191,1.35779 1.99512,1.35779 z"
     style="font-style:normal;font-variant:normal;font-weight:bold;font-stretch:normal;font-family:'Fira Code';-inkscape-font-specification:'Fira Code Bold';fill:#fdd835;fill-opacity:1;stroke-width:0.99999994"
     id="path983"
     inkscape:connector-curvature="0" /><path
     d="m 214.29282,122.01692 q 3.40832,0 5.15405,2.63245 1.77344,2.63244 1.77344,7.42627 0,4.82153 -1.77344,7.48169 -1.74573,2.63244 -5.15405,2.63244 -3.40833,0 -5.18177,-2.63244 -1.74572,-2.66016 -1.74572,-7.48169 0,-4.79383 1.74572,-7.42627 1.77344,-2.63245 5.18177,-2.63245 z m 0,3.18665 q -1.46863,0 -2.16138,1.60717 -0.66504,1.57947 -0.66504,5.2649 0,2.41076 0.16626,3.87939 l 4.68298,-9.80932 q -0.33252,-0.52649 -0.80358,-0.72046 -0.47107,-0.22168 -1.21924,-0.22168 z m 0,13.82727 q 1.46862,0 2.13366,-1.57947 0.66504,-1.57947 0.66504,-5.37573 0,-1.52405 -0.0831,-2.68787 l -4.40588,9.11658 q 0.5542,0.52649 1.69031,0.52649 z"
     style="font-style:normal;font-variant:normal;font-weight:bold;font-stretch:normal;font-family:'Fira Code';-inkscape-font-specification:'Fira Code Bold';fill:#fdd835;fill-opacity:1;stroke-width:0.99999994"
     id="path985"
     inkscape:connector-curvature="0" /><path
     d="m 230.90797,122.32173 q 3.0481,0 4.62757,2.54932 1.60718,2.5216 1.60718,7.28772 0,4.79382 -1.60718,7.34314 -1.57947,2.5216 -4.62757,2.5216 -3.04809,0 -4.65527,-2.5216 -1.57947,-2.54932 -1.57947,-7.34314 0,-4.76612 1.57947,-7.28772 1.60718,-2.54932 4.65527,-2.54932 z m 0,1.88428 q -3.79626,0 -3.79626,7.95276 0,3.15893 0.49878,4.98779 l 5.81909,-11.72131 q -0.88672,-1.21924 -2.52161,-1.21924 z m 0,15.93323 q 3.79627,0 3.79627,-7.98047 0,-3.18665 -0.49878,-5.01551 l -5.79138,11.80445 q 0.88672,1.19153 2.49389,1.19153 z"
     style="font-style:normal;font-variant:normal;font-weight:normal;font-stretch:normal;font-family:'Fira Code';-inkscape-font-specification:'Fira Code';fill:#ffffff;fill-opacity:1;stroke-width:0.99999994"
     id="path987"
     inkscape:connector-curvature="0" /><path
     d="m 249.57365,139.83443 h 3.96253 v 1.88427 h -11.00086 v -1.88427 h 4.68299 v -14.65857 l -4.35047,2.63244 -1.02526,-1.63488 5.68054,-3.54688 h 2.05053 z"
     style="font-style:normal;font-variant:normal;font-weight:normal;font-stretch:normal;font-family:'Fira Code';-inkscape-font-specification:'Fira Code';fill:#ffffff;fill-opacity:1;stroke-width:0.99999994"
     id="path989"
     inkscape:connector-curvature="0" /><path
     d="m 264.13828,122.01692 q 3.40832,0 5.15405,2.63245 1.77344,2.63244 1.77344,7.42627 0,4.82153 -1.77344,7.48169 -1.74573,2.63244 -5.15405,2.63244 -3.40833,0 -5.18177,-2.63244 -1.74572,-2.66016 -1.74572,-7.48169 0,-4.79383 1.74572,-7.42627 1.77344,-2.63245 5.18177,-2.63245 z m 0,3.18665 q -1.46863,0 -2.16138,1.60717 -0.66504,1.57947 -0.66504,5.2649 0,2.41076 0.16626,3.87939 l 4.68298,-9.80932 q -0.33252,-0.52649 -0.80359,-0.72046 -0.47107,-0.22168 -1.21923,-0.22168 z m 0,13.82727 q 1.46862,0 2.13366,-1.57947 0.66504,-1.57947 0.66504,-5.37573 0,-1.52405 -0.0831,-2.68787 l -4.40588,9.11658 q 0.5542,0.52649 1.69031,0.52649 z"
     style="fill:#009688;fill-opacity:1;stroke-width:0.99999994"
     id="path991"
     inkscape:connector-curvature="0" /><path
     d="m 284.13405,138.39351 h 3.57458 v 3.32519 h -12.46948 v -3.32519 h 4.62756 v -11.58277 l -3.96252,2.4939 -1.85657,-3.02039 6.20703,-3.76855 h 3.8794 z"
     style="fill:#009688;fill-opacity:1;stroke-width:0.99999994"
     id="path993"
     inkscape:connector-curvature="0" /><path
     d="m 297.25774,122.01692 q 3.43603,0 5.23718,2.07825 1.82886,2.07825 1.82886,5.59741 0,3.68543 -1.24695,6.23474 -1.24695,2.54932 -3.82398,4.1565 -2.54931,1.60717 -6.62268,2.46618 l -0.91443,-3.0758 q 3.46375,-0.85901 5.37574,-2.27222 1.91198,-1.44092 2.5216,-3.71313 -0.91443,0.80358 -1.85656,1.21923 -0.91443,0.38794 -2.05054,0.38794 -1.49634,0 -2.74329,-0.77588 -1.24695,-0.77587 -1.9674,-2.16137 -0.72046,-1.41321 -0.72046,-3.21436 0,-2.05054 0.91442,-3.60229 0.91443,-1.57947 2.4939,-2.43848 1.57947,-0.88672 3.57459,-0.88672 z m -2.57703,6.78894 q 0,1.6626 0.63733,2.43848 0.66504,0.77588 1.74573,0.77588 1.41321,0 2.74328,-1.1084 0.0277,-2.07825 -0.19397,-3.29749 -0.19397,-1.21924 -0.74817,-1.82885 -0.55419,-0.63733 -1.63488,-0.63733 -1.21924,0 -1.88428,0.91443 -0.66504,0.88671 -0.66504,2.74328 z"
     style="font-style:normal;font-variant:normal;font-weight:bold;font-stretch:normal;font-family:'Fira Code';-inkscape-font-specification:'Fira Code Bold';fill:#fdd835;fill-opacity:1;stroke-width:0.99999994"
     id="path995"
     inkscape:connector-curvature="0" /><path
     d="m 313.98375,122.01692 q 3.40833,0 5.15405,2.63245 1.77344,2.63244 1.77344,7.42627 0,4.82153 -1.77344,7.48169 -1.74572,2.63244 -5.15405,2.63244 -3.40833,0 -5.18176,-2.63244 -1.74573,-2.66016 -1.74573,-7.48169 0,-4.79383 1.74573,-7.42627 1.77343,-2.63245 5.18176,-2.63245 z m 0,3.18665 q -1.46863,0 -2.16138,1.60717 -0.66504,1.57947 -0.66504,5.2649 0,2.41076 0.16626,3.87939 l 4.68299,-9.80932 q -0.33252,-0.52649 -0.80359,-0.72046 -0.47107,-0.22168 -1.21924,-0.22168 z m 0,13.82727 q 1.46863,0 2.13367,-1.57947 0.66504,-1.57947 0.66504,-5.37573 0,-1.52405 -0.0831,-2.68787 l -4.40589,9.11658 q 0.5542,0.52649 1.69031,0.52649 z"
     style="font-style:normal;font-variant:normal;font-weight:bold;font-stretch:normal;font-family:'Fira Code';-inkscape-font-specification:'Fira Code Bold';fill:#fdd835;fill-opacity:1;stroke-width:0.99999994"
     id="path997"
     inkscape:connector-curvature="0" /><path
     d="m 336.05776,125.64693 h -7.01063 v 4.15649 q 1.35779,-0.63733 2.82642,-0.63733 1.49634,0 2.71558,0.77588 1.24695,0.74817 1.9674,2.16138 0.72046,1.41321 0.72046,3.29748 0,1.9397 -0.94213,3.49146 -0.94214,1.55176 -2.66016,2.43847 -1.71802,0.85901 -3.93482,0.85901 -2.02282,0 -3.65771,-0.74817 -1.60718,-0.77587 -2.71558,-2.13366 l 2.52161,-2.29993 q 0.69275,0.88672 1.57947,1.35779 0.91443,0.47107 1.93969,0.47107 1.52405,0 2.43848,-0.91443 0.91443,-0.94214 0.91443,-2.43848 0,-3.29748 -2.60474,-3.29748 -1.19153,0 -2.32763,0.63733 h -2.96497 V 122.5157 h 11.6936 z"
     style="fill:#ff5722;fill-opacity:1;stroke-width:0.99999994"
     id="path999"
     inkscape:connector-curvature="0" /><path
     d="m 352.67293,125.64693 h -7.01062 v 4.15649 q 1.35779,-0.63733 2.82641,-0.63733 1.49634,0 2.71558,0.77588 1.24695,0.74817 1.96741,2.16138 0.72046,1.41321 0.72046,3.29748 0,1.9397 -0.94214,3.49146 -0.94214,1.55176 -2.66016,2.43847 -1.71802,0.85901 -3.93481,0.85901 -2.02283,0 -3.65772,-0.74817 -1.60718,-0.77587 -2.71557,-2.13366 l 2.5216,-2.29993 q 0.69275,0.88672 1.57947,1.35779 0.91443,0.47107 1.9397,0.47107 1.52405,0 2.43847,-0.91443 0.91443,-0.94214 0.91443,-2.43848 0,-3.29748 -2.60473,-3.29748 -1.19153,0 -2.32764,0.63733 H 341.4781 V 122.5157 h 11.69361 z"
     style="fill:#ff5722;fill-opacity:1;stroke-width:0.99999994"
     id="path1001"
     inkscape:connector-curvature="0" /></g></g></svg>