<?xml version="1.0" encoding="UTF-8" standalone="no"?>
<!-- Created with Inkscape (http://www.inkscape.org/) -->

<svg
   xmlns:dc="http://purl.org/dc/elements/1.1/"
   xmlns:cc="http://creativecommons.org/ns#"
   xmlns:rdf="http://www.w3.org/1999/02/22-rdf-syntax-ns#"
   xmlns:svg="http://www.w3.org/2000/svg"
   xmlns="http://www.w3.org/2000/svg"
   xmlns:xlink="http://www.w3.org/1999/xlink"
   xmlns:sodipodi="http://sodipodi.sourceforge.net/DTD/sodipodi-0.dtd"
   xmlns:inkscape="http://www.inkscape.org/namespaces/inkscape"
   version="1.1"
   id="svg29"
   xml:space="preserve"
   width="100.00012mm"
   height="70mm"
   viewBox="0 0 377.95323 264.56694"
   sodipodi:docname="01.svg"
   inkscape:version="0.92.2 2405546, 2018-03-11"><metadata
     id="metadata35"><rdf:RDF><cc:Work
         rdf:about=""><dc:format>image/svg+xml</dc:format><dc:type
           rdf:resource="http://purl.org/dc/dcmitype/StillImage" /><dc:title></dc:title></cc:Work></rdf:RDF></metadata><defs
     id="defs33"><marker
       inkscape:stockid="TriangleOutS"
       orient="auto"
       refY="0.0"
       refX="0.0"
       id="TriangleOutS"
       style="overflow:visible"
       inkscape:isstock="true"><path
         id="path12556"
         d="M 5.77,0.0 L -2.88,5.0 L -2.88,-5.0 L 5.77,0.0 z "
         style="fill-rule:evenodd;stroke:#e0e0e0;stroke-width:1pt;stroke-opacity:1;fill:#eeeeee;fill-opacity:1"
         transform="scale(0.2)" /></marker><marker
       inkscape:stockid="TriangleOutM"
       orient="auto"
       refY="0.0"
       refX="0.0"
       id="TriangleOutM"
       style="overflow:visible"
       inkscape:isstock="true"><path
         id="path12553"
         d="M 5.77,0.0 L -2.88,5.0 L -2.88,-5.0 L 5.77,0.0 z "
         style="fill-rule:evenodd;stroke:#ffffff;stroke-width:1pt;stroke-opacity:1;fill:#ffffff;fill-opacity:1"
         transform="scale(0.4)" /></marker><linearGradient
       inkscape:collect="always"
       id="linearGradient876"><stop
         style="stop-color:#ffffff;stop-opacity:1"
         offset="0"
         id="stop872" /><stop
         style="stop-color:#ffffff;stop-opacity:0"
         offset="1"
         id="stop874" /></linearGradient><linearGradient
       inkscape:collect="always"
       xlink:href="#linearGradient876"
       id="linearGradient878"
       x1="100.8952"
       y1="53.721825"
       x2="100.8952"
       y2="35.612434"
       gradientUnits="userSpaceOnUse" /></defs><sodipodi:namedview
     pagecolor="#000000"
     bordercolor="#666666"
     borderopacity="1"
     objecttolerance="10"
     gridtolerance="10"
     guidetolerance="10"
     inkscape:pageopacity="1"
     inkscape:pageshadow="2"
     inkscape:window-width="1366"
     inkscape:window-height="730"
     id="namedview31"
     showgrid="false"
     units="mm"
     inkscape:snap-page="true"
     borderlayer="true"
     inkscape:zoom="1.5461588"
     inkscape:cx="235.81061"
     inkscape:cy="90.279863"
     inkscape:window-x="0"
     inkscape:window-y="38"
     inkscape:window-maximized="0"
     inkscape:current-layer="layer1"
     inkscape:measure-start="0,0"
     inkscape:measure-end="0,0"
     inkscape:snap-bbox="true"
     inkscape:bbox-nodes="true"
     inkscape:object-nodes="true"
     inkscape:bbox-paths="true"
     inkscape:snap-object-midpoints="true"
     inkscape:object-paths="true"
     inkscape:snap-global="false"><inkscape:grid
       type="xygrid"
       id="grid12184" /></sodipodi:namedview><g
     id="g37"
     inkscape:groupmode="layer"
     inkscape:label="Background"
     transform="matrix(1.3333333,0,0,-1.3333333,0,264.56696)"
     sodipodi:insensitive="true"><rect
       style="opacity:1;fill:#000000;fill-opacity:1;stroke:none;stroke-width:0.75118107;stroke-linecap:round;stroke-linejoin:bevel;stroke-miterlimit:4;stroke-dasharray:none;stroke-dashoffset:0;stroke-opacity:1"
       id="rect43"
       width="283.4649"
       height="198.4252"
       x="0"
       y="-198.42522"
       transform="scale(1,-1)" /></g><g
     inkscape:groupmode="layer"
     id="layer1"
     inkscape:label="Foreground">





<g
   id="g13931"
   transform="matrix(1.6694118,0,0,1.6694118,42.274095,-88.552109)"><g
     id="g12282"><g
       transform="translate(-21.49456,129.86315)"
       id="g11914" /></g><rect
     style="opacity:1;fill:#e0e0e0;fill-opacity:1;stroke:none;stroke-width:1.17557955;stroke-linecap:round;stroke-linejoin:bevel;stroke-miterlimit:4;stroke-dasharray:none;stroke-dashoffset:0;stroke-opacity:1"
     id="rect11668"
     width="133.33206"
     height="121.73714"
     x="21.210737"
     y="71.414894" /><rect
     style="opacity:1;fill:#fafafa;fill-opacity:1;stroke:none;stroke-width:1.17557931;stroke-linecap:round;stroke-linejoin:bevel;stroke-miterlimit:4;stroke-dasharray:none;stroke-dashoffset:0;stroke-opacity:1"
     id="rect11709"
     width="125.19121"
     height="19.777657"
     x="25.012358"
     y="75.466484" /><g
     style="stroke-width:6.95650482"
     transform="matrix(0.08449499,0,0,0.08449499,124.86896,82.236944)"
     id="g11715"><path
       style="fill:#afb42b;fill-opacity:1;stroke:none;stroke-width:185.76042175px;stroke-linecap:butt;stroke-linejoin:miter;stroke-opacity:1"
       d="m 191.41508,36.905578 26.70308,-53.40567 26.70308,53.40567 z"
       id="path11711"
       inkscape:connector-curvature="0" /><path
       style="fill:#dce775;fill-opacity:1;stroke:none;stroke-width:185.76042175px;stroke-linecap:butt;stroke-linejoin:miter;stroke-opacity:1"
       d="m 191.41508,36.905578 26.70308,53.40646 26.70308,-53.40646 z"
       id="path11713"
       inkscape:connector-curvature="0" /></g><text
     id="text11719"
     y="88.542534"
     x="140.37379"
     style="font-style:normal;font-weight:normal;font-size:9.25171375px;line-height:1.25;font-family:sans-serif;letter-spacing:0px;word-spacing:0px;fill:#212121;fill-opacity:1;stroke:none;stroke-width:0.58778977"
     xml:space="preserve"><tspan
       style="font-style:normal;font-variant:normal;font-weight:300;font-stretch:normal;font-family:'Fira Code';-inkscape-font-specification:'Fira Code Light';text-align:end;text-anchor:end;fill:#212121;stroke-width:0.58778977"
       y="88.542534"
       x="140.37379"
       id="tspan11717"
       sodipodi:role="line">6</tspan></text>
<g
     style="stroke-width:4.07765341"
     transform="matrix(0.14414903,0,0,0.14414903,64.612201,82.618408)"
     id="g11725"><path
       inkscape:connector-curvature="0"
       style="opacity:1;fill:#c62828;fill-opacity:1;stroke:none;stroke-width:4.0840745;stroke-linecap:round;stroke-linejoin:bevel;stroke-miterlimit:4;stroke-dasharray:none;stroke-dashoffset:0;stroke-opacity:1"
       d="m -187.00967,-35.433732 c -18.3874,-0.0027 -33.29406,14.90391 -33.29133,33.2913135 1.5e-4,13.3824525 8.01465,25.4635525 20.34414,30.6668725 -23.09032,3.23923 -40.45098,15.98138 -41.68943,31.55138 h 106.47381 c -1.20057,-15.11618 -17.61054,-27.55157 -39.69682,-31.23063 12.75057,-4.99679 21.13956,-17.29293 21.14121,-30.9876225 0.003,-18.3836215 -14.89796,-33.2886255 -33.28158,-33.2913135 z"
       id="path11721"
       sodipodi:nodetypes="cccccccc" /><path
       style="color:#000000;font-style:normal;font-variant:normal;font-weight:normal;font-stretch:normal;font-size:medium;line-height:normal;font-family:sans-serif;font-variant-ligatures:normal;font-variant-position:normal;font-variant-caps:normal;font-variant-numeric:normal;font-variant-alternates:normal;font-feature-settings:normal;text-indent:0;text-align:start;text-decoration:none;text-decoration-line:none;text-decoration-style:solid;text-decoration-color:#000000;letter-spacing:normal;word-spacing:normal;text-transform:none;writing-mode:lr-tb;direction:ltr;text-orientation:mixed;dominant-baseline:auto;baseline-shift:baseline;text-anchor:start;white-space:normal;shape-padding:0;clip-rule:nonzero;display:inline;overflow:visible;visibility:visible;opacity:1;isolation:auto;mix-blend-mode:normal;color-interpolation:sRGB;color-interpolation-filters:linearRGB;solid-color:#000000;solid-opacity:1;vector-effect:none;fill:#757575;fill-opacity:1;fill-rule:nonzero;stroke:none;stroke-width:30.65100479;stroke-linecap:round;stroke-linejoin:round;stroke-miterlimit:4;stroke-dasharray:none;stroke-dashoffset:0;stroke-opacity:1;color-rendering:auto;image-rendering:auto;shape-rendering:auto;text-rendering:auto;enable-background:accumulate"
       d="m -187.83778,26.015904 c -11.9856,0 -21.8112,9.8256 -21.8112,21.81101 0,11.98567 9.8256,21.818 21.8112,21.818 10.70601,0 19.68824,-7.84649 21.48518,-18.06376 h 20.14076 v 17.94017 a 3.7587884,3.7587884 0 1 0 7.51329,0 v -4.43807 a 3.7594495,3.7594495 0 0 0 3.52607,-3.74744 v -1.25998 a 3.3902363,3.3902363 0 0 0 3.38362,0.0714 v 1.77486 a 3.3902363,3.3902363 0 0 0 4.00445,3.37172 v 1.08227 a 3.7601045,3.7601045 0 1 0 7.5202,0 v -18.55102 a 3.7587884,3.7587884 0 0 0 -3.75923,-3.75401 h -8.92131 a 3.3902363,3.3902363 0 0 0 -0.5297,-0.0302 3.3902363,3.3902363 0 0 0 -0.43907,0.0302 h -32.44059 c -1.79981,-10.2127 -10.77989,-18.05174 -21.48348,-18.05174 z m 0,10.54031 c 6.28914,0 11.27252,4.98156 11.27252,11.2707 0,6.28944 -4.98338,11.27943 -11.27252,11.27943 -6.28924,0 -11.27263,-4.98999 -11.27263,-11.27943 0,-6.28914 4.98339,-11.2707 11.27263,-11.2707 z"
       id="path11723"
       inkscape:connector-curvature="0" /></g><text
     xml:space="preserve"
     style="font-style:normal;font-weight:normal;font-size:9.25171375px;line-height:1.25;font-family:sans-serif;text-align:start;letter-spacing:0px;word-spacing:0px;text-anchor:start;fill:#212121;fill-opacity:1;stroke:none;stroke-width:0.58778977"
     x="54.556496"
     y="88.542534"
     id="text11729"><tspan
       sodipodi:role="line"
       id="tspan11727"
       x="54.556496"
       y="88.542534"
       style="font-style:normal;font-variant:normal;font-weight:300;font-stretch:normal;font-family:'Fira Code';-inkscape-font-specification:'Fira Code Light';text-align:start;text-anchor:start;fill:#212121;stroke-width:0.58778977">0x0c7d</tspan></text>
<g
     transform="matrix(0.58778978,0,0,0.58778978,-35.836034,83.837648)"
     id="g11866"><rect
       style="opacity:1;fill:#fafafa;fill-opacity:1;stroke:none;stroke-width:1.99999964;stroke-linecap:round;stroke-linejoin:bevel;stroke-miterlimit:4;stroke-dasharray:none;stroke-dashoffset:0;stroke-opacity:1"
       id="rect11844"
       width="212.98636"
       height="33.647499"
       x="103.52067"
       y="25.75824" /><g
       style="stroke-width:6.95650482"
       transform="matrix(0.14375035,0,0,0.14375035,273.40556,37.276742)"
       id="g11850"><path
         style="fill:#afb42b;fill-opacity:1;stroke:none;stroke-width:185.76042175px;stroke-linecap:butt;stroke-linejoin:miter;stroke-opacity:1"
         d="m 191.41508,36.905578 26.70308,-53.40567 26.70308,53.40567 z"
         id="path11846"
         inkscape:connector-curvature="0" /><path
         style="fill:#dce775;fill-opacity:1;stroke:none;stroke-width:185.76042175px;stroke-linecap:butt;stroke-linejoin:miter;stroke-opacity:1"
         d="m 191.41508,36.905578 26.70308,53.40646 26.70308,-53.40646 z"
         id="path11848"
         inkscape:connector-curvature="0" /></g><text
       id="text11854"
       y="48.004364"
       x="299.78375"
       style="font-style:normal;font-weight:normal;font-size:15.73983383px;line-height:1.25;font-family:sans-serif;letter-spacing:0px;word-spacing:0px;fill:#212121;fill-opacity:1;stroke:none;stroke-width:0.99999994"
       xml:space="preserve"><tspan
         style="font-style:normal;font-variant:normal;font-weight:300;font-stretch:normal;font-family:'Fira Code';-inkscape-font-specification:'Fira Code Light';text-align:end;text-anchor:end;fill:#212121;stroke-width:0.99999994"
         y="48.004364"
         x="299.78375"
         id="tspan11852"
         sodipodi:role="line">0</tspan></text>
<g
       style="stroke-width:4.07765341"
       transform="matrix(0.24523909,0,0,0.24523909,170.89143,37.925721)"
       id="g11860"><path
         inkscape:connector-curvature="0"
         style="opacity:1;fill:#00acc1;fill-opacity:1;stroke:none;stroke-width:4.0840745;stroke-linecap:round;stroke-linejoin:bevel;stroke-miterlimit:4;stroke-dasharray:none;stroke-dashoffset:0;stroke-opacity:1"
         d="m -187.00967,-35.433732 c -18.3874,-0.0027 -33.29406,14.90391 -33.29133,33.2913135 1.5e-4,13.3824525 8.01465,25.4635525 20.34414,30.6668725 -23.09032,3.23923 -40.45098,15.98138 -41.68943,31.55138 h 106.47381 c -1.20057,-15.11618 -17.61054,-27.55157 -39.69682,-31.23063 12.75057,-4.99679 21.13956,-17.29293 21.14121,-30.9876225 0.003,-18.3836215 -14.89796,-33.2886255 -33.28158,-33.2913135 z"
         id="path11856"
         sodipodi:nodetypes="cccccccc" /><path
         style="color:#000000;font-style:normal;font-variant:normal;font-weight:normal;font-stretch:normal;font-size:medium;line-height:normal;font-family:sans-serif;font-variant-ligatures:normal;font-variant-position:normal;font-variant-caps:normal;font-variant-numeric:normal;font-variant-alternates:normal;font-feature-settings:normal;text-indent:0;text-align:start;text-decoration:none;text-decoration-line:none;text-decoration-style:solid;text-decoration-color:#000000;letter-spacing:normal;word-spacing:normal;text-transform:none;writing-mode:lr-tb;direction:ltr;text-orientation:mixed;dominant-baseline:auto;baseline-shift:baseline;text-anchor:start;white-space:normal;shape-padding:0;clip-rule:nonzero;display:inline;overflow:visible;visibility:visible;opacity:1;isolation:auto;mix-blend-mode:normal;color-interpolation:sRGB;color-interpolation-filters:linearRGB;solid-color:#000000;solid-opacity:1;vector-effect:none;fill:#757575;fill-opacity:1;fill-rule:nonzero;stroke:none;stroke-width:30.65100479;stroke-linecap:round;stroke-linejoin:round;stroke-miterlimit:4;stroke-dasharray:none;stroke-dashoffset:0;stroke-opacity:1;color-rendering:auto;image-rendering:auto;shape-rendering:auto;text-rendering:auto;enable-background:accumulate"
         d="m -187.83778,26.015904 c -11.9856,0 -21.8112,9.8256 -21.8112,21.81101 0,11.98567 9.8256,21.818 21.8112,21.818 10.70601,0 19.68824,-7.84649 21.48518,-18.06376 h 20.14076 v 17.94017 a 3.7587884,3.7587884 0 1 0 7.51329,0 v -4.43807 a 3.7594495,3.7594495 0 0 0 3.52607,-3.74744 v -1.25998 a 3.3902363,3.3902363 0 0 0 3.38362,0.0714 v 1.77486 a 3.3902363,3.3902363 0 0 0 4.00445,3.37172 v 1.08227 a 3.7601045,3.7601045 0 1 0 7.5202,0 v -18.55102 a 3.7587884,3.7587884 0 0 0 -3.75923,-3.75401 h -8.92131 a 3.3902363,3.3902363 0 0 0 -0.5297,-0.0302 3.3902363,3.3902363 0 0 0 -0.43907,0.0302 h -32.44059 c -1.79981,-10.2127 -10.77989,-18.05174 -21.48348,-18.05174 z m 0,10.54031 c 6.28914,0 11.27252,4.98156 11.27252,11.2707 0,6.28944 -4.98338,11.27943 -11.27252,11.27943 -6.28924,0 -11.27263,-4.98999 -11.27263,-11.27943 0,-6.28914 4.98339,-11.2707 11.27263,-11.2707 z"
         id="path11858"
         inkscape:connector-curvature="0" /></g><text
       xml:space="preserve"
       style="font-style:normal;font-weight:normal;font-size:15.73983383px;line-height:1.25;font-family:sans-serif;text-align:start;letter-spacing:0px;word-spacing:0px;text-anchor:start;fill:#212121;fill-opacity:1;stroke:none;stroke-width:0.99999994"
       x="153.78375"
       y="48.004364"
       id="text11864"><tspan
         sodipodi:role="line"
         id="tspan11862"
         x="153.78375"
         y="48.004364"
         style="font-style:normal;font-variant:normal;font-weight:300;font-stretch:normal;font-family:'Fira Code';-inkscape-font-specification:'Fira Code Light';text-align:start;text-anchor:start;fill:#212121;stroke-width:0.99999994">0x3daf</tspan></text>
</g><g
     id="g11890"
     transform="matrix(0.58778978,0,0,0.58778978,-35.836034,107.34924)"><rect
       y="25.75824"
       x="103.52067"
       height="33.647499"
       width="212.98636"
       id="rect11868"
       style="opacity:1;fill:#fafafa;fill-opacity:1;stroke:none;stroke-width:1.99999964;stroke-linecap:round;stroke-linejoin:bevel;stroke-miterlimit:4;stroke-dasharray:none;stroke-dashoffset:0;stroke-opacity:1" /><g
       id="g11874"
       transform="matrix(0.14375035,0,0,0.14375035,273.40556,37.276742)"
       style="stroke-width:6.95650482"><path
         inkscape:connector-curvature="0"
         id="path11870"
         d="m 191.41508,36.905578 26.70308,-53.40567 26.70308,53.40567 z"
         style="fill:#afb42b;fill-opacity:1;stroke:none;stroke-width:185.76042175px;stroke-linecap:butt;stroke-linejoin:miter;stroke-opacity:1" /><path
         inkscape:connector-curvature="0"
         id="path11872"
         d="m 191.41508,36.905578 26.70308,53.40646 26.70308,-53.40646 z"
         style="fill:#dce775;fill-opacity:1;stroke:none;stroke-width:185.76042175px;stroke-linecap:butt;stroke-linejoin:miter;stroke-opacity:1" /></g><text
       xml:space="preserve"
       style="font-style:normal;font-weight:normal;font-size:15.73983383px;line-height:1.25;font-family:sans-serif;letter-spacing:0px;word-spacing:0px;fill:#212121;fill-opacity:1;stroke:none;stroke-width:0.99999994"
       x="299.78375"
       y="48.004364"
       id="text11878"><tspan
         sodipodi:role="line"
         id="tspan11876"
         x="299.78375"
         y="48.004364"
         style="font-style:normal;font-variant:normal;font-weight:300;font-stretch:normal;font-family:'Fira Code';-inkscape-font-specification:'Fira Code Light';text-align:end;text-anchor:end;fill:#212121;stroke-width:0.99999994">3</tspan></text>
<g
       id="g11884"
       transform="matrix(0.24523909,0,0,0.24523909,170.89143,37.925721)"
       style="stroke-width:4.07765341"><path
         sodipodi:nodetypes="cccccccc"
         id="path11880"
         d="m -187.00967,-35.433732 c -18.3874,-0.0027 -33.29406,14.90391 -33.29133,33.2913135 1.5e-4,13.3824525 8.01465,25.4635525 20.34414,30.6668725 -23.09032,3.23923 -40.45098,15.98138 -41.68943,31.55138 h 106.47381 c -1.20057,-15.11618 -17.61054,-27.55157 -39.69682,-31.23063 12.75057,-4.99679 21.13956,-17.29293 21.14121,-30.9876225 0.003,-18.3836215 -14.89796,-33.2886255 -33.28158,-33.2913135 z"
         style="opacity:1;fill:#aeea00;fill-opacity:1;stroke:none;stroke-width:4.0840745;stroke-linecap:round;stroke-linejoin:bevel;stroke-miterlimit:4;stroke-dasharray:none;stroke-dashoffset:0;stroke-opacity:1"
         inkscape:connector-curvature="0" /><path
         inkscape:connector-curvature="0"
         id="path11882"
         d="m -187.83778,26.015904 c -11.9856,0 -21.8112,9.8256 -21.8112,21.81101 0,11.98567 9.8256,21.818 21.8112,21.818 10.70601,0 19.68824,-7.84649 21.48518,-18.06376 h 20.14076 v 17.94017 a 3.7587884,3.7587884 0 1 0 7.51329,0 v -4.43807 a 3.7594495,3.7594495 0 0 0 3.52607,-3.74744 v -1.25998 a 3.3902363,3.3902363 0 0 0 3.38362,0.0714 v 1.77486 a 3.3902363,3.3902363 0 0 0 4.00445,3.37172 v 1.08227 a 3.7601045,3.7601045 0 1 0 7.5202,0 v -18.55102 a 3.7587884,3.7587884 0 0 0 -3.75923,-3.75401 h -8.92131 a 3.3902363,3.3902363 0 0 0 -0.5297,-0.0302 3.3902363,3.3902363 0 0 0 -0.43907,0.0302 h -32.44059 c -1.79981,-10.2127 -10.77989,-18.05174 -21.48348,-18.05174 z m 0,10.54031 c 6.28914,0 11.27252,4.98156 11.27252,11.2707 0,6.28944 -4.98338,11.27943 -11.27252,11.27943 -6.28924,0 -11.27263,-4.98999 -11.27263,-11.27943 0,-6.28914 4.98339,-11.2707 11.27263,-11.2707 z"
         style="color:#000000;font-style:normal;font-variant:normal;font-weight:normal;font-stretch:normal;font-size:medium;line-height:normal;font-family:sans-serif;font-variant-ligatures:normal;font-variant-position:normal;font-variant-caps:normal;font-variant-numeric:normal;font-variant-alternates:normal;font-feature-settings:normal;text-indent:0;text-align:start;text-decoration:none;text-decoration-line:none;text-decoration-style:solid;text-decoration-color:#000000;letter-spacing:normal;word-spacing:normal;text-transform:none;writing-mode:lr-tb;direction:ltr;text-orientation:mixed;dominant-baseline:auto;baseline-shift:baseline;text-anchor:start;white-space:normal;shape-padding:0;clip-rule:nonzero;display:inline;overflow:visible;visibility:visible;opacity:1;isolation:auto;mix-blend-mode:normal;color-interpolation:sRGB;color-interpolation-filters:linearRGB;solid-color:#000000;solid-opacity:1;vector-effect:none;fill:#757575;fill-opacity:1;fill-rule:nonzero;stroke:none;stroke-width:30.65100479;stroke-linecap:round;stroke-linejoin:round;stroke-miterlimit:4;stroke-dasharray:none;stroke-dashoffset:0;stroke-opacity:1;color-rendering:auto;image-rendering:auto;shape-rendering:auto;text-rendering:auto;enable-background:accumulate" /></g><text
       id="text11888"
       y="48.004364"
       x="153.78375"
       style="font-style:normal;font-weight:normal;font-size:15.73983383px;line-height:1.25;font-family:sans-serif;text-align:start;letter-spacing:0px;word-spacing:0px;text-anchor:start;fill:#212121;fill-opacity:1;stroke:none;stroke-width:0.99999994"
       xml:space="preserve"><tspan
         style="font-style:normal;font-variant:normal;font-weight:300;font-stretch:normal;font-family:'Fira Code';-inkscape-font-specification:'Fira Code Light';text-align:start;text-anchor:start;fill:#212121;stroke-width:0.99999994"
         y="48.004364"
         x="153.78375"
         id="tspan11886"
         sodipodi:role="line">0x860e</tspan></text>
</g><rect
     style="opacity:1;fill:#fafafa;fill-opacity:1;stroke:none;stroke-width:1.17557931;stroke-linecap:round;stroke-linejoin:bevel;stroke-miterlimit:4;stroke-dasharray:none;stroke-dashoffset:0;stroke-opacity:1"
     id="rect11892"
     width="125.19121"
     height="19.777657"
     x="25.012358"
     y="146.00127" /><g
     style="stroke-width:6.95650482"
     transform="matrix(0.08449499,0,0,0.08449499,124.86896,152.77172)"
     id="g11898"><path
       style="fill:#afb42b;fill-opacity:1;stroke:none;stroke-width:185.76042175px;stroke-linecap:butt;stroke-linejoin:miter;stroke-opacity:1"
       d="m 191.41508,36.905578 26.70308,-53.40567 26.70308,53.40567 z"
       id="path11894"
       inkscape:connector-curvature="0" /><path
       style="fill:#dce775;fill-opacity:1;stroke:none;stroke-width:185.76042175px;stroke-linecap:butt;stroke-linejoin:miter;stroke-opacity:1"
       d="m 191.41508,36.905578 26.70308,53.40646 26.70308,-53.40646 z"
       id="path11896"
       inkscape:connector-curvature="0" /></g><text
     id="text11902"
     y="159.0773"
     x="140.37378"
     style="font-style:normal;font-weight:normal;font-size:9.25171375px;line-height:1.25;font-family:sans-serif;letter-spacing:0px;word-spacing:0px;fill:#212121;fill-opacity:1;stroke:none;stroke-width:0.58778977"
     xml:space="preserve"><tspan
       style="font-style:normal;font-variant:normal;font-weight:300;font-stretch:normal;font-family:'Fira Code';-inkscape-font-specification:'Fira Code Light';text-align:end;text-anchor:end;fill:#212121;stroke-width:0.58778977"
       y="159.0773"
       x="140.37378"
       id="tspan11900"
       sodipodi:role="line">2</tspan></text>
<g
     style="stroke-width:4.07765341"
     transform="matrix(0.14414903,0,0,0.14414903,64.612201,153.15318)"
     id="g11908"><path
       inkscape:connector-curvature="0"
       style="opacity:1;fill:#ffeb3b;fill-opacity:1;stroke:none;stroke-width:4.0840745;stroke-linecap:round;stroke-linejoin:bevel;stroke-miterlimit:4;stroke-dasharray:none;stroke-dashoffset:0;stroke-opacity:1"
       d="m -187.00967,-35.433732 c -18.3874,-0.0027 -33.29406,14.90391 -33.29133,33.2913135 1.5e-4,13.3824525 8.01465,25.4635525 20.34414,30.6668725 -23.09032,3.23923 -40.45098,15.98138 -41.68943,31.55138 h 106.47381 c -1.20057,-15.11618 -17.61054,-27.55157 -39.69682,-31.23063 12.75057,-4.99679 21.13956,-17.29293 21.14121,-30.9876225 0.003,-18.3836215 -14.89796,-33.2886255 -33.28158,-33.2913135 z"
       id="path11904"
       sodipodi:nodetypes="cccccccc" /><path
       style="color:#000000;font-style:normal;font-variant:normal;font-weight:normal;font-stretch:normal;font-size:medium;line-height:normal;font-family:sans-serif;font-variant-ligatures:normal;font-variant-position:normal;font-variant-caps:normal;font-variant-numeric:normal;font-variant-alternates:normal;font-feature-settings:normal;text-indent:0;text-align:start;text-decoration:none;text-decoration-line:none;text-decoration-style:solid;text-decoration-color:#000000;letter-spacing:normal;word-spacing:normal;text-transform:none;writing-mode:lr-tb;direction:ltr;text-orientation:mixed;dominant-baseline:auto;baseline-shift:baseline;text-anchor:start;white-space:normal;shape-padding:0;clip-rule:nonzero;display:inline;overflow:visible;visibility:visible;opacity:1;isolation:auto;mix-blend-mode:normal;color-interpolation:sRGB;color-interpolation-filters:linearRGB;solid-color:#000000;solid-opacity:1;vector-effect:none;fill:#757575;fill-opacity:1;fill-rule:nonzero;stroke:none;stroke-width:30.65100479;stroke-linecap:round;stroke-linejoin:round;stroke-miterlimit:4;stroke-dasharray:none;stroke-dashoffset:0;stroke-opacity:1;color-rendering:auto;image-rendering:auto;shape-rendering:auto;text-rendering:auto;enable-background:accumulate"
       d="m -187.83778,26.015904 c -11.9856,0 -21.8112,9.8256 -21.8112,21.81101 0,11.98567 9.8256,21.818 21.8112,21.818 10.70601,0 19.68824,-7.84649 21.48518,-18.06376 h 20.14076 v 17.94017 a 3.7587884,3.7587884 0 1 0 7.51329,0 v -4.43807 a 3.7594495,3.7594495 0 0 0 3.52607,-3.74744 v -1.25998 a 3.3902363,3.3902363 0 0 0 3.38362,0.0714 v 1.77486 a 3.3902363,3.3902363 0 0 0 4.00445,3.37172 v 1.08227 a 3.7601045,3.7601045 0 1 0 7.5202,0 v -18.55102 a 3.7587884,3.7587884 0 0 0 -3.75923,-3.75401 h -8.92131 a 3.3902363,3.3902363 0 0 0 -0.5297,-0.0302 3.3902363,3.3902363 0 0 0 -0.43907,0.0302 h -32.44059 c -1.79981,-10.2127 -10.77989,-18.05174 -21.48348,-18.05174 z m 0,10.54031 c 6.28914,0 11.27252,4.98156 11.27252,11.2707 0,6.28944 -4.98338,11.27943 -11.27252,11.27943 -6.28924,0 -11.27263,-4.98999 -11.27263,-11.27943 0,-6.28914 4.98339,-11.2707 11.27263,-11.2707 z"
       id="path11906"
       inkscape:connector-curvature="0" /></g><text
     xml:space="preserve"
     style="font-style:normal;font-weight:normal;font-size:9.25171375px;line-height:1.25;font-family:sans-serif;text-align:start;letter-spacing:0px;word-spacing:0px;text-anchor:start;fill:#212121;fill-opacity:1;stroke:none;stroke-width:0.58778977"
     x="54.55648"
     y="159.0773"
     id="text11912"><tspan
       sodipodi:role="line"
       id="tspan11910"
       x="54.55648"
       y="159.0773"
       style="font-style:normal;font-variant:normal;font-weight:300;font-stretch:normal;font-family:'Fira Code';-inkscape-font-specification:'Fira Code Light';text-align:start;text-anchor:start;fill:#212121;stroke-width:0.58778977">0xa441</tspan></text>
<g
     id="g11938"
     transform="matrix(0.58778978,0,0,0.58778978,-35.836034,154.37242)"><rect
       y="25.75824"
       x="103.52067"
       height="33.647499"
       width="212.98636"
       id="rect11916"
       style="opacity:1;fill:#fafafa;fill-opacity:1;stroke:none;stroke-width:1.99999964;stroke-linecap:round;stroke-linejoin:bevel;stroke-miterlimit:4;stroke-dasharray:none;stroke-dashoffset:0;stroke-opacity:1" /><g
       id="g11922"
       transform="matrix(0.14375035,0,0,0.14375035,273.40556,37.276742)"
       style="stroke-width:6.95650482"><path
         inkscape:connector-curvature="0"
         id="path11918"
         d="m 191.41508,36.905578 26.70308,-53.40567 26.70308,53.40567 z"
         style="fill:#afb42b;fill-opacity:1;stroke:none;stroke-width:185.76042175px;stroke-linecap:butt;stroke-linejoin:miter;stroke-opacity:1" /><path
         inkscape:connector-curvature="0"
         id="path11920"
         d="m 191.41508,36.905578 26.70308,53.40646 26.70308,-53.40646 z"
         style="fill:#dce775;fill-opacity:1;stroke:none;stroke-width:185.76042175px;stroke-linecap:butt;stroke-linejoin:miter;stroke-opacity:1" /></g><text
       xml:space="preserve"
       style="font-style:normal;font-weight:normal;font-size:15.73983383px;line-height:1.25;font-family:sans-serif;letter-spacing:0px;word-spacing:0px;fill:#212121;fill-opacity:1;stroke:none;stroke-width:0.99999994"
       x="299.78375"
       y="48.004364"
       id="text11926"><tspan
         sodipodi:role="line"
         id="tspan11924"
         x="299.78375"
         y="48.004364"
         style="font-style:normal;font-variant:normal;font-weight:300;font-stretch:normal;font-family:'Fira Code';-inkscape-font-specification:'Fira Code Light';text-align:end;text-anchor:end;fill:#212121;stroke-width:0.99999994">4</tspan></text>
<g
       id="g11932"
       transform="matrix(0.24523909,0,0,0.24523909,170.89143,37.925721)"
       style="stroke-width:4.07765341"><path
         sodipodi:nodetypes="cccccccc"
         id="path11928"
         d="m -187.00967,-35.433732 c -18.3874,-0.0027 -33.29406,14.90391 -33.29133,33.2913135 1.5e-4,13.3824525 8.01465,25.4635525 20.34414,30.6668725 -23.09032,3.23923 -40.45098,15.98138 -41.68943,31.55138 h 106.47381 c -1.20057,-15.11618 -17.61054,-27.55157 -39.69682,-31.23063 12.75057,-4.99679 21.13956,-17.29293 21.14121,-30.9876225 0.003,-18.3836215 -14.89796,-33.2886255 -33.28158,-33.2913135 z"
         style="opacity:1;fill:#3949ab;fill-opacity:1;stroke:none;stroke-width:4.0840745;stroke-linecap:round;stroke-linejoin:bevel;stroke-miterlimit:4;stroke-dasharray:none;stroke-dashoffset:0;stroke-opacity:1"
         inkscape:connector-curvature="0" /><path
         inkscape:connector-curvature="0"
         id="path11930"
         d="m -187.83778,26.015904 c -11.9856,0 -21.8112,9.8256 -21.8112,21.81101 0,11.98567 9.8256,21.818 21.8112,21.818 10.70601,0 19.68824,-7.84649 21.48518,-18.06376 h 20.14076 v 17.94017 a 3.7587884,3.7587884 0 1 0 7.51329,0 v -4.43807 a 3.7594495,3.7594495 0 0 0 3.52607,-3.74744 v -1.25998 a 3.3902363,3.3902363 0 0 0 3.38362,0.0714 v 1.77486 a 3.3902363,3.3902363 0 0 0 4.00445,3.37172 v 1.08227 a 3.7601045,3.7601045 0 1 0 7.5202,0 v -18.55102 a 3.7587884,3.7587884 0 0 0 -3.75923,-3.75401 h -8.92131 a 3.3902363,3.3902363 0 0 0 -0.5297,-0.0302 3.3902363,3.3902363 0 0 0 -0.43907,0.0302 h -32.44059 c -1.79981,-10.2127 -10.77989,-18.05174 -21.48348,-18.05174 z m 0,10.54031 c 6.28914,0 11.27252,4.98156 11.27252,11.2707 0,6.28944 -4.98338,11.27943 -11.27252,11.27943 -6.28924,0 -11.27263,-4.98999 -11.27263,-11.27943 0,-6.28914 4.98339,-11.2707 11.27263,-11.2707 z"
         style="color:#000000;font-style:normal;font-variant:normal;font-weight:normal;font-stretch:normal;font-size:medium;line-height:normal;font-family:sans-serif;font-variant-ligatures:normal;font-variant-position:normal;font-variant-caps:normal;font-variant-numeric:normal;font-variant-alternates:normal;font-feature-settings:normal;text-indent:0;text-align:start;text-decoration:none;text-decoration-line:none;text-decoration-style:solid;text-decoration-color:#000000;letter-spacing:normal;word-spacing:normal;text-transform:none;writing-mode:lr-tb;direction:ltr;text-orientation:mixed;dominant-baseline:auto;baseline-shift:baseline;text-anchor:start;white-space:normal;shape-padding:0;clip-rule:nonzero;display:inline;overflow:visible;visibility:visible;opacity:1;isolation:auto;mix-blend-mode:normal;color-interpolation:sRGB;color-interpolation-filters:linearRGB;solid-color:#000000;solid-opacity:1;vector-effect:none;fill:#757575;fill-opacity:1;fill-rule:nonzero;stroke:none;stroke-width:30.65100479;stroke-linecap:round;stroke-linejoin:round;stroke-miterlimit:4;stroke-dasharray:none;stroke-dashoffset:0;stroke-opacity:1;color-rendering:auto;image-rendering:auto;shape-rendering:auto;text-rendering:auto;enable-background:accumulate" /></g><text
       id="text11936"
       y="48.004364"
       x="153.78375"
       style="font-style:normal;font-weight:normal;font-size:15.73983383px;line-height:1.25;font-family:sans-serif;text-align:start;letter-spacing:0px;word-spacing:0px;text-anchor:start;fill:#212121;fill-opacity:1;stroke:none;stroke-width:0.99999994"
       xml:space="preserve"><tspan
         style="font-style:normal;font-variant:normal;font-weight:300;font-stretch:normal;font-family:'Fira Code';-inkscape-font-specification:'Fira Code Light';text-align:start;text-anchor:start;fill:#212121;stroke-width:0.99999994"
         y="48.004364"
         x="153.78375"
         id="tspan11934"
         sodipodi:role="line">0xd81d</tspan></text>
</g></g></g></svg>