<?xml version="1.0" encoding="UTF-8" standalone="no"?>
<!-- Created with Inkscape (http://www.inkscape.org/) -->

<svg
   xmlns:dc="http://purl.org/dc/elements/1.1/"
   xmlns:cc="http://creativecommons.org/ns#"
   xmlns:rdf="http://www.w3.org/1999/02/22-rdf-syntax-ns#"
   xmlns:svg="http://www.w3.org/2000/svg"
   xmlns="http://www.w3.org/2000/svg"
   xmlns:xlink="http://www.w3.org/1999/xlink"
   xmlns:sodipodi="http://sodipodi.sourceforge.net/DTD/sodipodi-0.dtd"
   xmlns:inkscape="http://www.inkscape.org/namespaces/inkscape"
   version="1.1"
   id="svg29"
   xml:space="preserve"
   width="100.00012mm"
   height="70mm"
   viewBox="0 0 377.95323 264.56694"
   sodipodi:docname="05.svg"
   inkscape:version="0.92.2 2405546, 2018-03-11"><metadata
     id="metadata35"><rdf:RDF><cc:Work
         rdf:about=""><dc:format>image/svg+xml</dc:format><dc:type
           rdf:resource="http://purl.org/dc/dcmitype/StillImage" /><dc:title /></cc:Work></rdf:RDF></metadata><defs
     id="defs33"><marker
   inkscape:isstock="true"
   style="overflow:visible"
   id="marker15723"
   refX="0.0"
   refY="0.0"
   orient="auto"
   inkscape:stockid="TriangleOutS"><path
     transform="scale(0.2)"
     style="fill-rule:evenodd;stroke:#e0e0e0;stroke-width:1pt;stroke-opacity:1;fill:#eeeeee;fill-opacity:1"
     d="M 5.77,0.0 L -2.88,5.0 L -2.88,-5.0 L 5.77,0.0 z "
     id="path15721" /></marker><marker
   inkscape:stockid="TriangleOutS"
   orient="auto"
   refY="0.0"
   refX="0.0"
   id="TriangleOutS"
   style="overflow:visible"
   inkscape:isstock="true"
   inkscape:collect="always"><path
     id="path12556"
     d="M 5.77,0.0 L -2.88,5.0 L -2.88,-5.0 L 5.77,0.0 z "
     style="fill-rule:evenodd;stroke:#e0e0e0;stroke-width:1pt;stroke-opacity:1;fill:#eeeeee;fill-opacity:1"
     transform="scale(0.2)" /></marker><marker
   inkscape:stockid="TriangleOutM"
   orient="auto"
   refY="0.0"
   refX="0.0"
   id="TriangleOutM"
   style="overflow:visible"
   inkscape:isstock="true"><path
     id="path12553"
     d="M 5.77,0.0 L -2.88,5.0 L -2.88,-5.0 L 5.77,0.0 z "
     style="fill-rule:evenodd;stroke:#ffffff;stroke-width:1pt;stroke-opacity:1;fill:#ffffff;fill-opacity:1"
     transform="scale(0.4)" /></marker><linearGradient
   inkscape:collect="always"
   id="linearGradient876"><stop
     style="stop-color:#ffffff;stop-opacity:1"
     offset="0"
     id="stop872" /><stop
     style="stop-color:#ffffff;stop-opacity:0"
     offset="1"
     id="stop874" /></linearGradient><linearGradient
   inkscape:collect="always"
   xlink:href="#linearGradient876"
   id="linearGradient878"
   x1="100.8952"
   y1="53.721825"
   x2="100.8952"
   y2="35.612434"
   gradientUnits="userSpaceOnUse" /><marker
   inkscape:stockid="TriangleOutS"
   orient="auto"
   refY="0"
   refX="0"
   id="TriangleOutS-9"
   style="overflow:visible"
   inkscape:isstock="true"><path
     inkscape:connector-curvature="0"
     id="path12556-1"
     d="M 5.77,0 -2.88,5 V -5 Z"
     style="fill:#eeeeee;fill-opacity:1;fill-rule:evenodd;stroke:#e0e0e0;stroke-width:1.00000003pt;stroke-opacity:1"
     transform="scale(0.2)" /></marker>



</defs><sodipodi:namedview
     pagecolor="#000000"
     bordercolor="#666666"
     borderopacity="1"
     objecttolerance="10"
     gridtolerance="10"
     guidetolerance="10"
     inkscape:pageopacity="1"
     inkscape:pageshadow="2"
     inkscape:window-width="1366"
     inkscape:window-height="730"
     id="namedview31"
     showgrid="false"
     units="mm"
     inkscape:snap-page="true"
     borderlayer="true"
     inkscape:zoom="3.0923176"
     inkscape:cx="207.0956"
     inkscape:cy="164.9098"
     inkscape:window-x="0"
     inkscape:window-y="38"
     inkscape:window-maximized="0"
     inkscape:current-layer="g15908"
     inkscape:measure-start="0,0"
     inkscape:measure-end="0,0"
     inkscape:snap-bbox="true"
     inkscape:bbox-nodes="true"
     inkscape:object-nodes="true"
     inkscape:bbox-paths="true"
     inkscape:snap-object-midpoints="true"
     inkscape:object-paths="true"
     inkscape:snap-global="true"><inkscape:grid
       type="xygrid"
       id="grid12184" /></sodipodi:namedview><g
     id="g37"
     inkscape:groupmode="layer"
     inkscape:label="Background"
     transform="matrix(1.3333333,0,0,-1.3333333,0,264.56696)"
     sodipodi:insensitive="true"><rect
       style="opacity:1;fill:#000000;fill-opacity:1;stroke:none;stroke-width:0.75118107;stroke-linecap:round;stroke-linejoin:bevel;stroke-miterlimit:4;stroke-dasharray:none;stroke-dashoffset:0;stroke-opacity:1"
       id="rect43"
       width="283.4649"
       height="198.4252"
       x="0"
       y="-198.42522"
       transform="scale(1,-1)" /></g><g
     inkscape:groupmode="layer"
     id="layer1"
     inkscape:label="Foreground">





<g
   id="g15870"
   transform="translate(0,-70.170977)"><path
     style="fill:#eeeeee;stroke:#e0e0e0;stroke-width:7.35250902;stroke-linecap:round;stroke-linejoin:bevel;stroke-miterlimit:4;stroke-dasharray:none;stroke-opacity:1;marker-end:url(#marker15723)"
     d="m 234.22013,168.84038 h 98.27813"
     id="path15697"
     inkscape:connector-curvature="0" /><g
     id="g15719"
     transform="matrix(0.71621354,0,0,0.71621354,140.32812,237.19525)"
     style="stroke-width:2.1729722"><rect
   rx="17.332434"
   ry="14.599571"
   y="-129.61447"
   x="160.5596"
   height="63.382881"
   width="102.55566"
   id="rect15699"
   style="opacity:1;fill:#212121;fill-opacity:1;stroke:none;stroke-width:4.3459444;stroke-linecap:round;stroke-linejoin:bevel;stroke-miterlimit:4;stroke-dasharray:none;stroke-dashoffset:0;stroke-opacity:1" /><g
   style="stroke-width:2.72898245"
   transform="matrix(0.79625728,0,0,0.79625728,-3.7065337,-126.98629)"
   id="g15705"><path
     sodipodi:nodetypes="cccc"
     style="fill:#afb42b;fill-opacity:1;stroke:none;stroke-width:72.87236023px;stroke-linecap:butt;stroke-linejoin:miter;stroke-opacity:1"
     d="m 191.41508,36.905578 26.70308,-53.40567 26.70308,53.40567 c -19.12856,10.169855 -36.56231,7.346189 -53.40616,0 z"
     id="path15701"
     inkscape:connector-curvature="0" /><path
     style="fill:#dce775;fill-opacity:1;stroke:none;stroke-width:72.87236023px;stroke-linecap:butt;stroke-linejoin:miter;stroke-opacity:1"
     d="m 191.41508,36.905578 26.70308,53.40646 26.70308,-53.40646 z"
     id="path15703"
     inkscape:connector-curvature="0" /></g><path
   inkscape:connector-curvature="0"
   style="opacity:1;fill:#00acc1;fill-opacity:1;stroke:none;stroke-width:2.17639399;stroke-linecap:round;stroke-linejoin:bevel;stroke-miterlimit:4;stroke-dasharray:none;stroke-dashoffset:0;stroke-opacity:1"
   d="m 240.50365,-109.31098 c -4.50931,-6.6e-4 -8.16501,3.65502 -8.16434,8.16433 4e-5,3.2819 1.96551,6.24466 4.98918,7.52071 -5.66265,0.79439 -9.92016,3.91926 -10.22388,7.73764 h 26.11154 c -0.29443,-3.70708 -4.31879,-6.75673 -9.73521,-7.65897 3.12694,-1.22541 5.18425,-4.24091 5.18465,-7.59938 7.4e-4,-4.50838 -3.65356,-8.16367 -8.16194,-8.16433 z"
   id="path15707"
   sodipodi:nodetypes="cccccccc" /><path
   sodipodi:nodetypes="cccccccc"
   inkscape:connector-curvature="0"
   id="path15709"
   d="m 230.62307,-102.26127 v 4.04471 h -20.4154 v 8.41142 h 20.4154 v 4.3667 l 8.41143,-8.41141 z"
   style="fill:#ffffff;stroke:none;stroke-width:2.17297196px;stroke-linecap:butt;stroke-linejoin:miter;stroke-opacity:1" /><path
   sodipodi:nodetypes="cccccccc"
   id="path15711"
   d="m 210.50365,-109.31098 c -4.50931,-6.6e-4 -8.16501,3.65502 -8.16434,8.16433 4e-5,3.2819 1.96551,6.24466 4.98918,7.52071 -5.66265,0.79439 -9.92016,3.91926 -10.22388,7.73764 h 26.11154 c -0.29443,-3.70708 -4.31879,-6.75673 -9.73521,-7.65897 3.12694,-1.22541 5.18425,-4.24091 5.18465,-7.59938 7.4e-4,-4.50838 -3.65356,-8.16367 -8.16194,-8.16433 z"
   style="opacity:1;fill:#c62828;fill-opacity:1;stroke:none;stroke-width:2.17639399;stroke-linecap:round;stroke-linejoin:bevel;stroke-miterlimit:4;stroke-dasharray:none;stroke-dashoffset:0;stroke-opacity:1"
   inkscape:connector-curvature="0" /><text
   id="text15715"
   y="-81.659042"
   x="156.17055"
   style="font-style:normal;font-weight:normal;font-size:47.02243805px;line-height:1.25;font-family:sans-serif;letter-spacing:0px;word-spacing:0px;fill:#000000;fill-opacity:1;stroke:none;stroke-width:2.17297196;"
   xml:space="preserve"><tspan
     style="font-style:normal;font-variant:normal;font-weight:normal;font-stretch:normal;font-family:'Fira Code';-inkscape-font-specification:'Fira Code';fill:#000000;stroke-width:2.17297196;"
     y="-81.659042"
     x="156.17055"
     id="tspan15713"
     sodipodi:role="line">6</tspan></text>


<path
   inkscape:connector-curvature="0"
   id="path15717"
   d="m 212.20767,-94.39004 c -2.93934,0 -5.34896,2.40962 -5.34896,5.34891 0,2.93936 2.40962,5.35063 5.34896,5.35063 2.62553,0 4.82833,-1.92427 5.26901,-4.42994 h 4.9393 v 4.39963 a 0.92180185,0.92180185 0 1 0 1.84255,0 v -1.08839 a 0.92196397,0.92196397 0 0 0 0.86473,-0.91902 v -0.30899 a 0.83141847,0.83141847 0 0 0 0.8298,0.0175 v 0.43526 a 0.83141847,0.83141847 0 0 0 0.98204,0.82688 v 0.26541 a 0.922125,0.922125 0 1 0 1.84425,0 v -4.54943 a 0.92180185,0.92180185 0 0 0 -0.92191,-0.92063 h -2.18785 a 0.83141847,0.83141847 0 0 0 -0.12991,-0.007 0.83141847,0.83141847 0 0 0 -0.10767,0.007 h -7.9557 c -0.44139,-2.50456 -2.64366,-4.42699 -5.26859,-4.42699 z m 0,2.5849 c 1.54234,0 2.76446,1.22167 2.76446,2.76401 0,1.54242 -1.22212,2.76616 -2.76446,2.76616 -1.54237,0 -2.76449,-1.22374 -2.76449,-2.76616 0,-1.54234 1.22212,-2.76401 2.76449,-2.76401 z"
   style="color:#000000;font-style:normal;font-variant:normal;font-weight:normal;font-stretch:normal;font-size:medium;line-height:normal;font-family:sans-serif;font-variant-ligatures:normal;font-variant-position:normal;font-variant-caps:normal;font-variant-numeric:normal;font-variant-alternates:normal;font-feature-settings:normal;text-indent:0;text-align:start;text-decoration:none;text-decoration-line:none;text-decoration-style:solid;text-decoration-color:#000000;letter-spacing:normal;word-spacing:normal;text-transform:none;writing-mode:lr-tb;direction:ltr;text-orientation:mixed;dominant-baseline:auto;baseline-shift:baseline;text-anchor:start;white-space:normal;shape-padding:0;clip-rule:nonzero;display:inline;overflow:visible;visibility:visible;opacity:1;isolation:auto;mix-blend-mode:normal;color-interpolation:sRGB;color-interpolation-filters:linearRGB;solid-color:#000000;solid-opacity:1;vector-effect:none;fill:#9e9e9e;fill-opacity:1;fill-rule:nonzero;stroke:none;stroke-width:16.33385086;stroke-linecap:round;stroke-linejoin:round;stroke-miterlimit:4;stroke-dasharray:none;stroke-dashoffset:0;stroke-opacity:1;color-rendering:auto;image-rendering:auto;shape-rendering:auto;text-rendering:auto;enable-background:accumulate" /></g></g><g
   id="g15910"
   transform="translate(0,70.170978)"><path
     style="fill:#eeeeee;stroke:#e0e0e0;stroke-width:7.35250902;stroke-linecap:round;stroke-linejoin:bevel;stroke-miterlimit:4;stroke-dasharray:none;stroke-opacity:1;marker-end:url(#TriangleOutS)"
     d="m 234.22013,98.669401 h 98.27813"
     id="path15886"
     inkscape:connector-curvature="0" /><g
     id="g15908"
     transform="matrix(0.71621354,0,0,0.71621354,140.32812,115.15877)"
     style="stroke-width:2.1729722"><rect
   rx="17.332434"
   ry="14.599571"
   y="-57.198208"
   x="160.5596"
   height="63.382881"
   width="102.55566"
   id="rect15888"
   style="opacity:1;fill:#212121;fill-opacity:1;stroke:none;stroke-width:4.3459444;stroke-linecap:round;stroke-linejoin:bevel;stroke-miterlimit:4;stroke-dasharray:none;stroke-dashoffset:0;stroke-opacity:1" /><g
   style="stroke-width:2.72898245"
   transform="matrix(0.79625728,0,0,0.79625728,-3.7065337,-54.570034)"
   id="g15894"><path
     sodipodi:nodetypes="cccc"
     style="fill:#afb42b;fill-opacity:1;stroke:none;stroke-width:72.87236023px;stroke-linecap:butt;stroke-linejoin:miter;stroke-opacity:1"
     d="m 191.41508,36.905578 26.70308,-53.40567 26.70308,53.40567 c -19.12856,10.169855 -36.56231,7.346189 -53.40616,0 z"
     id="path15890"
     inkscape:connector-curvature="0" /><path
     style="fill:#dce775;fill-opacity:1;stroke:none;stroke-width:72.87236023px;stroke-linecap:butt;stroke-linejoin:miter;stroke-opacity:1"
     d="m 191.41508,36.905578 26.70308,53.40646 26.70308,-53.40646 z"
     id="path15892"
     inkscape:connector-curvature="0" /></g><path
   inkscape:connector-curvature="0"
   style="opacity:1;fill:#ffeb3b;fill-opacity:1;stroke:none;stroke-width:2.17639399;stroke-linecap:round;stroke-linejoin:bevel;stroke-miterlimit:4;stroke-dasharray:none;stroke-dashoffset:0;stroke-opacity:1"
   d="m 240.50365,-36.894723 c -4.50931,-6.62e-4 -8.16501,3.655021 -8.16434,8.164332 4e-5,3.2819 1.96551,6.244658 4.98918,7.520715 -5.66265,0.794386 -9.92016,3.91926 -10.22388,7.737632 h 26.11154 c -0.29443,-3.707078 -4.31879,-6.756722 -9.73521,-7.658971 3.12694,-1.225408 5.18425,-4.240903 5.18465,-7.599376 7.4e-4,-4.508383 -3.65356,-8.163673 -8.16194,-8.164332 z"
   id="path15896"
   sodipodi:nodetypes="cccccccc" /><path
   sodipodi:nodetypes="cccccccc"
   inkscape:connector-curvature="0"
   id="path15898"
   d="m 230.62307,-29.84501 v 4.044709 h -20.4154 v 8.411416 h 20.4154 v 4.366709 l 8.41143,-8.411417 z"
   style="fill:#ffffff;stroke:none;stroke-width:2.17297196px;stroke-linecap:butt;stroke-linejoin:miter;stroke-opacity:1" /><path
   sodipodi:nodetypes="cccccccc"
   id="path15900"
   d="m 210.50365,-36.894723 c -4.50931,-6.62e-4 -8.16501,3.655021 -8.16434,8.164332 4e-5,3.2819 1.96551,6.244658 4.98918,7.520715 -5.66265,0.794386 -9.92016,3.91926 -10.22388,7.737632 h 26.11154 c -0.29443,-3.707078 -4.31879,-6.756722 -9.73521,-7.658971 3.12694,-1.225408 5.18425,-4.240903 5.18465,-7.599376 7.4e-4,-4.508383 -3.65356,-8.163673 -8.16194,-8.164332 z"
   style="opacity:1;fill:#c62828;fill-opacity:1;stroke:none;stroke-width:2.17639399;stroke-linecap:round;stroke-linejoin:bevel;stroke-miterlimit:4;stroke-dasharray:none;stroke-dashoffset:0;stroke-opacity:1"
   inkscape:connector-curvature="0" /><text
   id="text15904"
   y="-9.2427778"
   x="156.17055"
   style="font-style:normal;font-weight:normal;font-size:47.02243805px;line-height:1.25;font-family:sans-serif;letter-spacing:0px;word-spacing:0px;fill:#000000;fill-opacity:1;stroke:none;stroke-width:2.17297196;"
   xml:space="preserve"><tspan
     style="font-style:normal;font-variant:normal;font-weight:normal;font-stretch:normal;font-family:'Fira Code';-inkscape-font-specification:'Fira Code';fill:#000000;stroke-width:2.17297196;"
     y="-9.2427778"
     x="156.17055"
     id="tspan15902"
     sodipodi:role="line">5</tspan></text>


<path
   inkscape:connector-curvature="0"
   id="path15906"
   d="m 212.20767,-21.973781 c -2.93934,0 -5.34896,2.409621 -5.34896,5.348912 0,2.939355 2.40962,5.350627 5.34896,5.350627 2.62553,0 4.82833,-1.924266 5.26901,-4.42994 h 4.9393 v 4.399631 a 0.92180185,0.92180185 0 1 0 1.84255,0 v -1.088388 a 0.92196397,0.92196397 0 0 0 0.86473,-0.919019 v -0.308997 a 0.83141847,0.83141847 0 0 0 0.8298,0.01751 v 0.435265 a 0.83141847,0.83141847 0 0 0 0.98204,0.826878 v 0.265415 a 0.922125,0.922125 0 1 0 1.84425,0 v -4.549435 a 0.92180185,0.92180185 0 0 0 -0.92191,-0.92063 h -2.18785 a 0.83141847,0.83141847 0 0 0 -0.12991,-0.0074 0.83141847,0.83141847 0 0 0 -0.10767,0.0074 h -7.9557 c -0.44139,-2.504554 -2.64366,-4.426993 -5.26859,-4.426993 z m 0,2.584896 c 1.54234,0 2.76446,1.221673 2.76446,2.764016 0,1.542417 -1.22212,2.766158 -2.76446,2.766158 -1.54237,0 -2.76449,-1.223741 -2.76449,-2.766158 0,-1.542343 1.22212,-2.764016 2.76449,-2.764016 z"
   style="color:#000000;font-style:normal;font-variant:normal;font-weight:normal;font-stretch:normal;font-size:medium;line-height:normal;font-family:sans-serif;font-variant-ligatures:normal;font-variant-position:normal;font-variant-caps:normal;font-variant-numeric:normal;font-variant-alternates:normal;font-feature-settings:normal;text-indent:0;text-align:start;text-decoration:none;text-decoration-line:none;text-decoration-style:solid;text-decoration-color:#000000;letter-spacing:normal;word-spacing:normal;text-transform:none;writing-mode:lr-tb;direction:ltr;text-orientation:mixed;dominant-baseline:auto;baseline-shift:baseline;text-anchor:start;white-space:normal;shape-padding:0;clip-rule:nonzero;display:inline;overflow:visible;visibility:visible;opacity:1;isolation:auto;mix-blend-mode:normal;color-interpolation:sRGB;color-interpolation-filters:linearRGB;solid-color:#000000;solid-opacity:1;vector-effect:none;fill:#9e9e9e;fill-opacity:1;fill-rule:nonzero;stroke:none;stroke-width:16.33385086;stroke-linecap:round;stroke-linejoin:round;stroke-miterlimit:4;stroke-dasharray:none;stroke-dashoffset:0;stroke-opacity:1;color-rendering:auto;image-rendering:auto;shape-rendering:auto;text-rendering:auto;enable-background:accumulate" /></g></g><g
   id="g12282"
   transform="matrix(1.525456,0,0,1.525456,2.6551944,-69.509137)"><g
     id="g11914"
     transform="translate(-21.49456,129.86315)" /></g><rect
   y="39.431137"
   x="35.011238"
   height="185.70465"
   width="203.3922"
   id="rect11668"
   style="opacity:1;fill:#e0e0e0;fill-opacity:1;stroke:none;stroke-width:1.79329491;stroke-linecap:round;stroke-linejoin:bevel;stroke-miterlimit:4;stroke-dasharray:none;stroke-dashoffset:0;stroke-opacity:1" /><rect
   y="45.61166"
   x="40.81044"
   height="30.169945"
   width="190.97368"
   id="rect11709"
   style="opacity:1;fill:#fafafa;fill-opacity:1;stroke:none;stroke-width:1.79329455;stroke-linecap:round;stroke-linejoin:bevel;stroke-miterlimit:4;stroke-dasharray:none;stroke-dashoffset:0;stroke-opacity:1" /><g
   id="g11715"
   transform="matrix(0.12889339,0,0,0.12889339,193.13731,55.939705)"
   style="stroke-width:6.95650482"><path
     inkscape:connector-curvature="0"
     id="path11711"
     d="m 191.41508,36.905578 26.70308,-53.40567 26.70308,53.40567 z"
     style="fill:#afb42b;fill-opacity:1;stroke:none;stroke-width:185.76042175px;stroke-linecap:butt;stroke-linejoin:miter;stroke-opacity:1" /><path
     inkscape:connector-curvature="0"
     id="path11713"
     d="m 191.41508,36.905578 26.70308,53.40646 26.70308,-53.40646 z"
     style="fill:#dce775;fill-opacity:1;stroke:none;stroke-width:185.76042175px;stroke-linecap:butt;stroke-linejoin:miter;stroke-opacity:1" /></g><text
   xml:space="preserve"
   style="font-style:normal;font-weight:normal;font-size:14.11308289px;line-height:1.25;font-family:sans-serif;letter-spacing:0px;word-spacing:0px;fill:#212121;fill-opacity:1;stroke:none;stroke-width:0.89664745"
   x="216.78925"
   y="65.558601"
   id="text11719"><tspan
     sodipodi:role="line"
     id="tspan11717"
     x="216.78925"
     y="65.558601"
     style="font-style:normal;font-variant:normal;font-weight:300;font-stretch:normal;font-family:'Fira Code';-inkscape-font-specification:'Fira Code Light';text-align:end;text-anchor:end;fill:#212121;stroke-width:0.89664745">6</tspan></text>

<g
   id="g11725"
   transform="matrix(0.21989301,0,0,0.21989301,101.21827,56.521612)"
   style="stroke-width:4.07765341"><path
     sodipodi:nodetypes="cccccccc"
     id="path11721"
     d="m -187.00967,-35.433732 c -18.3874,-0.0027 -33.29406,14.90391 -33.29133,33.2913135 1.5e-4,13.3824525 8.01465,25.4635525 20.34414,30.6668725 -23.09032,3.23923 -40.45098,15.98138 -41.68943,31.55138 h 106.47381 c -1.20057,-15.11618 -17.61054,-27.55157 -39.69682,-31.23063 12.75057,-4.99679 21.13956,-17.29293 21.14121,-30.9876225 0.003,-18.3836215 -14.89796,-33.2886255 -33.28158,-33.2913135 z"
     style="opacity:1;fill:#c62828;fill-opacity:1;stroke:none;stroke-width:4.0840745;stroke-linecap:round;stroke-linejoin:bevel;stroke-miterlimit:4;stroke-dasharray:none;stroke-dashoffset:0;stroke-opacity:1"
     inkscape:connector-curvature="0" /><path
     inkscape:connector-curvature="0"
     id="path11723"
     d="m -187.83778,26.015904 c -11.9856,0 -21.8112,9.8256 -21.8112,21.81101 0,11.98567 9.8256,21.818 21.8112,21.818 10.70601,0 19.68824,-7.84649 21.48518,-18.06376 h 20.14076 v 17.94017 a 3.7587884,3.7587884 0 1 0 7.51329,0 v -4.43807 a 3.7594495,3.7594495 0 0 0 3.52607,-3.74744 v -1.25998 a 3.3902363,3.3902363 0 0 0 3.38362,0.0714 v 1.77486 a 3.3902363,3.3902363 0 0 0 4.00445,3.37172 v 1.08227 a 3.7601045,3.7601045 0 1 0 7.5202,0 v -18.55102 a 3.7587884,3.7587884 0 0 0 -3.75923,-3.75401 h -8.92131 a 3.3902363,3.3902363 0 0 0 -0.5297,-0.0302 3.3902363,3.3902363 0 0 0 -0.43907,0.0302 h -32.44059 c -1.79981,-10.2127 -10.77989,-18.05174 -21.48348,-18.05174 z m 0,10.54031 c 6.28914,0 11.27252,4.98156 11.27252,11.2707 0,6.28944 -4.98338,11.27943 -11.27252,11.27943 -6.28924,0 -11.27263,-4.98999 -11.27263,-11.27943 0,-6.28914 4.98339,-11.2707 11.27263,-11.2707 z"
     style="color:#000000;font-style:normal;font-variant:normal;font-weight:normal;font-stretch:normal;font-size:medium;line-height:normal;font-family:sans-serif;font-variant-ligatures:normal;font-variant-position:normal;font-variant-caps:normal;font-variant-numeric:normal;font-variant-alternates:normal;font-feature-settings:normal;text-indent:0;text-align:start;text-decoration:none;text-decoration-line:none;text-decoration-style:solid;text-decoration-color:#000000;letter-spacing:normal;word-spacing:normal;text-transform:none;writing-mode:lr-tb;direction:ltr;text-orientation:mixed;dominant-baseline:auto;baseline-shift:baseline;text-anchor:start;white-space:normal;shape-padding:0;clip-rule:nonzero;display:inline;overflow:visible;visibility:visible;opacity:1;isolation:auto;mix-blend-mode:normal;color-interpolation:sRGB;color-interpolation-filters:linearRGB;solid-color:#000000;solid-opacity:1;vector-effect:none;fill:#757575;fill-opacity:1;fill-rule:nonzero;stroke:none;stroke-width:30.65100479;stroke-linecap:round;stroke-linejoin:round;stroke-miterlimit:4;stroke-dasharray:none;stroke-dashoffset:0;stroke-opacity:1;color-rendering:auto;image-rendering:auto;shape-rendering:auto;text-rendering:auto;enable-background:accumulate" /></g><text
   id="text11729"
   y="65.558601"
   x="85.878723"
   style="font-style:normal;font-weight:normal;font-size:14.11308289px;line-height:1.25;font-family:sans-serif;text-align:start;letter-spacing:0px;word-spacing:0px;text-anchor:start;fill:#212121;fill-opacity:1;stroke:none;stroke-width:0.89664745"
   xml:space="preserve"><tspan
     style="font-style:normal;font-variant:normal;font-weight:300;font-stretch:normal;font-family:'Fira Code';-inkscape-font-specification:'Fira Code Light';text-align:start;text-anchor:start;fill:#212121;stroke-width:0.89664745"
     y="65.558601"
     x="85.878723"
     id="tspan11727"
     sodipodi:role="line">0x0c7d</tspan></text>

<g
   id="g11866"
   transform="matrix(0.89664747,0,0,0.89664747,-52.0111,58.381509)"><rect
   y="25.75824"
   x="103.52067"
   height="33.647499"
   width="212.98636"
   id="rect11844"
   style="opacity:1;fill:#fafafa;fill-opacity:1;stroke:none;stroke-width:1.99999964;stroke-linecap:round;stroke-linejoin:bevel;stroke-miterlimit:4;stroke-dasharray:none;stroke-dashoffset:0;stroke-opacity:1" /><g
   id="g11850"
   transform="matrix(0.14375035,0,0,0.14375035,273.40556,37.276742)"
   style="stroke-width:6.95650482"><path
     inkscape:connector-curvature="0"
     id="path11846"
     d="m 191.41508,36.905578 26.70308,-53.40567 26.70308,53.40567 z"
     style="fill:#afb42b;fill-opacity:1;stroke:none;stroke-width:185.76042175px;stroke-linecap:butt;stroke-linejoin:miter;stroke-opacity:1" /><path
     inkscape:connector-curvature="0"
     id="path11848"
     d="m 191.41508,36.905578 26.70308,53.40646 26.70308,-53.40646 z"
     style="fill:#dce775;fill-opacity:1;stroke:none;stroke-width:185.76042175px;stroke-linecap:butt;stroke-linejoin:miter;stroke-opacity:1" /></g><text
   xml:space="preserve"
   style="font-style:normal;font-weight:normal;font-size:15.73983383px;line-height:1.25;font-family:sans-serif;letter-spacing:0px;word-spacing:0px;fill:#212121;fill-opacity:1;stroke:none;stroke-width:0.99999994"
   x="299.78375"
   y="48.004364"
   id="text11854"><tspan
     sodipodi:role="line"
     id="tspan11852"
     x="299.78375"
     y="48.004364"
     style="font-style:normal;font-variant:normal;font-weight:300;font-stretch:normal;font-family:'Fira Code';-inkscape-font-specification:'Fira Code Light';text-align:end;text-anchor:end;fill:#212121;stroke-width:0.99999994">0</tspan></text>


<g
   id="g11860"
   transform="matrix(0.24523909,0,0,0.24523909,170.89143,37.925721)"
   style="stroke-width:4.07765341"><path
     sodipodi:nodetypes="cccccccc"
     id="path11856"
     d="m -187.00967,-35.433732 c -18.3874,-0.0027 -33.29406,14.90391 -33.29133,33.2913135 1.5e-4,13.3824525 8.01465,25.4635525 20.34414,30.6668725 -23.09032,3.23923 -40.45098,15.98138 -41.68943,31.55138 h 106.47381 c -1.20057,-15.11618 -17.61054,-27.55157 -39.69682,-31.23063 12.75057,-4.99679 21.13956,-17.29293 21.14121,-30.9876225 0.003,-18.3836215 -14.89796,-33.2886255 -33.28158,-33.2913135 z"
     style="opacity:1;fill:#00acc1;fill-opacity:1;stroke:none;stroke-width:4.0840745;stroke-linecap:round;stroke-linejoin:bevel;stroke-miterlimit:4;stroke-dasharray:none;stroke-dashoffset:0;stroke-opacity:1"
     inkscape:connector-curvature="0" /><path
     inkscape:connector-curvature="0"
     id="path11858"
     d="m -187.83778,26.015904 c -11.9856,0 -21.8112,9.8256 -21.8112,21.81101 0,11.98567 9.8256,21.818 21.8112,21.818 10.70601,0 19.68824,-7.84649 21.48518,-18.06376 h 20.14076 v 17.94017 a 3.7587884,3.7587884 0 1 0 7.51329,0 v -4.43807 a 3.7594495,3.7594495 0 0 0 3.52607,-3.74744 v -1.25998 a 3.3902363,3.3902363 0 0 0 3.38362,0.0714 v 1.77486 a 3.3902363,3.3902363 0 0 0 4.00445,3.37172 v 1.08227 a 3.7601045,3.7601045 0 1 0 7.5202,0 v -18.55102 a 3.7587884,3.7587884 0 0 0 -3.75923,-3.75401 h -8.92131 a 3.3902363,3.3902363 0 0 0 -0.5297,-0.0302 3.3902363,3.3902363 0 0 0 -0.43907,0.0302 h -32.44059 c -1.79981,-10.2127 -10.77989,-18.05174 -21.48348,-18.05174 z m 0,10.54031 c 6.28914,0 11.27252,4.98156 11.27252,11.2707 0,6.28944 -4.98338,11.27943 -11.27252,11.27943 -6.28924,0 -11.27263,-4.98999 -11.27263,-11.27943 0,-6.28914 4.98339,-11.2707 11.27263,-11.2707 z"
     style="color:#000000;font-style:normal;font-variant:normal;font-weight:normal;font-stretch:normal;font-size:medium;line-height:normal;font-family:sans-serif;font-variant-ligatures:normal;font-variant-position:normal;font-variant-caps:normal;font-variant-numeric:normal;font-variant-alternates:normal;font-feature-settings:normal;text-indent:0;text-align:start;text-decoration:none;text-decoration-line:none;text-decoration-style:solid;text-decoration-color:#000000;letter-spacing:normal;word-spacing:normal;text-transform:none;writing-mode:lr-tb;direction:ltr;text-orientation:mixed;dominant-baseline:auto;baseline-shift:baseline;text-anchor:start;white-space:normal;shape-padding:0;clip-rule:nonzero;display:inline;overflow:visible;visibility:visible;opacity:1;isolation:auto;mix-blend-mode:normal;color-interpolation:sRGB;color-interpolation-filters:linearRGB;solid-color:#000000;solid-opacity:1;vector-effect:none;fill:#757575;fill-opacity:1;fill-rule:nonzero;stroke:none;stroke-width:30.65100479;stroke-linecap:round;stroke-linejoin:round;stroke-miterlimit:4;stroke-dasharray:none;stroke-dashoffset:0;stroke-opacity:1;color-rendering:auto;image-rendering:auto;shape-rendering:auto;text-rendering:auto;enable-background:accumulate" /></g><text
   id="text11864"
   y="48.004364"
   x="153.78375"
   style="font-style:normal;font-weight:normal;font-size:15.73983383px;line-height:1.25;font-family:sans-serif;text-align:start;letter-spacing:0px;word-spacing:0px;text-anchor:start;fill:#212121;fill-opacity:1;stroke:none;stroke-width:0.99999994"
   xml:space="preserve"><tspan
     style="font-style:normal;font-variant:normal;font-weight:300;font-stretch:normal;font-family:'Fira Code';-inkscape-font-specification:'Fira Code Light';text-align:start;text-anchor:start;fill:#212121;stroke-width:0.99999994"
     y="48.004364"
     x="153.78375"
     id="tspan11862"
     sodipodi:role="line">0x3daf</tspan></text>


</g><g
   transform="matrix(0.89664747,0,0,0.89664747,-52.0111,94.247409)"
   id="g11890"><rect
   style="opacity:1;fill:#fafafa;fill-opacity:1;stroke:none;stroke-width:1.99999964;stroke-linecap:round;stroke-linejoin:bevel;stroke-miterlimit:4;stroke-dasharray:none;stroke-dashoffset:0;stroke-opacity:1"
   id="rect11868"
   width="212.98636"
   height="33.647499"
   x="103.52067"
   y="25.75824" /><g
   style="stroke-width:6.95650482"
   transform="matrix(0.14375035,0,0,0.14375035,273.40556,37.276742)"
   id="g11874"><path
     style="fill:#afb42b;fill-opacity:1;stroke:none;stroke-width:185.76042175px;stroke-linecap:butt;stroke-linejoin:miter;stroke-opacity:1"
     d="m 191.41508,36.905578 26.70308,-53.40567 26.70308,53.40567 z"
     id="path11870"
     inkscape:connector-curvature="0" /><path
     style="fill:#dce775;fill-opacity:1;stroke:none;stroke-width:185.76042175px;stroke-linecap:butt;stroke-linejoin:miter;stroke-opacity:1"
     d="m 191.41508,36.905578 26.70308,53.40646 26.70308,-53.40646 z"
     id="path11872"
     inkscape:connector-curvature="0" /></g><text
   id="text11878"
   y="48.004364"
   x="299.78375"
   style="font-style:normal;font-weight:normal;font-size:15.73983383px;line-height:1.25;font-family:sans-serif;letter-spacing:0px;word-spacing:0px;fill:#212121;fill-opacity:1;stroke:none;stroke-width:0.99999994"
   xml:space="preserve"><tspan
     style="font-style:normal;font-variant:normal;font-weight:300;font-stretch:normal;font-family:'Fira Code';-inkscape-font-specification:'Fira Code Light';text-align:end;text-anchor:end;fill:#212121;stroke-width:0.99999994"
     y="48.004364"
     x="299.78375"
     id="tspan11876"
     sodipodi:role="line">3</tspan></text>


<g
   style="stroke-width:4.07765341"
   transform="matrix(0.24523909,0,0,0.24523909,170.89143,37.925721)"
   id="g11884"><path
     inkscape:connector-curvature="0"
     style="opacity:1;fill:#aeea00;fill-opacity:1;stroke:none;stroke-width:4.0840745;stroke-linecap:round;stroke-linejoin:bevel;stroke-miterlimit:4;stroke-dasharray:none;stroke-dashoffset:0;stroke-opacity:1"
     d="m -187.00967,-35.433732 c -18.3874,-0.0027 -33.29406,14.90391 -33.29133,33.2913135 1.5e-4,13.3824525 8.01465,25.4635525 20.34414,30.6668725 -23.09032,3.23923 -40.45098,15.98138 -41.68943,31.55138 h 106.47381 c -1.20057,-15.11618 -17.61054,-27.55157 -39.69682,-31.23063 12.75057,-4.99679 21.13956,-17.29293 21.14121,-30.9876225 0.003,-18.3836215 -14.89796,-33.2886255 -33.28158,-33.2913135 z"
     id="path11880"
     sodipodi:nodetypes="cccccccc" /><path
     style="color:#000000;font-style:normal;font-variant:normal;font-weight:normal;font-stretch:normal;font-size:medium;line-height:normal;font-family:sans-serif;font-variant-ligatures:normal;font-variant-position:normal;font-variant-caps:normal;font-variant-numeric:normal;font-variant-alternates:normal;font-feature-settings:normal;text-indent:0;text-align:start;text-decoration:none;text-decoration-line:none;text-decoration-style:solid;text-decoration-color:#000000;letter-spacing:normal;word-spacing:normal;text-transform:none;writing-mode:lr-tb;direction:ltr;text-orientation:mixed;dominant-baseline:auto;baseline-shift:baseline;text-anchor:start;white-space:normal;shape-padding:0;clip-rule:nonzero;display:inline;overflow:visible;visibility:visible;opacity:1;isolation:auto;mix-blend-mode:normal;color-interpolation:sRGB;color-interpolation-filters:linearRGB;solid-color:#000000;solid-opacity:1;vector-effect:none;fill:#757575;fill-opacity:1;fill-rule:nonzero;stroke:none;stroke-width:30.65100479;stroke-linecap:round;stroke-linejoin:round;stroke-miterlimit:4;stroke-dasharray:none;stroke-dashoffset:0;stroke-opacity:1;color-rendering:auto;image-rendering:auto;shape-rendering:auto;text-rendering:auto;enable-background:accumulate"
     d="m -187.83778,26.015904 c -11.9856,0 -21.8112,9.8256 -21.8112,21.81101 0,11.98567 9.8256,21.818 21.8112,21.818 10.70601,0 19.68824,-7.84649 21.48518,-18.06376 h 20.14076 v 17.94017 a 3.7587884,3.7587884 0 1 0 7.51329,0 v -4.43807 a 3.7594495,3.7594495 0 0 0 3.52607,-3.74744 v -1.25998 a 3.3902363,3.3902363 0 0 0 3.38362,0.0714 v 1.77486 a 3.3902363,3.3902363 0 0 0 4.00445,3.37172 v 1.08227 a 3.7601045,3.7601045 0 1 0 7.5202,0 v -18.55102 a 3.7587884,3.7587884 0 0 0 -3.75923,-3.75401 h -8.92131 a 3.3902363,3.3902363 0 0 0 -0.5297,-0.0302 3.3902363,3.3902363 0 0 0 -0.43907,0.0302 h -32.44059 c -1.79981,-10.2127 -10.77989,-18.05174 -21.48348,-18.05174 z m 0,10.54031 c 6.28914,0 11.27252,4.98156 11.27252,11.2707 0,6.28944 -4.98338,11.27943 -11.27252,11.27943 -6.28924,0 -11.27263,-4.98999 -11.27263,-11.27943 0,-6.28914 4.98339,-11.2707 11.27263,-11.2707 z"
     id="path11882"
     inkscape:connector-curvature="0" /></g><text
   xml:space="preserve"
   style="font-style:normal;font-weight:normal;font-size:15.73983383px;line-height:1.25;font-family:sans-serif;text-align:start;letter-spacing:0px;word-spacing:0px;text-anchor:start;fill:#212121;fill-opacity:1;stroke:none;stroke-width:0.99999994"
   x="153.78375"
   y="48.004364"
   id="text11888"><tspan
     sodipodi:role="line"
     id="tspan11886"
     x="153.78375"
     y="48.004364"
     style="font-style:normal;font-variant:normal;font-weight:300;font-stretch:normal;font-family:'Fira Code';-inkscape-font-specification:'Fira Code Light';text-align:start;text-anchor:start;fill:#212121;stroke-width:0.99999994">0x860e</tspan></text>


</g><rect
   y="153.20937"
   x="40.81044"
   height="30.169945"
   width="190.97368"
   id="rect11892"
   style="opacity:1;fill:#fafafa;fill-opacity:1;stroke:none;stroke-width:1.79329455;stroke-linecap:round;stroke-linejoin:bevel;stroke-miterlimit:4;stroke-dasharray:none;stroke-dashoffset:0;stroke-opacity:1" /><g
   id="g11898"
   transform="matrix(0.12889339,0,0,0.12889339,193.13731,163.5374)"
   style="stroke-width:6.95650482"><path
     inkscape:connector-curvature="0"
     id="path11894"
     d="m 191.41508,36.905578 26.70308,-53.40567 26.70308,53.40567 z"
     style="fill:#afb42b;fill-opacity:1;stroke:none;stroke-width:185.76042175px;stroke-linecap:butt;stroke-linejoin:miter;stroke-opacity:1" /><path
     inkscape:connector-curvature="0"
     id="path11896"
     d="m 191.41508,36.905578 26.70308,53.40646 26.70308,-53.40646 z"
     style="fill:#dce775;fill-opacity:1;stroke:none;stroke-width:185.76042175px;stroke-linecap:butt;stroke-linejoin:miter;stroke-opacity:1" /></g><text
   xml:space="preserve"
   style="font-style:normal;font-weight:normal;font-size:14.11308289px;line-height:1.25;font-family:sans-serif;letter-spacing:0px;word-spacing:0px;fill:#212121;fill-opacity:1;stroke:none;stroke-width:0.89664745"
   x="216.78923"
   y="173.15628"
   id="text11902"><tspan
     sodipodi:role="line"
     id="tspan11900"
     x="216.78923"
     y="173.15628"
     style="font-style:normal;font-variant:normal;font-weight:300;font-stretch:normal;font-family:'Fira Code';-inkscape-font-specification:'Fira Code Light';text-align:end;text-anchor:end;fill:#212121;stroke-width:0.89664745">2</tspan></text>

<g
   id="g11908"
   transform="matrix(0.21989301,0,0,0.21989301,101.21827,164.11931)"
   style="stroke-width:4.07765341"><path
     sodipodi:nodetypes="cccccccc"
     id="path11904"
     d="m -187.00967,-35.433732 c -18.3874,-0.0027 -33.29406,14.90391 -33.29133,33.2913135 1.5e-4,13.3824525 8.01465,25.4635525 20.34414,30.6668725 -23.09032,3.23923 -40.45098,15.98138 -41.68943,31.55138 h 106.47381 c -1.20057,-15.11618 -17.61054,-27.55157 -39.69682,-31.23063 12.75057,-4.99679 21.13956,-17.29293 21.14121,-30.9876225 0.003,-18.3836215 -14.89796,-33.2886255 -33.28158,-33.2913135 z"
     style="opacity:1;fill:#ffeb3b;fill-opacity:1;stroke:none;stroke-width:4.0840745;stroke-linecap:round;stroke-linejoin:bevel;stroke-miterlimit:4;stroke-dasharray:none;stroke-dashoffset:0;stroke-opacity:1"
     inkscape:connector-curvature="0" /><path
     inkscape:connector-curvature="0"
     id="path11906"
     d="m -187.83778,26.015904 c -11.9856,0 -21.8112,9.8256 -21.8112,21.81101 0,11.98567 9.8256,21.818 21.8112,21.818 10.70601,0 19.68824,-7.84649 21.48518,-18.06376 h 20.14076 v 17.94017 a 3.7587884,3.7587884 0 1 0 7.51329,0 v -4.43807 a 3.7594495,3.7594495 0 0 0 3.52607,-3.74744 v -1.25998 a 3.3902363,3.3902363 0 0 0 3.38362,0.0714 v 1.77486 a 3.3902363,3.3902363 0 0 0 4.00445,3.37172 v 1.08227 a 3.7601045,3.7601045 0 1 0 7.5202,0 v -18.55102 a 3.7587884,3.7587884 0 0 0 -3.75923,-3.75401 h -8.92131 a 3.3902363,3.3902363 0 0 0 -0.5297,-0.0302 3.3902363,3.3902363 0 0 0 -0.43907,0.0302 h -32.44059 c -1.79981,-10.2127 -10.77989,-18.05174 -21.48348,-18.05174 z m 0,10.54031 c 6.28914,0 11.27252,4.98156 11.27252,11.2707 0,6.28944 -4.98338,11.27943 -11.27252,11.27943 -6.28924,0 -11.27263,-4.98999 -11.27263,-11.27943 0,-6.28914 4.98339,-11.2707 11.27263,-11.2707 z"
     style="color:#000000;font-style:normal;font-variant:normal;font-weight:normal;font-stretch:normal;font-size:medium;line-height:normal;font-family:sans-serif;font-variant-ligatures:normal;font-variant-position:normal;font-variant-caps:normal;font-variant-numeric:normal;font-variant-alternates:normal;font-feature-settings:normal;text-indent:0;text-align:start;text-decoration:none;text-decoration-line:none;text-decoration-style:solid;text-decoration-color:#000000;letter-spacing:normal;word-spacing:normal;text-transform:none;writing-mode:lr-tb;direction:ltr;text-orientation:mixed;dominant-baseline:auto;baseline-shift:baseline;text-anchor:start;white-space:normal;shape-padding:0;clip-rule:nonzero;display:inline;overflow:visible;visibility:visible;opacity:1;isolation:auto;mix-blend-mode:normal;color-interpolation:sRGB;color-interpolation-filters:linearRGB;solid-color:#000000;solid-opacity:1;vector-effect:none;fill:#757575;fill-opacity:1;fill-rule:nonzero;stroke:none;stroke-width:30.65100479;stroke-linecap:round;stroke-linejoin:round;stroke-miterlimit:4;stroke-dasharray:none;stroke-dashoffset:0;stroke-opacity:1;color-rendering:auto;image-rendering:auto;shape-rendering:auto;text-rendering:auto;enable-background:accumulate" /></g><text
   id="text11912"
   y="173.15628"
   x="85.878708"
   style="font-style:normal;font-weight:normal;font-size:14.11308289px;line-height:1.25;font-family:sans-serif;text-align:start;letter-spacing:0px;word-spacing:0px;text-anchor:start;fill:#212121;fill-opacity:1;stroke:none;stroke-width:0.89664745"
   xml:space="preserve"><tspan
     style="font-style:normal;font-variant:normal;font-weight:300;font-stretch:normal;font-family:'Fira Code';-inkscape-font-specification:'Fira Code Light';text-align:start;text-anchor:start;fill:#212121;stroke-width:0.89664745"
     y="173.15628"
     x="85.878708"
     id="tspan11910"
     sodipodi:role="line">0xa441</tspan></text>

<g
   transform="matrix(0.89664747,0,0,0.89664747,-52.0111,165.9792)"
   id="g11938"><rect
   style="opacity:1;fill:#fafafa;fill-opacity:1;stroke:none;stroke-width:1.99999964;stroke-linecap:round;stroke-linejoin:bevel;stroke-miterlimit:4;stroke-dasharray:none;stroke-dashoffset:0;stroke-opacity:1"
   id="rect11916"
   width="212.98636"
   height="33.647499"
   x="103.52067"
   y="25.75824" /><g
   style="stroke-width:6.95650482"
   transform="matrix(0.14375035,0,0,0.14375035,273.40556,37.276742)"
   id="g11922"><path
     style="fill:#afb42b;fill-opacity:1;stroke:none;stroke-width:185.76042175px;stroke-linecap:butt;stroke-linejoin:miter;stroke-opacity:1"
     d="m 191.41508,36.905578 26.70308,-53.40567 26.70308,53.40567 z"
     id="path11918"
     inkscape:connector-curvature="0" /><path
     style="fill:#dce775;fill-opacity:1;stroke:none;stroke-width:185.76042175px;stroke-linecap:butt;stroke-linejoin:miter;stroke-opacity:1"
     d="m 191.41508,36.905578 26.70308,53.40646 26.70308,-53.40646 z"
     id="path11920"
     inkscape:connector-curvature="0" /></g><text
   id="text11926"
   y="48.004364"
   x="299.78375"
   style="font-style:normal;font-weight:normal;font-size:15.73983383px;line-height:1.25;font-family:sans-serif;letter-spacing:0px;word-spacing:0px;fill:#212121;fill-opacity:1;stroke:none;stroke-width:0.99999994"
   xml:space="preserve"><tspan
     style="font-style:normal;font-variant:normal;font-weight:300;font-stretch:normal;font-family:'Fira Code';-inkscape-font-specification:'Fira Code Light';text-align:end;text-anchor:end;fill:#212121;stroke-width:0.99999994"
     y="48.004364"
     x="299.78375"
     id="tspan11924"
     sodipodi:role="line">4</tspan></text>


<g
   style="stroke-width:4.07765341"
   transform="matrix(0.24523909,0,0,0.24523909,170.89143,37.925721)"
   id="g11932"><path
     inkscape:connector-curvature="0"
     style="opacity:1;fill:#3949ab;fill-opacity:1;stroke:none;stroke-width:4.0840745;stroke-linecap:round;stroke-linejoin:bevel;stroke-miterlimit:4;stroke-dasharray:none;stroke-dashoffset:0;stroke-opacity:1"
     d="m -187.00967,-35.433732 c -18.3874,-0.0027 -33.29406,14.90391 -33.29133,33.2913135 1.5e-4,13.3824525 8.01465,25.4635525 20.34414,30.6668725 -23.09032,3.23923 -40.45098,15.98138 -41.68943,31.55138 h 106.47381 c -1.20057,-15.11618 -17.61054,-27.55157 -39.69682,-31.23063 12.75057,-4.99679 21.13956,-17.29293 21.14121,-30.9876225 0.003,-18.3836215 -14.89796,-33.2886255 -33.28158,-33.2913135 z"
     id="path11928"
     sodipodi:nodetypes="cccccccc" /><path
     style="color:#000000;font-style:normal;font-variant:normal;font-weight:normal;font-stretch:normal;font-size:medium;line-height:normal;font-family:sans-serif;font-variant-ligatures:normal;font-variant-position:normal;font-variant-caps:normal;font-variant-numeric:normal;font-variant-alternates:normal;font-feature-settings:normal;text-indent:0;text-align:start;text-decoration:none;text-decoration-line:none;text-decoration-style:solid;text-decoration-color:#000000;letter-spacing:normal;word-spacing:normal;text-transform:none;writing-mode:lr-tb;direction:ltr;text-orientation:mixed;dominant-baseline:auto;baseline-shift:baseline;text-anchor:start;white-space:normal;shape-padding:0;clip-rule:nonzero;display:inline;overflow:visible;visibility:visible;opacity:1;isolation:auto;mix-blend-mode:normal;color-interpolation:sRGB;color-interpolation-filters:linearRGB;solid-color:#000000;solid-opacity:1;vector-effect:none;fill:#757575;fill-opacity:1;fill-rule:nonzero;stroke:none;stroke-width:30.65100479;stroke-linecap:round;stroke-linejoin:round;stroke-miterlimit:4;stroke-dasharray:none;stroke-dashoffset:0;stroke-opacity:1;color-rendering:auto;image-rendering:auto;shape-rendering:auto;text-rendering:auto;enable-background:accumulate"
     d="m -187.83778,26.015904 c -11.9856,0 -21.8112,9.8256 -21.8112,21.81101 0,11.98567 9.8256,21.818 21.8112,21.818 10.70601,0 19.68824,-7.84649 21.48518,-18.06376 h 20.14076 v 17.94017 a 3.7587884,3.7587884 0 1 0 7.51329,0 v -4.43807 a 3.7594495,3.7594495 0 0 0 3.52607,-3.74744 v -1.25998 a 3.3902363,3.3902363 0 0 0 3.38362,0.0714 v 1.77486 a 3.3902363,3.3902363 0 0 0 4.00445,3.37172 v 1.08227 a 3.7601045,3.7601045 0 1 0 7.5202,0 v -18.55102 a 3.7587884,3.7587884 0 0 0 -3.75923,-3.75401 h -8.92131 a 3.3902363,3.3902363 0 0 0 -0.5297,-0.0302 3.3902363,3.3902363 0 0 0 -0.43907,0.0302 h -32.44059 c -1.79981,-10.2127 -10.77989,-18.05174 -21.48348,-18.05174 z m 0,10.54031 c 6.28914,0 11.27252,4.98156 11.27252,11.2707 0,6.28944 -4.98338,11.27943 -11.27252,11.27943 -6.28924,0 -11.27263,-4.98999 -11.27263,-11.27943 0,-6.28914 4.98339,-11.2707 11.27263,-11.2707 z"
     id="path11930"
     inkscape:connector-curvature="0" /></g><text
   xml:space="preserve"
   style="font-style:normal;font-weight:normal;font-size:15.73983383px;line-height:1.25;font-family:sans-serif;text-align:start;letter-spacing:0px;word-spacing:0px;text-anchor:start;fill:#212121;fill-opacity:1;stroke:none;stroke-width:0.99999994"
   x="153.78375"
   y="48.004364"
   id="text11936"><tspan
     sodipodi:role="line"
     id="tspan11934"
     x="153.78375"
     y="48.004364"
     style="font-style:normal;font-variant:normal;font-weight:300;font-stretch:normal;font-family:'Fira Code';-inkscape-font-specification:'Fira Code Light';text-align:start;text-anchor:start;fill:#212121;stroke-width:0.99999994">0xd81d</tspan></text>


</g></g></svg>