<?xml version="1.0" encoding="UTF-8" standalone="no"?>
<svg
   xmlns:dc="http://purl.org/dc/elements/1.1/"
   xmlns:cc="http://creativecommons.org/ns#"
   xmlns:rdf="http://www.w3.org/1999/02/22-rdf-syntax-ns#"
   xmlns:svg="http://www.w3.org/2000/svg"
   xmlns="http://www.w3.org/2000/svg"
   xmlns:sodipodi="http://sodipodi.sourceforge.net/DTD/sodipodi-0.dtd"
   xmlns:inkscape="http://www.inkscape.org/namespaces/inkscape"
   width="160mm"
   height="90mm"
   viewBox="0 0 16000 9000"
   version="1.1"
   stroke-width="28.222"
   stroke-linejoin="round"
   xml:space="preserve"
   id="svg72"
   sodipodi:docname="analysis.svg"
   inkscape:version="0.92.2 2405546, 2018-03-11"><metadata
   id="metadata78"><rdf:RDF><cc:Work
       rdf:about=""><dc:format>image/svg+xml</dc:format><dc:type
         rdf:resource="http://purl.org/dc/dcmitype/StillImage" /><dc:title></dc:title></cc:Work></rdf:RDF></metadata><defs
   id="defs76" /><sodipodi:namedview
   pagecolor="#ffffff"
   bordercolor="#666666"
   borderopacity="1"
   objecttolerance="10"
   gridtolerance="10"
   guidetolerance="10"
   inkscape:pageopacity="0"
   inkscape:pageshadow="2"
   inkscape:window-width="1366"
   inkscape:window-height="730"
   id="namedview74"
   showgrid="false"
   inkscape:snap-bbox="true"
   inkscape:snap-bbox-edge-midpoints="true"
   inkscape:bbox-nodes="true"
   inkscape:bbox-paths="true"
   inkscape:object-paths="true"
   inkscape:zoom="0.6216286"
   inkscape:cx="222.60984"
   inkscape:cy="230.84331"
   inkscape:window-x="0"
   inkscape:window-y="38"
   inkscape:window-maximized="0"
   inkscape:current-layer="svg72"
   inkscape:snap-center="true" />
 
 
 
 
 
 
 
 
 
 
 
 
 
 
 
 
 <g
   id="g881"
   transform="matrix(0.65293331,0,0,0.65293331,12058.102,6189.768)"
   style="stroke-width:43.22340393"><g
     id="g829"
     transform="matrix(0.33615269,0.02740693,-0.02740693,0.33615269,-4246.2699,-2506.0867)"
     style="stroke-width:128.15740967"><path
       id="path821"
       d="m -6229.4829,-11656.801 c -801.0001,0 -1596.0003,125 -2357.0002,373 -761.0001,247.001 -1477.9999,612.001 -2124.9999,1083.001 -648,469.9997 -1217,1038.9998 -1687.001,1686.9998 -471,646.9999 -836,1364.0001 -1083,2125.0003 -248,761.0001 -372.999,1556 -372.999,2356.0003 0,800 124.999,1595.0001 372.999,2356 247,761.00003 612,1478.00003 1083,2125.00103 470.001,647.99997 1039.001,1216.99897 1687.001,1686.99997 647,471 1363.9998,836 2124.9999,1083 760.9999,248 1556.0001,374 2356.0003,374 800,0 1595.0003,-126 2356.0001,-374 761,-247 1477.9999,-612 2125.0009,-1083 648,-470.001 1217.00003,-1039 1687.000034,-1686.99997 470.999996,-647.001 835.999996,-1364.001 1082.999966,-2125.00103 135,-414.9998 234,-840 296,-1270.9999 l -2516,-362 c -41.001,288 -107,571 -197,847.0001 -165,507.9998 -408,985.9998 -722.001,1416.9998 -314,432.00003 -693,811.00003 -1124.9999,1125.000034 -431,314.000996 -909,556.999996 -1416.9998,721.999996 -507.0002,165 -1037.0003,249.00097 -1570.0003,249.00097 -533.0002,0 -1063.0003,-84.00097 -1570.0002,-249.00097 -508.0002,-165 -986.0002,-407.999 -1417.0001,-721.999996 -432.0003,-314.000004 -810.9999,-693.000004 -1124.9999,-1125.000034 -314,-431 -557,-909 -722,-1416.9998 -165,-507.0002 -249,-1037.0003 -249,-1570.0002 0,-533.0002 84,-1063.0001 249,-1570.0002 165,-508 408,-986.0002 722,-1417.0001 314,-432.0001 692.9996,-811.0001 1124.9999,-1125.0002 430.9999,-314.0001 908.9999,-557 1417.0001,-722.0003 506.9999,-165 1037,-248.9999 1571.0001,-248.9999 z"
       style="fill:#e65100;fill-opacity:1;stroke:none;stroke-width:4.54104662"
       inkscape:connector-curvature="0" /><path
       id="path823"
       d="m 1316.5182,-2947.7995 c 52,-360 78,-722 78,-1084.0003 0,-676.0001 -90,-1347.9999 -267,-1999.0001 l -2453.001,666.0002 c 118.001,434 178,881.9999 178,1332.9999 0,241.0003 -17,482.0002 -51.999,722.0003 z"
       style="fill:#c62828;stroke:none;stroke-width:4.54104662"
       inkscape:connector-curvature="0" /><path
       id="path825"
       d="m 1127.5182,-6030.7999 c -33,-119.9999 -68,-239 -107,-358 -246.99997,-761.0002 -611.99997,-1478.0004 -1082.999966,-2125.0003 -470.000004,-648 -1039.000034,-1217.0001 -1687.000034,-1686.9998 -622.001,-452 -1308.0009,-807 -2037.0009,-1054.001 l -814.9998,2408.0008 c 485.9998,164.0001 943.9998,401.0001 1357.9998,702.0001 431.9999,314.0001 810.9999,693.0001 1124.9999,1125.0002 314.001,430.9999 557.001,909.0001 722.001,1417.0001 26,79.0001 49,157.9999 70.999,238.0001 z"
       style="fill:#283593;fill-opacity:1;stroke:none;stroke-width:4.54104662"
       inkscape:connector-curvature="0" /><path
       id="path827"
       d="m -3786.4827,-11254.801 c -29,-9.999 -59,-19.999 -88,-29 -760.9998,-248 -1556.0001,-373 -2355.0002,-373 v 0 2541.0007 0 c 532.0001,0 1062.0002,83.9999 1569.0004,248.9999 19.9999,6.0003 40,13.0001 59,20.0002 z"
       style="fill:#558b2f;fill-opacity:1;stroke:none;stroke-width:4.54104662"
       inkscape:connector-curvature="0" /></g><g
     id="g819"
     style="stroke-width:43.22340393"><g
       id="g817"
       style="stroke-width:43.22340393"><path
         inkscape:connector-curvature="0"
         style="fill:#f57c00;fill-opacity:1;stroke:none;stroke-width:1.53155017"
         d="m -6229.4829,-9115.8003 c -534.0001,0 -1064.0002,83.9999 -1571.0001,248.9999 -508.0002,165.0003 -986.0002,408.0002 -1417.0001,722.0003 -432.0003,314.0001 -810.9999,693.0001 -1124.9999,1125.0002 -314,430.9999 -557,909.0001 -722,1417.0001 -165,507.0001 -249,1037 -249,1570.0002 0,532.9999 84,1063 249,1570.0002 165,507.9998 408,985.9998 722,1416.9998 314,432.00003 692.9996,811.00003 1124.9999,1125.000034 133.9998,97.999996 273,187.999996 415.9999,272.000996 l 1286.0001,-2192.00103 c -72,-42 -140.9999,-87 -208,-135.9999 -216,-156.9998 -406,-347 -563,-563 -157.0001,-214.9999 -278.0001,-454.0002 -361.0002,-708.0002 -81.9999,-254 -123.9999,-519 -123.9999,-784.0001 0,-267 42,-532.0001 123.9999,-786.0001 83.0001,-254 204.0001,-492.9999 361.0002,-707.9998 157,-216.0003 347,-406.0002 563,-563.0003 215.0001,-157 454.0001,-278.0001 708.0001,-360.9999 254,-82.0002 519.0001,-124.0001 786.0001,-124.0001 z"
         id="path781" /><path
         inkscape:connector-curvature="0"
         style="fill:#fb8c00;fill-opacity:1;stroke:none;stroke-width:1.53155017"
         d="m -8801.4832,351.20143 c 316.0001,186 652,337 1001.0002,449.999 506.9999,165 1037,249.00097 1571.0001,249.00097 344.0001,0 690,-35.001 1028.0002,-105.99997 l -515.0001,-2489.00103 c -169,36 -342.0002,53 -513.0001,53 -267,0 -532.0001,-42 -786.0001,-124 -174.0001,-57 -341.9999,-132 -500.0001,-225 z"
         id="path783" /><path
         inkscape:connector-curvature="0"
         style="fill:#ffa726;fill-opacity:1;stroke:none;stroke-width:1.53155017"
         d="m -5201.4827,944.20143 c 183.0001,-37.001 364.0001,-85 541.0002,-143.001 507.9998,-165 985.9998,-407.999 1416.9998,-721.999996 202,-146 391.9999,-307.000004 569.9999,-482.000004 L -4452.4827,-2217.7995 c -89,87 -183.9999,168.0001 -284.9999,241 -215.0002,156.9999 -454.0002,277.9999 -708.0002,360.9999 -89,29 -178.9999,53 -271,71 z"
         id="path785" /><path
         inkscape:connector-curvature="0"
         style="fill:#f57c00;fill-opacity:1;stroke:none;stroke-width:1.53155017"
         d="m -2673.4828,-402.79957 c 203,-198 388.001,-413 555,-643.00003 159.001,-218 300,-448 421,-689 l -2266.9999,-1148.9998 c -60,119.9999 -131,235 -210,343.9999 -83.9998,115.0001 -175.9999,223.0001 -278,322 z"
         id="path787" /><path
         inkscape:connector-curvature="0"
         style="fill:#fb8c00;fill-opacity:1;stroke:none;stroke-width:1.53155017"
         d="m -1697.4828,-1734.7996 c 63,-123 120,-248.9998 173,-376.9999 l -2352.9999,-961 c -27,64.0001 -55,127 -87,189.0001 z"
         id="path789" /><path
         inkscape:connector-curvature="0"
         style="fill:#ffa726;fill-opacity:1;stroke:none;stroke-width:1.53155017"
         d="m -1524.4828,-2111.7995 c 52.001,-127.9998 99.001,-258 141.001,-390 l -2424.0009,-766 c -21,66 -44,130.9999 -70,195 z"
         id="path791" /><path
         inkscape:connector-curvature="0"
         style="fill:#f57c00;fill-opacity:1;stroke:none;stroke-width:1.53155017"
         d="m -1383.4818,-2501.7995 c 41,-131.9999 78,-266 108,-400 l -2478.0009,-566.0002 c -15,67.0002 -33,134.0001 -54,200.0002 z"
         id="path793" /><path
         inkscape:connector-curvature="0"
         style="fill:#fb8c00;fill-opacity:1;stroke:none;stroke-width:1.53155017"
         d="m -1275.4818,-2901.7995 c 30.999,-135 55.999,-271.0001 76,-408 l -2516.0009,-362.0003 c -10,69.0002 -22,137.0002 -38,204.0001 z"
         id="path795" /><path
         inkscape:connector-curvature="0"
         style="fill:#f44336;stroke:none;stroke-width:1.53155017"
         d="m -1199.4818,-3309.7995 c 34.999,-240.0001 51.999,-481 51.999,-722.0003 0,-451 -59.999,-898.9999 -178,-1332.9999 l -2452.9999,665.9999 c 59,217.0001 89,441.0001 89,667 0,120.0002 -8,240.0001 -26,360 z"
         id="path797" /><path
         inkscape:connector-curvature="0"
         style="fill:#303f9f;fill-opacity:1;stroke:none;stroke-width:1.53155017"
         d="m -1325.4828,-5364.7997 c -21.999,-80.0002 -44.999,-159 -70.999,-238.0001 -165,-508 -408,-986.0002 -722.001,-1417.0001 -45,-62.0001 -91,-122.0002 -138,-182 L -4243.4825,-5616.8 c 22.9998,30.0001 45.9998,60.0001 68.9998,91.0003 157,214.9999 278,453.9998 361,707.9998 13,40 24,79.0001 35,119.0001 z"
         id="path799" /><path
         inkscape:connector-curvature="0"
         style="fill:#3949ab;fill-opacity:1;stroke:none;stroke-width:1.53155017"
         d="m -2256.4828,-7201.7999 c -259,-325.0002 -557,-616.0003 -886.9999,-869.0002 l -1544,2019.0002 c 165,127 314.0001,271.9999 444.0002,434.9999 z"
         id="path801" /><path
         inkscape:connector-curvature="0"
         style="fill:#5c6bc0;fill-opacity:1;stroke:none;stroke-width:1.53155017"
         d="m -3143.4827,-8070.8001 c -110,-84.0002 -223,-163 -339,-238.0001 l -1374,2138.0003 c 58.0002,38 114,77.0001 169,119 z"
         id="path803" /><path
         inkscape:connector-curvature="0"
         style="fill:#303f9f;fill-opacity:1;stroke:none;stroke-width:1.53155017"
         d="m -3482.4827,-8308.8002 c -117,-74.9999 -236,-144.9999 -358,-210.0001 l -1194.9999,2243.0005 c 60.9999,32.9999 119.9999,67.9998 178.9999,104.9999 z"
         id="path805" /><path
         inkscape:connector-curvature="0"
         style="fill:#3949ab;fill-opacity:1;stroke:none;stroke-width:1.53155017"
         d="m -3840.4827,-8518.8003 c -122,-64.9999 -247,-125 -374,-180 l -1008,2333.0003 c 62.9999,28.0001 125.9999,58.0002 187.0001,90.0002 z"
         id="path807" /><path
         inkscape:connector-curvature="0"
         style="fill:#5c6bc0;fill-opacity:1;stroke:none;stroke-width:1.53155017"
         d="m -4214.4827,-8698.8003 c -126.9999,-53.9998 -255.9998,-104 -386.9998,-147.9999 l -815.0004,2407.0003 c 66.0001,22.0001 130.0001,47 194.0002,73.9999 z"
         id="path809" /><path
         inkscape:connector-curvature="0"
         style="fill:#689f38;fill-opacity:1;stroke:none;stroke-width:1.53155017"
         d="m -4601.4825,-8846.8002 c -262.0003,-89.0001 -531.0003,-156 -804.0003,-201 L -5818.4829,-6539.8 c 137.0002,22.0001 271,56.0001 402,100.0001 z"
         id="path811" /><path
         inkscape:connector-curvature="0"
         style="fill:#7cb342;fill-opacity:1;stroke:none;stroke-width:1.53155017"
         d="m -5405.4828,-9047.8002 c -136.0001,-23 -273,-40 -411.0001,-51.0001 l -206.9999,2533.0002 c 68.9999,6.0002 136.9999,14.0002 204.9999,26.0001 z"
         id="path813" /><path
         inkscape:connector-curvature="0"
         style="fill:#9ccc65;fill-opacity:1;stroke:none;stroke-width:1.53155017"
         d="m -5816.4829,-9098.8003 c -138,-11 -275.9998,-17 -413.9999,-17 l 1.0002,2542.0003 c 68,0 137.0001,3.0001 206,7.9999 z"
         id="path815" /></g></g><g
     style="stroke-width:128.15740967"
     transform="matrix(0.3372681,0,0,0.3372681,-4128.808,-2672.3337)"
     id="g758"><path
       inkscape:connector-curvature="0"
       style="fill:#e65100;fill-opacity:1;stroke:none;stroke-width:4.54104662"
       d="m -6229.4829,-11656.801 c -801.0001,0 -1596.0003,125 -2357.0002,373 -761.0001,247.001 -1477.9999,612.001 -2124.9999,1083.001 -648,469.9997 -1217,1038.9998 -1687.001,1686.9998 -471,646.9999 -836,1364.0001 -1083,2125.0003 -248,761.0001 -372.999,1556 -372.999,2356.0003 0,800 124.999,1595.0001 372.999,2356 247,761.00003 612,1478.00003 1083,2125.00103 470.001,647.99997 1039.001,1216.99897 1687.001,1686.99997 647,471 1363.9998,836 2124.9999,1083 760.9999,248 1556.0001,374 2356.0003,374 800,0 1595.0003,-126 2356.0001,-374 761,-247 1477.9999,-612 2125.0009,-1083 648,-470.001 1217.00003,-1039 1687.000034,-1686.99997 470.999996,-647.001 835.999996,-1364.001 1082.999966,-2125.00103 135,-414.9998 234,-840 296,-1270.9999 l -2516,-362 c -41.001,288 -107,571 -197,847.0001 -165,507.9998 -408,985.9998 -722.001,1416.9998 -314,432.00003 -693,811.00003 -1124.9999,1125.000034 -431,314.000996 -909,556.999996 -1416.9998,721.999996 -507.0002,165 -1037.0003,249.00097 -1570.0003,249.00097 -533.0002,0 -1063.0003,-84.00097 -1570.0002,-249.00097 -508.0002,-165 -986.0002,-407.999 -1417.0001,-721.999996 -432.0003,-314.000004 -810.9999,-693.000004 -1124.9999,-1125.000034 -314,-431 -557,-909 -722,-1416.9998 -165,-507.0002 -249,-1037.0003 -249,-1570.0002 0,-533.0002 84,-1063.0001 249,-1570.0002 165,-508 408,-986.0002 722,-1417.0001 314,-432.0001 692.9996,-811.0001 1124.9999,-1125.0002 430.9999,-314.0001 908.9999,-557 1417.0001,-722.0003 506.9999,-165 1037,-248.9999 1571.0001,-248.9999 z"
       id="path601" /><path
       inkscape:connector-curvature="0"
       style="fill:#c62828;stroke:none;stroke-width:4.54104662"
       d="m 1316.5182,-2947.7995 c 52,-360 78,-722 78,-1084.0003 0,-676.0001 -90,-1347.9999 -267,-1999.0001 l -2453.001,666.0002 c 118.001,434 178,881.9999 178,1332.9999 0,241.0003 -17,482.0002 -51.999,722.0003 z"
       id="path603" /><path
       inkscape:connector-curvature="0"
       style="fill:#283593;fill-opacity:1;stroke:none;stroke-width:4.54104662"
       d="m 1127.5182,-6030.7999 c -33,-119.9999 -68,-239 -107,-358 -246.99997,-761.0002 -611.99997,-1478.0004 -1082.999966,-2125.0003 -470.000004,-648 -1039.000034,-1217.0001 -1687.000034,-1686.9998 -622.001,-452 -1308.0009,-807 -2037.0009,-1054.001 l -814.9998,2408.0008 c 485.9998,164.0001 943.9998,401.0001 1357.9998,702.0001 431.9999,314.0001 810.9999,693.0001 1124.9999,1125.0002 314.001,430.9999 557.001,909.0001 722.001,1417.0001 26,79.0001 49,157.9999 70.999,238.0001 z"
       id="path605" /><path
       inkscape:connector-curvature="0"
       style="fill:#558b2f;fill-opacity:1;stroke:none;stroke-width:4.54104662"
       d="m -3786.4827,-11254.801 c -29,-9.999 -59,-19.999 -88,-29 -760.9998,-248 -1556.0001,-373 -2355.0002,-373 v 0 2541.0007 0 c 532.0001,0 1062.0002,83.9999 1569.0004,248.9999 19.9999,6.0003 40,13.0001 59,20.0002 z"
       id="path607" /></g><g
     id="g779"
     style="stroke-width:43.22340393"><g
       id="g752"
       style="stroke-width:43.22340393"><path
         id="path609"
         d="m -6229.4829,-9115.8003 c -534.0001,0 -1064.0002,83.9999 -1571.0001,248.9999 -508.0002,165.0003 -986.0002,408.0002 -1417.0001,722.0003 -432.0003,314.0001 -810.9999,693.0001 -1124.9999,1125.0002 -314,430.9999 -557,909.0001 -722,1417.0001 -165,507.0001 -249,1037 -249,1570.0002 0,532.9999 84,1063 249,1570.0002 165,507.9998 408,985.9998 722,1416.9998 314,432.00003 692.9996,811.00003 1124.9999,1125.000034 133.9998,97.999996 273,187.999996 415.9999,272.000996 l 1286.0001,-2192.00103 c -72,-42 -140.9999,-87 -208,-135.9999 -216,-156.9998 -406,-347 -563,-563 -157.0001,-214.9999 -278.0001,-454.0002 -361.0002,-708.0002 -81.9999,-254 -123.9999,-519 -123.9999,-784.0001 0,-267 42,-532.0001 123.9999,-786.0001 83.0001,-254 204.0001,-492.9999 361.0002,-707.9998 157,-216.0003 347,-406.0002 563,-563.0003 215.0001,-157 454.0001,-278.0001 708.0001,-360.9999 254,-82.0002 519.0001,-124.0001 786.0001,-124.0001 z"
         style="fill:#f57c00;fill-opacity:1;stroke:none;stroke-width:1.53155017"
         inkscape:connector-curvature="0" /><path
         id="path611"
         d="m -8801.4832,351.20143 c 316.0001,186 652,337 1001.0002,449.999 506.9999,165 1037,249.00097 1571.0001,249.00097 344.0001,0 690,-35.001 1028.0002,-105.99997 l -515.0001,-2489.00103 c -169,36 -342.0002,53 -513.0001,53 -267,0 -532.0001,-42 -786.0001,-124 -174.0001,-57 -341.9999,-132 -500.0001,-225 z"
         style="fill:#fb8c00;fill-opacity:1;stroke:none;stroke-width:1.53155017"
         inkscape:connector-curvature="0" /><path
         id="path613"
         d="m -5201.4827,944.20143 c 183.0001,-37.001 364.0001,-85 541.0002,-143.001 507.9998,-165 985.9998,-407.999 1416.9998,-721.999996 202,-146 391.9999,-307.000004 569.9999,-482.000004 L -4452.4827,-2217.7995 c -89,87 -183.9999,168.0001 -284.9999,241 -215.0002,156.9999 -454.0002,277.9999 -708.0002,360.9999 -89,29 -178.9999,53 -271,71 z"
         style="fill:#ffa726;fill-opacity:1;stroke:none;stroke-width:1.53155017"
         inkscape:connector-curvature="0" /><path
         id="path615"
         d="m -2673.4828,-402.79957 c 203,-198 388.001,-413 555,-643.00003 159.001,-218 300,-448 421,-689 l -2266.9999,-1148.9998 c -60,119.9999 -131,235 -210,343.9999 -83.9998,115.0001 -175.9999,223.0001 -278,322 z"
         style="fill:#f57c00;fill-opacity:1;stroke:none;stroke-width:1.53155017"
         inkscape:connector-curvature="0" /><path
         id="path617"
         d="m -1697.4828,-1734.7996 c 63,-123 120,-248.9998 173,-376.9999 l -2352.9999,-961 c -27,64.0001 -55,127 -87,189.0001 z"
         style="fill:#fb8c00;fill-opacity:1;stroke:none;stroke-width:1.53155017"
         inkscape:connector-curvature="0" /><path
         id="path619"
         d="m -1524.4828,-2111.7995 c 52.001,-127.9998 99.001,-258 141.001,-390 l -2424.0009,-766 c -21,66 -44,130.9999 -70,195 z"
         style="fill:#ffa726;fill-opacity:1;stroke:none;stroke-width:1.53155017"
         inkscape:connector-curvature="0" /><path
         id="path621"
         d="m -1383.4818,-2501.7995 c 41,-131.9999 78,-266 108,-400 l -2478.0009,-566.0002 c -15,67.0002 -33,134.0001 -54,200.0002 z"
         style="fill:#f57c00;fill-opacity:1;stroke:none;stroke-width:1.53155017"
         inkscape:connector-curvature="0" /><path
         id="path623"
         d="m -1275.4818,-2901.7995 c 30.999,-135 55.999,-271.0001 76,-408 l -2516.0009,-362.0003 c -10,69.0002 -22,137.0002 -38,204.0001 z"
         style="fill:#fb8c00;fill-opacity:1;stroke:none;stroke-width:1.53155017"
         inkscape:connector-curvature="0" /><path
         id="path625"
         d="m -1199.4818,-3309.7995 c 34.999,-240.0001 51.999,-481 51.999,-722.0003 0,-451 -59.999,-898.9999 -178,-1332.9999 l -2452.9999,665.9999 c 59,217.0001 89,441.0001 89,667 0,120.0002 -8,240.0001 -26,360 z"
         style="fill:#f44336;stroke:none;stroke-width:1.53155017"
         inkscape:connector-curvature="0" /><path
         id="path627"
         d="m -1325.4828,-5364.7997 c -21.999,-80.0002 -44.999,-159 -70.999,-238.0001 -165,-508 -408,-986.0002 -722.001,-1417.0001 -45,-62.0001 -91,-122.0002 -138,-182 L -4243.4825,-5616.8 c 22.9998,30.0001 45.9998,60.0001 68.9998,91.0003 157,214.9999 278,453.9998 361,707.9998 13,40 24,79.0001 35,119.0001 z"
         style="fill:#303f9f;fill-opacity:1;stroke:none;stroke-width:1.53155017"
         inkscape:connector-curvature="0" /><path
         id="path629"
         d="m -2256.4828,-7201.7999 c -259,-325.0002 -557,-616.0003 -886.9999,-869.0002 l -1544,2019.0002 c 165,127 314.0001,271.9999 444.0002,434.9999 z"
         style="fill:#3949ab;fill-opacity:1;stroke:none;stroke-width:1.53155017"
         inkscape:connector-curvature="0" /><path
         id="path631"
         d="m -3143.4827,-8070.8001 c -110,-84.0002 -223,-163 -339,-238.0001 l -1374,2138.0003 c 58.0002,38 114,77.0001 169,119 z"
         style="fill:#5c6bc0;fill-opacity:1;stroke:none;stroke-width:1.53155017"
         inkscape:connector-curvature="0" /><path
         id="path633"
         d="m -3482.4827,-8308.8002 c -117,-74.9999 -236,-144.9999 -358,-210.0001 l -1194.9999,2243.0005 c 60.9999,32.9999 119.9999,67.9998 178.9999,104.9999 z"
         style="fill:#303f9f;fill-opacity:1;stroke:none;stroke-width:1.53155017"
         inkscape:connector-curvature="0" /><path
         id="path635"
         d="m -3840.4827,-8518.8003 c -122,-64.9999 -247,-125 -374,-180 l -1008,2333.0003 c 62.9999,28.0001 125.9999,58.0002 187.0001,90.0002 z"
         style="fill:#3949ab;fill-opacity:1;stroke:none;stroke-width:1.53155017"
         inkscape:connector-curvature="0" /><path
         id="path637"
         d="m -4214.4827,-8698.8003 c -126.9999,-53.9998 -255.9998,-104 -386.9998,-147.9999 l -815.0004,2407.0003 c 66.0001,22.0001 130.0001,47 194.0002,73.9999 z"
         style="fill:#5c6bc0;fill-opacity:1;stroke:none;stroke-width:1.53155017"
         inkscape:connector-curvature="0" /><path
         id="path639"
         d="m -4601.4825,-8846.8002 c -262.0003,-89.0001 -531.0003,-156 -804.0003,-201 L -5818.4829,-6539.8 c 137.0002,22.0001 271,56.0001 402,100.0001 z"
         style="fill:#689f38;fill-opacity:1;stroke:none;stroke-width:1.53155017"
         inkscape:connector-curvature="0" /><path
         id="path641"
         d="m -5405.4828,-9047.8002 c -136.0001,-23 -273,-40 -411.0001,-51.0001 l -206.9999,2533.0002 c 68.9999,6.0002 136.9999,14.0002 204.9999,26.0001 z"
         style="fill:#7cb342;fill-opacity:1;stroke:none;stroke-width:1.53155017"
         inkscape:connector-curvature="0" /><path
         id="path643"
         d="m -5816.4829,-9098.8003 c -138,-11 -275.9998,-17 -413.9999,-17 l 1.0002,2542.0003 c 68,0 137.0001,3.0001 206,7.9999 z"
         style="fill:#9ccc65;fill-opacity:1;stroke:none;stroke-width:1.53155017"
         inkscape:connector-curvature="0" /></g></g></g>
 
 
 
 
 
 
 
 
 
<path
   style="fill:#424242;stroke:#424242;stroke-width:52.91666794;stroke-linecap:round;stroke-linejoin:miter;stroke-miterlimit:4;stroke-dasharray:none;stroke-opacity:1"
   d="M 5285.0072,5104.7589 H 995.03179"
   id="path162"
   inkscape:connector-curvature="0"
   sodipodi:nodetypes="cc" /><text
   xml:space="preserve"
   style="font-style:normal;font-weight:normal;font-size:400.70294189px;line-height:1.25;font-family:sans-serif;letter-spacing:0px;word-spacing:0px;fill:#000000;fill-opacity:1;stroke:none;stroke-width:746.70709229"
   x="969.80817"
   y="4435.9233"
   id="text166"><tspan
     sodipodi:role="line"
     id="tspan164"
     x="969.80817"
     y="4435.9233"
     style="font-style:normal;font-variant:normal;font-weight:normal;font-stretch:normal;font-family:'CMU Serif';-inkscape-font-specification:'CMU Serif';fill:#000000;stroke-width:746.70709229">Hidden changes</tspan><tspan
     sodipodi:role="line"
     x="969.80817"
     y="4952.9238"
     style="font-style:normal;font-variant:normal;font-weight:normal;font-stretch:normal;font-family:'CMU Serif';-inkscape-font-specification:'CMU Serif';fill:#000000;stroke-width:746.70709229"
     id="tspan979">of riddle solution</tspan></text>


<path
   inkscape:connector-curvature="0"
   id="path973"
   d="M 15579.904,2478.9399 H 10228.353"
   style="fill:#424242;stroke:#424242;stroke-width:52.91666794;stroke-linecap:round;stroke-linejoin:miter;stroke-miterlimit:4;stroke-dasharray:none;stroke-opacity:1"
   sodipodi:nodetypes="cc" /><text
   id="text977"
   y="1757.1858"
   x="15618.66"
   style="font-style:normal;font-weight:normal;font-size:400.70294189px;line-height:1.25;font-family:sans-serif;letter-spacing:0px;word-spacing:0px;fill:#000000;fill-opacity:1;stroke:none;stroke-width:746.70709229"
   xml:space="preserve"><tspan
     style="font-style:normal;font-variant:normal;font-weight:normal;font-stretch:normal;font-family:'CMU Serif';-inkscape-font-specification:'CMU Serif';text-align:end;text-anchor:end;fill:#000000;stroke-width:746.70709229"
     y="1757.1858"
     x="15618.66"
     id="tspan975"
     sodipodi:role="line">Shadowed owner</tspan><tspan
     style="font-style:normal;font-variant:normal;font-weight:normal;font-stretch:normal;font-family:'CMU Serif';-inkscape-font-specification:'CMU Serif';text-align:end;text-anchor:end;fill:#000000;stroke-width:746.70709229"
     y="2274.1865"
     x="15618.66"
     sodipodi:role="line"
     id="tspan981">variable of parent</tspan></text>




<text
   xml:space="preserve"
   style="font-style:normal;font-weight:normal;font-size:400.70294189px;line-height:1.25;font-family:sans-serif;letter-spacing:0px;word-spacing:0px;fill:#000000;fill-opacity:1;stroke:none;stroke-width:746.70709229"
   x="15620.576"
   y="3389.7979"
   id="text1031"><tspan
     sodipodi:role="line"
     x="15620.576"
     y="3389.7979"
     style="font-style:normal;font-variant:normal;font-weight:normal;font-stretch:normal;font-family:'CMU Typewriter Text';-inkscape-font-specification:'CMU Typewriter Text';text-align:end;text-anchor:end;fill:#000000;stroke-width:746.70709229"
     id="tspan1037">GIFT_CARD</tspan><tspan
     sodipodi:role="line"
     x="15620.576"
     y="3906.7986"
     style="font-style:normal;font-variant:normal;font-weight:normal;font-stretch:normal;font-family:'CMU Serif';-inkscape-font-specification:'CMU Serif';text-align:end;text-anchor:end;fill:#000000;stroke-width:746.70709229"
     id="tspan937">Transaction Races</tspan></text>


<text
   xml:space="preserve"
   style="font-style:normal;font-weight:normal;font-size:960.03338623px;line-height:1.25;font-family:sans-serif;letter-spacing:0px;word-spacing:0px;fill:#000000;fill-opacity:1;stroke:none;stroke-width:746.70709229"
   x="7510.9551"
   y="3866.2302"
   id="text1045"><tspan
     sodipodi:role="line"
     id="tspan1043"
     x="7510.9551"
     y="3866.2302"
     style="font-style:normal;font-variant:normal;font-weight:normal;font-stretch:normal;font-family:'CMU Sans Serif';-inkscape-font-specification:'CMU Sans Serif';stroke-width:746.70709229">77</tspan></text>


<g
   id="g973"
   transform="translate(106.96627,52.916663)"><g
     style="stroke-width:30.4771843"
     transform="matrix(0.92600428,0,0,0.92600428,468.79339,652.21095)"
     id="g138"><circle
   style="opacity:1;fill:#558b2f;fill-opacity:1;stroke:none;stroke-width:77.14597321;stroke-linecap:round;stroke-linejoin:bevel;stroke-miterlimit:4;stroke-dasharray:none;stroke-dashoffset:0;stroke-opacity:1"
   id="path127"
   cx="10930.932"
   cy="8403.9043"
   r="264.26428" /><text
   xml:space="preserve"
   style="font-style:normal;font-weight:normal;font-size:544.36126709px;line-height:1.25;font-family:sans-serif;letter-spacing:0px;word-spacing:0px;fill:#000000;fill-opacity:1;stroke:none;stroke-width:806.37536621"
   x="11514.912"
   y="8592.7969"
   id="text133"><tspan
     sodipodi:role="line"
     id="tspan131"
     x="11514.912"
     y="8592.7969"
     style="font-style:normal;font-variant:normal;font-weight:normal;font-stretch:normal;font-family:'CMU Serif';-inkscape-font-specification:'CMU Serif';stroke-width:806.37536621">False Positives<tspan
   id="tspan1049"
   style="font-size:64.99999762%;baseline-shift:super;stroke-width:806.37536621"> (4)</tspan></tspan></text>


</g><g
     style="stroke-width:30.4771843"
     transform="matrix(0.92600428,0,0,0.92600428,-8952.6996,652.21095)"
     id="g146"><circle
   r="264.26428"
   cy="8403.9043"
   cx="10930.932"
   id="circle140"
   style="opacity:1;fill:#e65100;fill-opacity:1;stroke:none;stroke-width:77.14597321;stroke-linecap:round;stroke-linejoin:bevel;stroke-miterlimit:4;stroke-dasharray:none;stroke-dashoffset:0;stroke-opacity:1" /><text
   id="text144"
   y="8592.7969"
   x="11514.912"
   style="font-style:normal;font-weight:normal;font-size:544.36126709px;line-height:1.25;font-family:sans-serif;letter-spacing:0px;word-spacing:0px;fill:#000000;fill-opacity:1;stroke:none;stroke-width:806.37536621"
   xml:space="preserve"><tspan
     style="font-style:normal;font-variant:normal;font-weight:normal;font-stretch:normal;font-family:'CMU Serif';-inkscape-font-specification:'CMU Serif';stroke-width:806.37536621"
     y="8592.7969"
     x="11514.912"
     id="tspan142"
     sodipodi:role="line">Internal Zero-Value Transaction<tspan
   id="tspan1055"
   style="font-size:64.99999762%;baseline-shift:super;stroke-width:806.37536621"> (56)</tspan></tspan></text>


</g><g
     style="stroke-width:30.4771843"
     id="g154"
     transform="matrix(0.92600428,0,0,0.92600428,-1252.0857,-96.09214)"><circle
   style="opacity:1;fill:#283593;fill-opacity:1;stroke:none;stroke-width:77.14597321;stroke-linecap:round;stroke-linejoin:bevel;stroke-miterlimit:4;stroke-dasharray:none;stroke-dashoffset:0;stroke-opacity:1"
   id="circle148"
   cx="10930.932"
   cy="8403.9043"
   r="264.26428" /><text
   xml:space="preserve"
   style="font-style:normal;font-weight:normal;font-size:544.36126709px;line-height:1.25;font-family:sans-serif;letter-spacing:0px;word-spacing:0px;fill:#000000;fill-opacity:1;stroke:none;stroke-width:806.37536621"
   x="11514.912"
   y="8592.7969"
   id="text152"><tspan
     sodipodi:role="line"
     id="tspan150"
     x="11514.912"
     y="8592.7969"
     style="font-style:normal;font-variant:normal;font-weight:normal;font-stretch:normal;font-family:'CMU Serif';-inkscape-font-specification:'CMU Serif';stroke-width:806.37536621">Underhanded Solidity<tspan
   id="tspan1053"
   style="font-size:64.99999762%;baseline-shift:super;stroke-width:806.37536621"> (12)</tspan></tspan></text>


</g><g
     id="g918"
     transform="matrix(0.92600428,0,0,0.92600428,19475.695,-96.09214)"
     style="stroke-width:30.4771843"><circle
   r="264.26428"
   cy="8403.9043"
   cx="-19776.828"
   id="circle910"
   style="opacity:1;fill:#c62828;fill-opacity:1;stroke:none;stroke-width:77.14597321;stroke-linecap:round;stroke-linejoin:bevel;stroke-miterlimit:4;stroke-dasharray:none;stroke-dashoffset:0;stroke-opacity:1" /><text
   id="text916"
   y="8592.7969"
   x="-19192.848"
   style="font-style:normal;font-weight:normal;font-size:544.36126709px;line-height:1.25;font-family:sans-serif;letter-spacing:0px;word-spacing:0px;fill:#000000;fill-opacity:1;stroke:none;stroke-width:806.37536621"
   xml:space="preserve"><tspan
     style="font-style:normal;font-variant:normal;font-weight:normal;font-stretch:normal;font-family:'CMU Serif';-inkscape-font-specification:'CMU Serif';stroke-width:806.37536621"
     y="8592.7969"
     x="-19192.848"
     id="tspan914"
     sodipodi:role="line">Race-Conditions <tspan
   style="font-size:64.99999762%;baseline-shift:super;stroke-width:806.37536621"
   id="tspan912">(5)</tspan></tspan></text>


</g></g><path
   sodipodi:nodetypes="ccc"
   style="fill:none;stroke:#424242;stroke-width:52.91666794;stroke-linecap:round;stroke-linejoin:miter;stroke-miterlimit:4;stroke-dasharray:none;stroke-opacity:1"
   d="m 15579.904,4066.44 h -4371.422 l -980.129,-793.75"
   id="path941"
   inkscape:connector-curvature="0" /><text
   id="text947"
   y="5506.4648"
   x="15620.576"
   style="font-style:normal;font-weight:normal;font-size:400.70294189px;line-height:1.25;font-family:sans-serif;letter-spacing:0px;word-spacing:0px;fill:#000000;fill-opacity:1;stroke:none;stroke-width:746.70709229"
   xml:space="preserve"><tspan
     id="tspan943"
     style="font-style:normal;font-variant:normal;font-weight:normal;font-stretch:normal;font-family:'CMU Typewriter Text';-inkscape-font-specification:'CMU Typewriter Text';text-align:end;text-anchor:end;fill:#000000;stroke-width:746.70709229"
     y="5506.4648"
     x="15620.576"
     sodipodi:role="line">COIN_BOX</tspan><tspan
     id="tspan945"
     style="font-style:normal;font-variant:normal;font-weight:normal;font-stretch:normal;font-family:'CMU Serif';-inkscape-font-specification:'CMU Serif';text-align:end;text-anchor:end;fill:#000000;stroke-width:746.70709229"
     y="6023.4653"
     x="15620.576"
     sodipodi:role="line">Transaction blocked</tspan><tspan
     style="font-style:normal;font-variant:normal;font-weight:normal;font-stretch:normal;font-family:'CMU Serif';-inkscape-font-specification:'CMU Serif';text-align:end;text-anchor:end;fill:#000000;stroke-width:746.70709229"
     y="6540.4663"
     x="15620.576"
     sodipodi:role="line"
     id="tspan951">by changed library</tspan></text>
<path
   inkscape:connector-curvature="0"
   id="path949"
   d="M 15579.904,6712.2735 H 8562.6487 l -980.129,-793.75"
   style="fill:none;stroke:#424242;stroke-width:52.91666794;stroke-linecap:round;stroke-linejoin:miter;stroke-miterlimit:4;stroke-dasharray:none;stroke-opacity:1"
   sodipodi:nodetypes="ccc" /></svg>