<?xml version="1.0" encoding="UTF-8" standalone="no"?>
<!-- Created with Inkscape (http://www.inkscape.org/) -->

<svg
   xmlns:dc="http://purl.org/dc/elements/1.1/"
   xmlns:cc="http://creativecommons.org/ns#"
   xmlns:rdf="http://www.w3.org/1999/02/22-rdf-syntax-ns#"
   xmlns:svg="http://www.w3.org/2000/svg"
   xmlns="http://www.w3.org/2000/svg"
   xmlns:xlink="http://www.w3.org/1999/xlink"
   xmlns:sodipodi="http://sodipodi.sourceforge.net/DTD/sodipodi-0.dtd"
   xmlns:inkscape="http://www.inkscape.org/namespaces/inkscape"
   version="1.1"
   id="svg29"
   xml:space="preserve"
   width="100.00012mm"
   height="70mm"
   viewBox="0 0 377.95323 264.56694"
   sodipodi:docname="05.svg"
   inkscape:version="0.92.2 2405546, 2018-03-11"><metadata
     id="metadata35"><rdf:RDF><cc:Work
         rdf:about=""><dc:format>image/svg+xml</dc:format><dc:type
           rdf:resource="http://purl.org/dc/dcmitype/StillImage" /><dc:title /></cc:Work></rdf:RDF></metadata><defs
     id="defs33"><linearGradient
       inkscape:collect="always"
       id="linearGradient876"><stop
         style="stop-color:#ffffff;stop-opacity:1"
         offset="0"
         id="stop872" /><stop
         style="stop-color:#ffffff;stop-opacity:0"
         offset="1"
         id="stop874" /></linearGradient><linearGradient
       inkscape:collect="always"
       xlink:href="#linearGradient876"
       id="linearGradient878"
       x1="100.8952"
       y1="53.721825"
       x2="100.8952"
       y2="35.612434"
       gradientUnits="userSpaceOnUse" /></defs><sodipodi:namedview
     pagecolor="#000000"
     bordercolor="#666666"
     borderopacity="1"
     objecttolerance="10"
     gridtolerance="10"
     guidetolerance="10"
     inkscape:pageopacity="1"
     inkscape:pageshadow="2"
     inkscape:window-width="1366"
     inkscape:window-height="730"
     id="namedview31"
     showgrid="false"
     units="mm"
     inkscape:snap-page="true"
     borderlayer="true"
     inkscape:zoom="1.5142244"
     inkscape:cx="187.62883"
     inkscape:cy="183.43398"
     inkscape:window-x="0"
     inkscape:window-y="38"
     inkscape:window-maximized="0"
     inkscape:current-layer="layer1"
     inkscape:measure-start="0,0"
     inkscape:measure-end="0,0"
     inkscape:snap-bbox="true"
     inkscape:bbox-nodes="true"
     inkscape:object-nodes="true"
     inkscape:bbox-paths="true"
     inkscape:snap-object-midpoints="true"
     inkscape:object-paths="true"
     inkscape:snap-bbox-edge-midpoints="false"
     showguides="false" /><g
     id="g37"
     inkscape:groupmode="layer"
     inkscape:label="Background"
     transform="matrix(1.3333333,0,0,-1.3333333,0,264.56696)"
     sodipodi:insensitive="true"><rect
       style="opacity:1;fill:#000000;fill-opacity:1;stroke:none;stroke-width:0.75118107;stroke-linecap:round;stroke-linejoin:bevel;stroke-miterlimit:4;stroke-dasharray:none;stroke-dashoffset:0;stroke-opacity:1"
       id="rect43"
       width="283.4649"
       height="198.4252"
       x="0"
       y="-198.42522"
       transform="scale(1,-1)" /></g><g
     inkscape:groupmode="layer"
     id="layer1"
     inkscape:label="Foreground">























<rect
   y="160.50632"
   x="132.41101"
   height="46.888695"
   width="226.51862"
   id="rect2289"
   style="font-style:normal;font-weight:normal;font-size:6.2247262px;line-height:1.25;font-family:sans-serif;letter-spacing:0px;word-spacing:0px;opacity:1;fill:#c5e1a5;fill-opacity:1;stroke:#9ccc65;stroke-width:1;stroke-linecap:round;stroke-linejoin:round;stroke-miterlimit:4;stroke-dasharray:none;stroke-dashoffset:0;stroke-opacity:1" /><rect
   style="font-style:normal;font-weight:normal;font-size:6.2247262px;line-height:1.25;font-family:sans-serif;letter-spacing:0px;word-spacing:0px;opacity:1;fill:#ffccbc;fill-opacity:1;stroke:#ff8a65;stroke-width:1;stroke-linecap:round;stroke-linejoin:round;stroke-miterlimit:4;stroke-dasharray:none;stroke-dashoffset:0;stroke-opacity:1"
   id="rect2184"
   width="226.51862"
   height="31.699396"
   x="132.41101"
   y="212.395" /><text
   xml:space="preserve"
   style="font-style:normal;font-weight:normal;font-size:6.03139353px;line-height:1.25;font-family:sans-serif;letter-spacing:0px;word-spacing:0px;fill:#000000;fill-opacity:1;stroke:none;stroke-width:2.56028867"
   x="153.12636"
   y="171.32471"
   id="text1930"><tspan
     sodipodi:role="line"
     x="153.12636"
     y="171.32471"
     style="font-style:normal;font-variant:normal;font-weight:normal;font-stretch:normal;font-family:'Fira Code';-inkscape-font-specification:'Fira Code';fill:#ffffff;stroke-width:2.56028867"
     id="tspan1908"><tspan
       id="tspan1904"
       style="fill:#ad1457">function</tspan><tspan
       style="fill:#000000"
       id="tspan2219"> withdrawDeposit() </tspan><tspan
       id="tspan1906"
       style="fill:#ad1457">public</tspan><tspan
       style="fill:#000000"
       id="tspan2235"> {</tspan></tspan><tspan
     sodipodi:role="line"
     x="153.12636"
     y="178.98096"
     style="font-style:normal;font-variant:normal;font-weight:normal;font-stretch:normal;font-family:'Fira Code';-inkscape-font-specification:'Fira Code';fill:#ffffff;stroke-width:2.56028867"
     id="tspan1916">    <tspan
   id="tspan1910"
   style="fill:#01579b">require</tspan><tspan
   style="fill:#000000"
   id="tspan2231">(deposit[msg.sender] </tspan><tspan
   id="tspan1912"
   style="fill:#03a9f4">!=</tspan> <tspan
   id="tspan1914"
   style="fill:#e65100">0</tspan><tspan
   style="fill:#000000"
   id="tspan2233">);</tspan></tspan><tspan
     sodipodi:role="line"
     x="153.12636"
     y="186.63722"
     style="font-style:normal;font-variant:normal;font-weight:bold;font-stretch:normal;font-family:'Fira Code';-inkscape-font-specification:'Fira Code Bold';fill:#ffffff;stroke-width:2.56028867"
     id="tspan1920"><tspan
       style="fill:#000000;-inkscape-font-specification:'Fira Code Bold';font-family:'Fira Code';font-weight:bold;font-style:normal;font-stretch:normal;font-variant:normal"
       id="tspan2223">    msg.sender.</tspan><tspan
       id="tspan1918"
       style="fill:#01579b;-inkscape-font-specification:'Fira Code Bold';font-family:'Fira Code';font-weight:bold;font-style:normal;font-stretch:normal;font-variant:normal">call</tspan><tspan
       style="fill:#000000;-inkscape-font-specification:'Fira Code Bold';font-family:'Fira Code';font-weight:bold;font-style:normal;font-stretch:normal;font-variant:normal"
       id="tspan2227">.value(deposit[msg.sender])();</tspan></tspan><tspan
     sodipodi:role="line"
     x="153.12636"
     y="194.29347"
     style="font-style:normal;font-variant:normal;font-weight:normal;font-stretch:normal;font-family:'Fira Code';-inkscape-font-specification:'Fira Code';fill:#616161;stroke-width:2.56028867"
     id="tspan1926">    deposit[msg.sender] = 0;</tspan><tspan
     sodipodi:role="line"
     x="153.12636"
     y="201.94974"
     style="font-style:normal;font-variant:normal;font-weight:normal;font-stretch:normal;font-family:'Fira Code';-inkscape-font-specification:'Fira Code';fill:#616161;stroke-width:2.56028867"
     id="tspan1928">}</tspan></text>
<g
   style="stroke-width:4.81720543"
   transform="matrix(0.1967531,0,0,0.21089152,67.329906,31.522152)"
   id="g940-3-3"><path
     style="fill:#dce775;fill-opacity:1;stroke:none;stroke-width:128.63444519px;stroke-linecap:butt;stroke-linejoin:miter;stroke-opacity:1"
     d="m 191.41508,11.250768 13.87556,27.751271 13.87555,-27.751271 c -8.42623,-6.6847038 -17.46962,-8.3635128 -27.75111,0 z"
     id="path938-6-7"
     inkscape:connector-curvature="0"
     sodipodi:nodetypes="cccc" /><path
     style="fill:#afb42b;fill-opacity:1;stroke:none;stroke-width:128.63444519px;stroke-linecap:butt;stroke-linejoin:miter;stroke-opacity:1"
     d="m 191.41508,11.250768 13.87556,-27.75086 13.87555,27.75086 z"
     id="path936-5-6"
     inkscape:connector-curvature="0" /></g><text
   xml:space="preserve"
   style="font-style:normal;font-weight:normal;font-size:6.03139353px;line-height:1.25;font-family:sans-serif;letter-spacing:0px;word-spacing:0px;fill:#000000;fill-opacity:1;stroke:none;stroke-width:2.56028867"
   x="153.12636"
   y="223.32471"
   id="text1687"><tspan
     sodipodi:role="line"
     x="153.12636"
     y="223.32471"
     style="font-style:normal;font-variant:normal;font-weight:normal;font-stretch:normal;font-family:'Fira Code';-inkscape-font-specification:'Fira Code';fill:#ffffff;stroke-width:2.56028867"
     id="tspan1703"><tspan
       style="fill:#ad1457"
       id="tspan1896">function attack</tspan><tspan
       style="fill:#000000"
       id="tspan2241">(CrowdFunding cf) </tspan><tspan
       style="fill:#880e4f"
       id="tspan1898">public</tspan><tspan
       style="fill:#000000"
       id="tspan2243"> {</tspan></tspan><tspan
     sodipodi:role="line"
     x="153.12636"
     y="230.98096"
     style="font-style:normal;font-variant:normal;font-weight:bold;font-stretch:normal;font-family:'Fira Code';-inkscape-font-specification:'Fira Code Bold';fill:#000000;stroke-width:2.56028867"
     id="tspan1792">    cf.withdrawDeposit();</tspan><tspan
     sodipodi:role="line"
     x="153.12636"
     y="238.63722"
     style="font-style:normal;font-variant:normal;font-weight:normal;font-stretch:normal;font-family:'Fira Code';-inkscape-font-specification:'Fira Code';fill:#757575;stroke-width:2.56028867"
     id="tspan1794">} </tspan></text>
<g
   aria-label="balance of
CrowdFundingExploit"
   transform="matrix(0.96589792,0,0,1.0353061,4,0)"
   style="font-style:normal;font-weight:normal;font-size:6.2247262px;line-height:1.25;font-family:sans-serif;letter-spacing:0px;word-spacing:0px;fill:#000000;fill-opacity:1;stroke:none;stroke-width:1"
   id="text1934"><path
     d="m 7.0229783,15.845779 q 0.2025111,-0.265589 0.501298,-0.265589 0.3353053,0 0.4946583,0.23903 0.159353,0.239029 0.159353,0.67061 0,0.411662 -0.182592,0.663971 -0.182592,0.248989 -0.5112576,0.248989 -0.3021067,0 -0.4747391,-0.21911 l -0.019919,0.182592 H 6.7441105 V 14.9129 l 0.2788678,-0.0332 z m 0.3983825,1.331261 q 0.2191104,0 0.3353053,-0.172632 0.1195147,-0.172633 0.1195147,-0.514578 0,-0.338625 -0.1062353,-0.511257 Q 7.66703,15.80594 7.4611991,15.80594 q -0.1327942,0 -0.2456693,0.07968 -0.1095551,0.07968 -0.1925515,0.199191 v 0.866482 q 0.069717,0.106236 0.1726324,0.165993 0.1029155,0.05976 0.2257501,0.05976 z"
     style="font-style:normal;font-variant:normal;font-weight:normal;font-stretch:normal;font-size:3.31985426px;line-height:0;font-family:'Fira Code';-inkscape-font-specification:'Fira Code';fill:#9e9e9e;stroke-width:1"
     id="path2056"
     inkscape:connector-curvature="0" /><path
     d="m 9.9896312,16.984489 q 0,0.102915 0.033199,0.152713 0.0332,0.04648 0.109555,0.06972 l -0.06972,0.199191 q -0.255628,-0.0332 -0.3187052,-0.248989 -0.092956,0.119515 -0.2357097,0.182592 -0.1394339,0.06308 -0.3120663,0.06308 -0.2622685,0 -0.4149818,-0.146073 -0.149394,-0.146074 -0.149394,-0.391743 0,-0.268908 0.2091508,-0.414982 0.2124707,-0.146073 0.6075333,-0.146073 h 0.2589487 v -0.142754 q 0,-0.185912 -0.1062354,-0.265588 -0.1062353,-0.083 -0.3087464,-0.083 -0.1991913,0 -0.4548201,0.08964 l -0.076357,-0.21247 q 0.3087464,-0.109556 0.5743348,-0.109556 0.318706,0 0.4846987,0.149394 0.1693126,0.149393 0.1693126,0.414982 z M 9.2659029,17.19364 q 0.1294744,0 0.2456693,-0.0664 0.1195147,-0.0664 0.1958714,-0.182592 v -0.44818 h -0.252309 q -0.2788677,0 -0.4017023,0.09296 -0.1228346,0.09296 -0.1228346,0.272228 0,0.331986 0.3353052,0.331986 z"
     style="font-style:normal;font-variant:normal;font-weight:normal;font-stretch:normal;font-size:3.31985426px;line-height:0;font-family:'Fira Code';-inkscape-font-specification:'Fira Code';fill:#9e9e9e;stroke-width:1"
     id="path2058"
     inkscape:connector-curvature="0" /><path
     d="m 11.409232,16.934691 q 0,0.23571 0.288827,0.23571 0.136114,0 0.292147,-0.05976 l 0.07304,0.202511 q -0.165992,0.08964 -0.414982,0.08964 -0.235709,0 -0.378463,-0.129474 -0.139434,-0.129474 -0.139434,-0.351904 V 15.13533 H 10.592548 V 14.9129 h 0.816684 z"
     style="font-style:normal;font-variant:normal;font-weight:normal;font-stretch:normal;font-size:3.31985426px;line-height:0;font-family:'Fira Code';-inkscape-font-specification:'Fira Code';fill:#9e9e9e;stroke-width:1"
     id="path2060"
     inkscape:connector-curvature="0" /><path
     d="m 13.970863,16.984489 q 0,0.102915 0.0332,0.152713 0.0332,0.04648 0.109555,0.06972 l -0.06972,0.199191 q -0.255628,-0.0332 -0.318706,-0.248989 -0.09296,0.119515 -0.235709,0.182592 -0.139434,0.06308 -0.312067,0.06308 -0.262268,0 -0.414981,-0.146073 -0.149394,-0.146074 -0.149394,-0.391743 0,-0.268908 0.209151,-0.414982 0.212471,-0.146073 0.607533,-0.146073 h 0.258949 v -0.142754 q 0,-0.185912 -0.106235,-0.265588 -0.106236,-0.083 -0.308747,-0.083 -0.199191,0 -0.45482,0.08964 l -0.07636,-0.21247 q 0.308747,-0.109556 0.574335,-0.109556 0.318706,0 0.484699,0.149394 0.169313,0.149393 0.169313,0.414982 z m -0.723729,0.209151 q 0.129475,0 0.245669,-0.0664 0.119515,-0.0664 0.195872,-0.182592 v -0.44818 h -0.252309 q -0.278868,0 -0.401702,0.09296 -0.122835,0.09296 -0.122835,0.272228 0,0.331986 0.335305,0.331986 z"
     style="font-style:normal;font-variant:normal;font-weight:normal;font-stretch:normal;font-size:3.31985426px;line-height:0;font-family:'Fira Code';-inkscape-font-specification:'Fira Code';fill:#9e9e9e;stroke-width:1"
     id="path2062"
     inkscape:connector-curvature="0" /><path
     d="m 14.706573,15.616709 h 0.23903 l 0.02324,0.245669 q 0.102915,-0.132794 0.258949,-0.205831 0.159353,-0.07636 0.318706,-0.07636 0.491338,0 0.491338,0.517898 v 1.268184 h -0.278868 v -1.062353 q 0,-0.195872 -0.02324,-0.298787 -0.01992,-0.102916 -0.083,-0.152714 -0.06308,-0.0498 -0.192552,-0.0498 -0.142753,0 -0.268908,0.08632 -0.126154,0.08632 -0.205831,0.205831 v 1.271504 h -0.278868 z"
     style="font-style:normal;font-variant:normal;font-weight:normal;font-stretch:normal;font-size:3.31985426px;line-height:0;font-family:'Fira Code';-inkscape-font-specification:'Fira Code';fill:#9e9e9e;stroke-width:1"
     id="path2064"
     inkscape:connector-curvature="0" /><path
     d="m 17.490634,17.163761 q 0.22907,0 0.45482,-0.152713 l 0.132794,0.182592 q -0.109555,0.09628 -0.272228,0.152713 -0.162673,0.05644 -0.315386,0.05644 -0.388423,0 -0.607533,-0.242349 -0.215791,-0.245669 -0.215791,-0.660651 0,-0.262268 0.09628,-0.471419 0.0996,-0.209151 0.285507,-0.328666 0.185912,-0.119515 0.441541,-0.119515 0.338625,0 0.584294,0.205831 l -0.136114,0.182592 q -0.22907,-0.152713 -0.4515,-0.152713 -0.23571,0 -0.378463,0.175952 -0.139434,0.172633 -0.139434,0.507938 0,0.335305 0.139434,0.501298 0.142753,0.162673 0.381783,0.162673 z"
     style="font-style:normal;font-variant:normal;font-weight:normal;font-stretch:normal;font-size:3.31985426px;line-height:0;font-family:'Fira Code';-inkscape-font-specification:'Fira Code';fill:#9e9e9e;stroke-width:1"
     id="path2066"
     inkscape:connector-curvature="0" /><path
     d="m 18.910235,16.589426 q 0.01,0.288827 0.149393,0.434901 0.142754,0.146074 0.358545,0.146074 0.129474,0 0.235709,-0.03652 0.109555,-0.03984 0.23239,-0.119515 l 0.129474,0.185912 q -0.122834,0.09628 -0.282187,0.149394 -0.156033,0.05312 -0.315386,0.05312 -0.378464,0 -0.590934,-0.245669 -0.209151,-0.248989 -0.209151,-0.663971 0,-0.262268 0.09296,-0.468099 0.09296,-0.209151 0.265588,-0.325346 0.172632,-0.119515 0.401702,-0.119515 0.331986,0 0.521217,0.23239 0.192552,0.22907 0.192552,0.627453 0,0.07636 -0.0066,0.149393 z m 0.471419,-0.780166 q -0.202511,0 -0.328665,0.146074 -0.126155,0.142754 -0.142754,0.421621 h 0.90964 Q 19.816555,16.101407 19.70036,15.955334 19.584165,15.80926 19.381654,15.80926 Z"
     style="font-style:normal;font-variant:normal;font-weight:normal;font-stretch:normal;font-size:3.31985426px;line-height:0;font-family:'Fira Code';-inkscape-font-specification:'Fira Code';fill:#9e9e9e;stroke-width:1"
     id="path2068"
     inkscape:connector-curvature="0" /><path
     d="m 23.336327,15.58019 q 0.361864,0 0.554416,0.24567 0.195871,0.242349 0.195871,0.66397 0,0.411662 -0.199191,0.663971 -0.195872,0.248989 -0.554416,0.248989 -0.361864,0 -0.557735,-0.242349 Q 22.5794,16.914772 22.5794,16.49315 q 0,-0.414981 0.195872,-0.663971 0.199191,-0.248989 0.561055,-0.248989 z m 0,0.22907 q -0.22907,0 -0.341945,0.169313 -0.112875,0.169312 -0.112875,0.514577 0,0.345265 0.109555,0.514578 0.112875,0.165992 0.341945,0.165992 0.22907,0 0.338625,-0.165992 0.112875,-0.169313 0.112875,-0.517898 0,-0.345264 -0.112875,-0.511257 -0.109555,-0.169313 -0.335305,-0.169313 z"
     style="font-style:normal;font-variant:normal;font-weight:normal;font-stretch:normal;font-size:3.31985426px;line-height:0;font-family:'Fira Code';-inkscape-font-specification:'Fira Code';fill:#9e9e9e;stroke-width:1"
     id="path2070"
     inkscape:connector-curvature="0" /><path
     d="m 25.692126,14.879701 q 0.248989,0 0.474739,0.09296 l -0.08964,0.209151 q -0.165993,-0.07304 -0.375144,-0.07304 -0.365183,0 -0.365183,0.288827 v 0.355225 h 0.590934 l -0.02988,0.22243 h -0.561055 v 1.391019 h -0.282188 v -1.391019 h -0.414982 v -0.22243 h 0.414982 v -0.348585 q 0,-0.23571 0.179272,-0.378463 0.182592,-0.146074 0.45814,-0.146074 z"
     style="font-style:normal;font-variant:normal;font-weight:normal;font-stretch:normal;font-size:3.31985426px;line-height:0;font-family:'Fira Code';-inkscape-font-specification:'Fira Code';fill:#9e9e9e;stroke-width:1"
     id="path2072"
     inkscape:connector-curvature="0" /><path
     d="m 8.6405771,18.858075 q 0.3983825,0 0.6847199,0.105821 0.2863374,0.0996 0.5602253,0.311236 L 9.5805107,19.629941 Q 9.2008024,19.31248 8.6779254,19.31248 q -0.5788995,0 -0.9461583,0.423282 -0.3610342,0.417056 -0.3610342,1.332091 0,0.90881 0.3548094,1.332092 0.3548094,0.423281 0.9461584,0.423281 0.3236858,0 0.5540007,-0.09337 0.2303148,-0.09337 0.4419555,-0.261438 l 0.2801127,0.348584 q -0.4793039,0.466855 -1.2822936,0.466855 -0.5291017,0 -0.9523831,-0.255214 -0.4232814,-0.261439 -0.6660457,-0.759417 -0.2427643,-0.497978 -0.2427643,-1.201372 0,-0.697169 0.2427643,-1.195147 0.248989,-0.504203 0.6660457,-0.759417 0.4232814,-0.255214 0.9274842,-0.255214 z"
     style="font-style:normal;font-variant:normal;font-weight:normal;font-stretch:normal;line-height:0;font-family:'Fira Code';-inkscape-font-specification:'Fira Code';fill:#ffab91;stroke-width:1"
     id="path2074"
     inkscape:connector-curvature="0" /><path
     d="m 12.983004,19.866481 q 0.199192,0 0.46063,0.06847 l -0.0747,1.114226 h -0.423282 v -0.703394 h -0.03112 q -0.759417,0 -1.076878,1.083102 v 1.38189 H 12.5037 v 0.404607 h -1.705575 v -0.404607 h 0.516652 v -2.471217 h -0.516652 v -0.404607 h 0.90881 l 0.09959,0.778091 q 0.199191,-0.423282 0.473079,-0.634922 0.280113,-0.211641 0.703394,-0.211641 z"
     style="font-style:normal;font-variant:normal;font-weight:normal;font-stretch:normal;line-height:0;font-family:'Fira Code';-inkscape-font-specification:'Fira Code';fill:#ffab91;stroke-width:1"
     id="path2076"
     inkscape:connector-curvature="0" /><path
     d="m 15.750576,19.866481 q 0.678495,0 1.039529,0.46063 0.367259,0.454405 0.367259,1.244945 0,0.771866 -0.373483,1.244945 -0.367259,0.466855 -1.03953,0.466855 -0.678495,0 -1.045754,-0.454405 -0.367258,-0.46063 -0.367258,-1.25117 0,-0.778091 0.367258,-1.244946 0.373484,-0.466854 1.051979,-0.466854 z m 0,0.429506 q -0.429506,0 -0.641147,0.317461 -0.21164,0.317461 -0.21164,0.964833 0,0.647371 0.205416,0.964832 0.21164,0.311237 0.641146,0.311237 0.429507,0 0.634923,-0.311237 0.21164,-0.317461 0.21164,-0.971057 0,-0.647372 -0.21164,-0.958608 -0.205416,-0.317461 -0.628698,-0.317461 z"
     style="font-style:normal;font-variant:normal;font-weight:normal;font-stretch:normal;line-height:0;font-family:'Fira Code';-inkscape-font-specification:'Fira Code';fill:#ffab91;stroke-width:1"
     id="path2078"
     inkscape:connector-curvature="0" /><path
     d="M 20.665678,23.215384 H 19.924935 L 19.495429,20.812639 19.0348,23.215384 h -0.722069 l -0.591349,-3.280431 h 0.529102 l 0.423282,2.956745 0.522877,-2.539688 h 0.616247 l 0.491754,2.539688 0.423281,-2.956745 h 0.504203 z"
     style="font-style:normal;font-variant:normal;font-weight:normal;font-stretch:normal;line-height:0;font-family:'Fira Code';-inkscape-font-specification:'Fira Code';fill:#ffab91;stroke-width:1"
     id="path2080"
     inkscape:connector-curvature="0" /><path
     d="m 24.454105,18.615311 v 4.600073 h -0.46063 l -0.0498,-0.429506 q -0.180517,0.248989 -0.417057,0.373483 -0.23654,0.124495 -0.510428,0.124495 -0.622472,0 -0.939933,-0.454405 -0.311237,-0.454405 -0.311237,-1.25117 0,-0.491754 0.155619,-0.877687 0.155618,-0.392157 0.441955,-0.610023 0.292562,-0.22409 0.68472,-0.22409 0.541551,0 0.883911,0.392158 v -1.705575 z m -1.269844,1.674451 q -0.410832,0 -0.634922,0.323686 -0.217865,0.323686 -0.217865,0.964833 0,0.634922 0.199191,0.964832 0.205416,0.323686 0.591349,0.323686 0.466854,0 0.809214,-0.522877 v -1.630878 q -0.136944,-0.205416 -0.32991,-0.311237 -0.192967,-0.112045 -0.417057,-0.112045 z"
     style="font-style:normal;font-variant:normal;font-weight:normal;font-stretch:normal;line-height:0;font-family:'Fira Code';-inkscape-font-specification:'Fira Code';fill:#ffab91;stroke-width:1"
     id="path2082"
     inkscape:connector-curvature="0" /><path
     d="m 26.47471,19.374728 v 1.500159 h 1.680676 v 0.435731 H 26.47471 v 1.904766 h -0.541551 v -4.288837 h 2.527239 l -0.06225,0.448181 z"
     style="font-style:normal;font-variant:normal;font-weight:normal;font-stretch:normal;line-height:0;font-family:'Fira Code';-inkscape-font-specification:'Fira Code';fill:#ffab91;stroke-width:1"
     id="path2084"
     inkscape:connector-curvature="0" /><path
     d="m 29.951899,22.263001 q 0,0.317461 0.130719,0.466854 0.136944,0.143169 0.423282,0.143169 0.261438,0 0.504203,-0.149394 0.242764,-0.149393 0.385933,-0.373483 v -2.415194 h 0.522877 v 3.280431 h -0.448181 l -0.04357,-0.441956 q -0.192966,0.242764 -0.479304,0.379708 -0.280112,0.13072 -0.572674,0.13072 -0.466855,0 -0.709619,-0.248989 -0.23654,-0.248989 -0.23654,-0.715844 v -2.38407 h 0.522877 z"
     style="font-style:normal;font-variant:normal;font-weight:normal;font-stretch:normal;line-height:0;font-family:'Fira Code';-inkscape-font-specification:'Fira Code';fill:#ffab91;stroke-width:1"
     id="path2086"
     inkscape:connector-curvature="0" /><path
     d="m 33.161427,19.934953 h 0.44818 l 0.04357,0.46063 q 0.192967,-0.248989 0.485529,-0.385933 0.298787,-0.143169 0.597574,-0.143169 0.921259,0 0.921259,0.971057 v 2.377846 h -0.522877 v -1.991913 q 0,-0.367259 -0.04357,-0.560225 -0.03735,-0.192967 -0.155618,-0.286337 -0.11827,-0.09337 -0.361034,-0.09337 -0.267664,0 -0.504203,0.161843 -0.23654,0.161842 -0.385933,0.385933 v 2.38407 h -0.522877 z"
     style="font-style:normal;font-variant:normal;font-weight:normal;font-stretch:normal;line-height:0;font-family:'Fira Code';-inkscape-font-specification:'Fira Code';fill:#ffab91;stroke-width:1"
     id="path2088"
     inkscape:connector-curvature="0" /><path
     d="m 39.383722,18.615311 v 4.600073 h -0.46063 l -0.0498,-0.429506 q -0.180518,0.248989 -0.417057,0.373483 -0.23654,0.124495 -0.510428,0.124495 -0.622472,0 -0.939933,-0.454405 -0.311237,-0.454405 -0.311237,-1.25117 0,-0.491754 0.155619,-0.877687 0.155618,-0.392157 0.441955,-0.610023 0.292562,-0.22409 0.68472,-0.22409 0.541551,0 0.883911,0.392158 v -1.705575 z m -1.269844,1.674451 q -0.410832,0 -0.634922,0.323686 -0.217866,0.323686 -0.217866,0.964833 0,0.634922 0.199192,0.964832 0.205416,0.323686 0.591349,0.323686 0.466854,0 0.809214,-0.522877 v -1.630878 q -0.136944,-0.205416 -0.32991,-0.311237 -0.192967,-0.112045 -0.417057,-0.112045 z"
     style="font-style:normal;font-variant:normal;font-weight:normal;font-stretch:normal;line-height:0;font-family:'Fira Code';-inkscape-font-specification:'Fira Code';fill:#ffab91;stroke-width:1"
     id="path2090"
     inkscape:connector-curvature="0" /><path
     d="m 41.87118,18.40367 q 0.174292,0 0.280112,0.105821 0.105821,0.0996 0.105821,0.261438 0,0.161843 -0.105821,0.267663 -0.10582,0.0996 -0.280112,0.0996 -0.168068,0 -0.273888,-0.0996 -0.0996,-0.10582 -0.0996,-0.267663 0,-0.161843 0.0996,-0.261438 0.10582,-0.105821 0.273888,-0.105821 z m 0.417056,1.531283 v 2.863374 h 0.92126 v 0.417057 h -2.452542 v -0.417057 h 1.008405 V 20.35201 h -0.977282 v -0.417057 z"
     style="font-style:normal;font-variant:normal;font-weight:normal;font-stretch:normal;line-height:0;font-family:'Fira Code';-inkscape-font-specification:'Fira Code';fill:#ffab91;stroke-width:1"
     id="path2092"
     inkscape:connector-curvature="0" /><path
     d="m 44.358641,19.934953 h 0.44818 l 0.04357,0.46063 q 0.192967,-0.248989 0.485529,-0.385933 0.298787,-0.143169 0.597574,-0.143169 0.921259,0 0.921259,0.971057 v 2.377846 h -0.522877 v -1.991913 q 0,-0.367259 -0.04357,-0.560225 -0.03735,-0.192967 -0.155618,-0.286337 -0.11827,-0.09337 -0.361034,-0.09337 -0.267663,0 -0.504203,0.161843 -0.23654,0.161842 -0.385933,0.385933 v 2.38407 h -0.522877 z"
     style="font-style:normal;font-variant:normal;font-weight:normal;font-stretch:normal;line-height:0;font-family:'Fira Code';-inkscape-font-specification:'Fira Code';fill:#ffab91;stroke-width:1"
     id="path2094"
     inkscape:connector-curvature="0" /><path
     d="m 50.91707,20.084346 q -0.186742,0.06225 -0.404608,0.08092 -0.217865,0.01245 -0.554,0.01245 0.572674,0.261439 0.572674,0.827889 0,0.497978 -0.32991,0.809214 -0.329911,0.305012 -0.902585,0.305012 -0.292562,0 -0.491754,-0.06847 -0.0747,0.05602 -0.124494,0.143169 -0.04357,0.08715 -0.04357,0.174292 0,0.280113 0.435731,0.280113 H 49.6659 q 0.323685,0 0.585124,0.118269 0.267663,0.112046 0.417056,0.317461 0.155619,0.205416 0.155619,0.454405 0,0.479304 -0.410832,0.734518 -0.404608,0.261439 -1.151575,0.261439 -0.759416,0 -1.070653,-0.23654 -0.311236,-0.23654 -0.311236,-0.753192 h 0.473079 q 0,0.205416 0.0747,0.323686 0.08092,0.124494 0.273888,0.180517 0.199191,0.06225 0.560225,0.06225 0.529102,0 0.778091,-0.136944 0.255214,-0.136944 0.255214,-0.404607 0,-0.22409 -0.205416,-0.348585 -0.205416,-0.118269 -0.529102,-0.118269 h -0.585124 q -0.404607,0 -0.616248,-0.174293 -0.211641,-0.180517 -0.211641,-0.44818 0,-0.155618 0.09337,-0.305012 0.09337,-0.155618 0.267663,-0.267663 -0.280112,-0.143168 -0.417056,-0.361034 -0.130719,-0.22409 -0.130719,-0.541551 0,-0.329911 0.161842,-0.585124 0.168068,-0.261439 0.46063,-0.404608 0.298787,-0.149393 0.68472,-0.149393 0.560225,0 0.852788,-0.06225 0.292562,-0.06225 0.641146,-0.211641 z m -1.655778,0.168068 q -0.379708,0 -0.572674,0.205416 -0.192967,0.199191 -0.192967,0.547776 0,0.348585 0.192967,0.560225 0.199191,0.205416 0.585124,0.205416 0.348584,0 0.529102,-0.199191 0.186741,-0.205416 0.186741,-0.572675 0,-0.746967 -0.728293,-0.746967 z"
     style="font-style:normal;font-variant:normal;font-weight:normal;font-stretch:normal;line-height:0;font-family:'Fira Code';-inkscape-font-specification:'Fira Code';fill:#ffab91;stroke-width:1"
     id="path2096"
     inkscape:connector-curvature="0" /><path
     d="m 52.520616,19.374728 v 1.444136 h 1.59353 v 0.441956 h -1.59353 v 1.518833 h 1.954564 v 0.435731 h -2.489891 v -4.288837 h 2.433868 l -0.06225,0.448181 z"
     style="font-style:normal;font-variant:normal;font-weight:normal;font-stretch:normal;line-height:0;font-family:'Fira Code';-inkscape-font-specification:'Fira Code';fill:#ffab91;stroke-width:1"
     id="path2098"
     inkscape:connector-curvature="0" /><path
     d="m 55.879539,23.215384 h -0.597574 l 1.207597,-1.730474 -1.064428,-1.549957 h 0.622473 l 0.759416,1.220046 0.765642,-1.220046 h 0.603798 l -1.064428,1.525058 1.207597,1.755373 H 57.68471 l -0.902586,-1.406788 z"
     style="font-style:normal;font-variant:normal;font-weight:normal;font-stretch:normal;line-height:0;font-family:'Fira Code';-inkscape-font-specification:'Fira Code';fill:#ffab91;stroke-width:1"
     id="path2100"
     inkscape:connector-curvature="0" /><path
     d="m 60.757291,19.866481 q 1.188923,0 1.188923,1.705575 0,0.778091 -0.323686,1.244945 -0.323685,0.466855 -0.939933,0.466855 -0.535327,0 -0.871462,-0.373484 v 1.562406 l -0.522877,0.06225 v -4.600073 h 0.44818 l 0.04357,0.46063 q 0.180517,-0.255214 0.429507,-0.392158 0.255213,-0.136944 0.547775,-0.136944 z m -0.124494,0.423281 q -0.248989,0 -0.46063,0.149394 -0.205416,0.149393 -0.361034,0.373483 v 1.624654 q 0.130719,0.192966 0.323686,0.305012 0.199191,0.10582 0.429506,0.10582 0.410832,0 0.610023,-0.311236 0.205416,-0.317461 0.205416,-0.964833 0,-0.647372 -0.180517,-0.964833 -0.180517,-0.317461 -0.56645,-0.317461 z"
     style="font-style:normal;font-variant:normal;font-weight:normal;font-stretch:normal;line-height:0;font-family:'Fira Code';-inkscape-font-specification:'Fira Code';fill:#ffab91;stroke-width:1"
     id="path2102"
     inkscape:connector-curvature="0" /><path
     d="m 64.302956,22.406169 q 0,0.441956 0.541551,0.441956 0.255214,0 0.547776,-0.112045 l 0.136944,0.379708 q -0.311236,0.168068 -0.77809,0.168068 -0.441956,0 -0.709619,-0.242765 -0.261439,-0.242764 -0.261439,-0.659821 v -3.348902 h -1.008405 v -0.417057 h 1.531282 z"
     style="font-style:normal;font-variant:normal;font-weight:normal;font-stretch:normal;line-height:0;font-family:'Fira Code';-inkscape-font-specification:'Fira Code';fill:#ffab91;stroke-width:1"
     id="path2104"
     inkscape:connector-curvature="0" /><path
     d="m 68.004235,19.866481 q 0.678496,0 1.03953,0.46063 0.367259,0.454405 0.367259,1.244945 0,0.771866 -0.373484,1.244945 -0.367259,0.466855 -1.039529,0.466855 -0.678495,0 -1.045754,-0.454405 -0.367259,-0.46063 -0.367259,-1.25117 0,-0.778091 0.367259,-1.244946 0.373483,-0.466854 1.051978,-0.466854 z m 0,0.429506 q -0.429506,0 -0.641146,0.317461 -0.211641,0.317461 -0.211641,0.964833 0,0.647371 0.205416,0.964832 0.211641,0.311237 0.641147,0.311237 0.429506,0 0.634922,-0.311237 0.21164,-0.317461 0.21164,-0.971057 0,-0.647372 -0.21164,-0.958608 -0.205416,-0.317461 -0.628698,-0.317461 z"
     style="font-style:normal;font-variant:normal;font-weight:normal;font-stretch:normal;line-height:0;font-family:'Fira Code';-inkscape-font-specification:'Fira Code';fill:#ffab91;stroke-width:1"
     id="path2106"
     inkscape:connector-curvature="0" /><path
     d="m 71.730413,18.40367 q 0.174293,0 0.280113,0.105821 0.105821,0.0996 0.105821,0.261438 0,0.161843 -0.105821,0.267663 -0.10582,0.0996 -0.280113,0.0996 -0.168067,0 -0.273887,-0.0996 -0.0996,-0.10582 -0.0996,-0.267663 0,-0.161843 0.0996,-0.261438 0.10582,-0.105821 0.273887,-0.105821 z m 0.417057,1.531283 v 2.863374 h 0.92126 v 0.417057 h -2.452543 v -0.417057 h 1.008406 V 20.35201 h -0.977282 v -0.417057 z"
     style="font-style:normal;font-variant:normal;font-weight:normal;font-stretch:normal;line-height:0;font-family:'Fira Code';-inkscape-font-specification:'Fira Code';fill:#ffab91;stroke-width:1"
     id="path2108"
     inkscape:connector-curvature="0" /><path
     d="m 76.826031,23.047316 q -0.168067,0.112045 -0.410832,0.174292 -0.236539,0.06225 -0.473079,0.06225 -0.516652,0 -0.809214,-0.267664 -0.292562,-0.273887 -0.292562,-0.715843 v -1.954564 h -0.753192 v -0.410832 h 0.753192 v -0.740742 l 0.522877,-0.06225 v 0.80299 h 1.139125 l -0.06847,0.410832 h -1.070653 v 1.948339 q 0,0.280113 0.149393,0.417057 0.149394,0.136944 0.479304,0.136944 0.336135,0 0.628697,-0.155618 z"
     style="font-style:normal;font-variant:normal;font-weight:normal;font-stretch:normal;line-height:0;font-family:'Fira Code';-inkscape-font-specification:'Fira Code';fill:#ffab91;stroke-width:1"
     id="path2110"
     inkscape:connector-curvature="0" /></g><g
   aria-label="balance of
CrowdFunding"
   transform="matrix(0.96589792,0,0,1.0353061,4,0)"
   style="font-style:normal;font-weight:normal;font-size:6.2247262px;line-height:1.25;font-family:sans-serif;letter-spacing:0px;word-spacing:0px;fill:#000000;fill-opacity:1;stroke:none;stroke-width:1"
   id="text1975"><path
     d="m 7.0229783,47.99303 q 0.2025111,-0.265588 0.501298,-0.265588 0.3353053,0 0.4946583,0.239029 0.159353,0.23903 0.159353,0.670611 0,0.411662 -0.182592,0.66397 -0.182592,0.248989 -0.5112576,0.248989 -0.3021067,0 -0.4747391,-0.21911 l -0.019919,0.182592 H 6.7441105 v -2.453372 l 0.2788678,-0.0332 z m 0.3983825,1.331261 q 0.2191104,0 0.3353053,-0.172632 0.1195147,-0.172632 0.1195147,-0.514577 0,-0.338626 -0.1062353,-0.511258 -0.1029155,-0.172632 -0.3087464,-0.172632 -0.1327942,0 -0.2456693,0.07968 -0.1095551,0.07968 -0.1925515,0.199191 v 0.866482 q 0.069717,0.106236 0.1726324,0.165993 0.1029155,0.05976 0.2257501,0.05976 z"
     style="font-style:normal;font-variant:normal;font-weight:normal;font-stretch:normal;font-size:3.31985426px;line-height:0;font-family:'Fira Code';-inkscape-font-specification:'Fira Code';fill:#9e9e9e;stroke-width:1"
     id="path2013"
     inkscape:connector-curvature="0" /><path
     d="m 9.9896312,49.13174 q 0,0.102915 0.033199,0.152713 0.0332,0.04648 0.109555,0.06972 l -0.06972,0.199191 q -0.255628,-0.0332 -0.3187052,-0.248989 -0.092956,0.119515 -0.2357097,0.182592 -0.1394339,0.06308 -0.3120663,0.06308 -0.2622685,0 -0.4149818,-0.146073 -0.149394,-0.146074 -0.149394,-0.391743 0,-0.268908 0.2091508,-0.414982 0.2124707,-0.146073 0.6075333,-0.146073 h 0.2589487 v -0.142754 q 0,-0.185912 -0.1062354,-0.265588 -0.1062353,-0.083 -0.3087464,-0.083 -0.1991913,0 -0.4548201,0.08964 l -0.076357,-0.21247 q 0.3087464,-0.109555 0.5743348,-0.109555 0.318706,0 0.4846987,0.149393 0.1693126,0.149393 0.1693126,0.414982 z m -0.7237283,0.209151 q 0.1294744,0 0.2456693,-0.0664 0.1195147,-0.0664 0.1958714,-0.182592 v -0.448181 h -0.252309 q -0.2788677,0 -0.4017023,0.09296 -0.1228346,0.09296 -0.1228346,0.272228 0,0.331986 0.3353052,0.331985 z"
     style="font-style:normal;font-variant:normal;font-weight:normal;font-stretch:normal;font-size:3.31985426px;line-height:0;font-family:'Fira Code';-inkscape-font-specification:'Fira Code';fill:#9e9e9e;stroke-width:1"
     id="path2015"
     inkscape:connector-curvature="0" /><path
     d="m 11.409232,49.081942 q 0,0.23571 0.288827,0.23571 0.136114,0 0.292147,-0.05976 l 0.07304,0.202511 q -0.165992,0.08964 -0.414982,0.08964 -0.235709,0 -0.378463,-0.129474 -0.139434,-0.129474 -0.139434,-0.351904 v -1.786082 h -0.537816 v -0.22243 h 0.816684 z"
     style="font-style:normal;font-variant:normal;font-weight:normal;font-stretch:normal;font-size:3.31985426px;line-height:0;font-family:'Fira Code';-inkscape-font-specification:'Fira Code';fill:#9e9e9e;stroke-width:1"
     id="path2017"
     inkscape:connector-curvature="0" /><path
     d="m 13.970863,49.13174 q 0,0.102915 0.0332,0.152713 0.0332,0.04648 0.109555,0.06972 l -0.06972,0.199191 q -0.255628,-0.0332 -0.318706,-0.248989 -0.09296,0.119515 -0.235709,0.182592 -0.139434,0.06308 -0.312067,0.06308 -0.262268,0 -0.414981,-0.146073 -0.149394,-0.146074 -0.149394,-0.391743 0,-0.268908 0.209151,-0.414982 0.212471,-0.146073 0.607533,-0.146073 h 0.258949 v -0.142754 q 0,-0.185912 -0.106235,-0.265588 -0.106236,-0.083 -0.308747,-0.083 -0.199191,0 -0.45482,0.08964 l -0.07636,-0.21247 q 0.308747,-0.109555 0.574335,-0.109555 0.318706,0 0.484699,0.149393 0.169313,0.149393 0.169313,0.414982 z m -0.723729,0.209151 q 0.129475,0 0.245669,-0.0664 0.119515,-0.0664 0.195872,-0.182592 v -0.448181 h -0.252309 q -0.278868,0 -0.401702,0.09296 -0.122835,0.09296 -0.122835,0.272228 0,0.331986 0.335305,0.331985 z"
     style="font-style:normal;font-variant:normal;font-weight:normal;font-stretch:normal;font-size:3.31985426px;line-height:0;font-family:'Fira Code';-inkscape-font-specification:'Fira Code';fill:#9e9e9e;stroke-width:1"
     id="path2019"
     inkscape:connector-curvature="0" /><path
     d="m 14.706573,47.76396 h 0.23903 l 0.02324,0.245669 q 0.102915,-0.132794 0.258949,-0.205831 0.159353,-0.07636 0.318706,-0.07636 0.491338,0 0.491338,0.517897 v 1.268184 H 15.758967 V 48.45117 q 0,-0.195872 -0.02324,-0.298787 -0.01992,-0.102916 -0.083,-0.152713 -0.06308,-0.0498 -0.192552,-0.0498 -0.142753,0 -0.268908,0.08632 -0.126154,0.08632 -0.205831,0.205831 v 1.271504 h -0.278868 z"
     style="font-style:normal;font-variant:normal;font-weight:normal;font-stretch:normal;font-size:3.31985426px;line-height:0;font-family:'Fira Code';-inkscape-font-specification:'Fira Code';fill:#9e9e9e;stroke-width:1"
     id="path2021"
     inkscape:connector-curvature="0" /><path
     d="m 17.490634,49.311012 q 0.22907,0 0.45482,-0.152713 l 0.132794,0.182592 q -0.109555,0.09627 -0.272228,0.152713 -0.162673,0.05644 -0.315386,0.05644 -0.388423,0 -0.607533,-0.242349 -0.215791,-0.245669 -0.215791,-0.660651 0,-0.262268 0.09628,-0.471419 0.0996,-0.209151 0.285507,-0.328666 0.185912,-0.119514 0.441541,-0.119514 0.338625,0 0.584294,0.20583 l -0.136114,0.182592 q -0.22907,-0.152713 -0.4515,-0.152713 -0.23571,0 -0.378463,0.175952 -0.139434,0.172633 -0.139434,0.507938 0,0.335305 0.139434,0.501298 0.142753,0.162673 0.381783,0.162673 z"
     style="font-style:normal;font-variant:normal;font-weight:normal;font-stretch:normal;font-size:3.31985426px;line-height:0;font-family:'Fira Code';-inkscape-font-specification:'Fira Code';fill:#9e9e9e;stroke-width:1"
     id="path2023"
     inkscape:connector-curvature="0" /><path
     d="m 18.910235,48.736677 q 0.01,0.288828 0.149393,0.434901 0.142754,0.146074 0.358545,0.146074 0.129474,0 0.235709,-0.03652 0.109555,-0.03984 0.23239,-0.119514 l 0.129474,0.185911 q -0.122834,0.09628 -0.282187,0.149394 -0.156033,0.05312 -0.315386,0.05312 -0.378464,0 -0.590934,-0.245669 -0.209151,-0.248989 -0.209151,-0.663971 0,-0.262268 0.09296,-0.468099 0.09296,-0.209151 0.265588,-0.325346 0.172632,-0.119514 0.401702,-0.119514 0.331986,0 0.521217,0.232389 0.192552,0.22907 0.192552,0.627453 0,0.07636 -0.0066,0.149393 z m 0.471419,-0.780166 q -0.202511,0 -0.328665,0.146074 -0.126155,0.142754 -0.142754,0.421622 h 0.90964 q -0.0033,-0.275548 -0.119515,-0.421622 -0.116195,-0.146074 -0.318706,-0.146074 z"
     style="font-style:normal;font-variant:normal;font-weight:normal;font-stretch:normal;font-size:3.31985426px;line-height:0;font-family:'Fira Code';-inkscape-font-specification:'Fira Code';fill:#9e9e9e;stroke-width:1"
     id="path2025"
     inkscape:connector-curvature="0" /><path
     d="m 23.336327,47.727442 q 0.361864,0 0.554416,0.245669 0.195871,0.242349 0.195871,0.663971 0,0.411662 -0.199191,0.66397 -0.195872,0.248989 -0.554416,0.248989 -0.361864,0 -0.557735,-0.242349 -0.195872,-0.245669 -0.195872,-0.667291 0,-0.414981 0.195872,-0.66397 0.199191,-0.248989 0.561055,-0.248989 z m 0,0.229069 q -0.22907,0 -0.341945,0.169313 -0.112875,0.169313 -0.112875,0.514577 0,0.345265 0.109555,0.514578 0.112875,0.165993 0.341945,0.165993 0.22907,0 0.338625,-0.165993 0.112875,-0.169313 0.112875,-0.517897 0,-0.345265 -0.112875,-0.511258 -0.109555,-0.169313 -0.335305,-0.169313 z"
     style="font-style:normal;font-variant:normal;font-weight:normal;font-stretch:normal;font-size:3.31985426px;line-height:0;font-family:'Fira Code';-inkscape-font-specification:'Fira Code';fill:#9e9e9e;stroke-width:1"
     id="path2027"
     inkscape:connector-curvature="0" /><path
     d="m 25.692126,47.026952 q 0.248989,0 0.474739,0.09296 l -0.08964,0.209151 q -0.165993,-0.07304 -0.375144,-0.07304 -0.365183,0 -0.365183,0.288828 v 0.355224 h 0.590934 l -0.02988,0.22243 h -0.561055 v 1.391019 h -0.282188 v -1.391019 h -0.414982 v -0.22243 h 0.414982 V 47.55149 q 0,-0.235709 0.179272,-0.378463 0.182592,-0.146074 0.45814,-0.146074 z"
     style="font-style:normal;font-variant:normal;font-weight:normal;font-stretch:normal;font-size:3.31985426px;line-height:0;font-family:'Fira Code';-inkscape-font-specification:'Fira Code';fill:#9e9e9e;stroke-width:1"
     id="path2029"
     inkscape:connector-curvature="0" /><path
     d="m 8.6405771,51.005327 q 0.3983825,0 0.6847199,0.10582 0.2863374,0.0996 0.5602253,0.311236 l -0.3050116,0.35481 q -0.3797083,-0.317461 -0.9025853,-0.317461 -0.5788995,0 -0.9461583,0.423281 -0.3610342,0.417057 -0.3610342,1.332091 0,0.90881 0.3548094,1.332092 0.3548094,0.423281 0.9461584,0.423281 0.3236858,0 0.5540007,-0.09337 0.2303148,-0.09337 0.4419555,-0.261438 l 0.2801127,0.348584 q -0.4793039,0.466855 -1.2822936,0.466855 -0.5291017,0 -0.9523831,-0.255214 -0.4232814,-0.261439 -0.6660457,-0.759418 -0.2427643,-0.497978 -0.2427643,-1.201372 0,-0.697169 0.2427643,-1.195147 0.248989,-0.504203 0.6660457,-0.759417 0.4232814,-0.255213 0.9274842,-0.255213 z"
     style="font-style:normal;font-variant:normal;font-weight:normal;font-stretch:normal;line-height:0;font-family:'Fira Code';-inkscape-font-specification:'Fira Code';fill:#a5d6a7;stroke-width:1"
     id="path2031"
     inkscape:connector-curvature="0" /><path
     d="m 12.983004,52.013732 q 0.199192,0 0.46063,0.06847 l -0.0747,1.114226 h -0.423282 v -0.703394 h -0.03112 q -0.759417,0 -1.076878,1.083102 v 1.38189 H 12.5037 v 0.404607 h -1.705575 v -0.404607 h 0.516652 v -2.471215 h -0.516651 v -0.404607 h 0.90881 l 0.09959,0.778091 q 0.199191,-0.423281 0.473079,-0.634922 0.280113,-0.211641 0.703394,-0.211641 z"
     style="font-style:normal;font-variant:normal;font-weight:normal;font-stretch:normal;line-height:0;font-family:'Fira Code';-inkscape-font-specification:'Fira Code';fill:#a5d6a7;stroke-width:1"
     id="path2033"
     inkscape:connector-curvature="0" /><path
     d="m 15.750576,52.013732 q 0.678495,0 1.039529,0.46063 0.367259,0.454405 0.367259,1.244945 0,0.771866 -0.373483,1.244945 -0.367259,0.466855 -1.03953,0.466855 -0.678495,0 -1.045754,-0.454405 -0.367258,-0.46063 -0.367258,-1.25117 0,-0.778091 0.367258,-1.244945 0.373484,-0.466855 1.051979,-0.466855 z m 0,0.429506 q -0.429506,0 -0.641147,0.317461 -0.21164,0.317461 -0.21164,0.964833 0,0.647371 0.205416,0.964832 0.21164,0.311237 0.641146,0.311237 0.429507,0 0.634923,-0.311237 0.21164,-0.317461 0.21164,-0.971057 0,-0.647371 -0.21164,-0.958608 -0.205416,-0.317461 -0.628698,-0.317461 z"
     style="font-style:normal;font-variant:normal;font-weight:normal;font-stretch:normal;line-height:0;font-family:'Fira Code';-inkscape-font-specification:'Fira Code';fill:#a5d6a7;stroke-width:1"
     id="path2035"
     inkscape:connector-curvature="0" /><path
     d="M 20.665678,55.362635 H 19.924935 L 19.495429,52.959891 19.0348,55.362635 h -0.722069 l -0.591349,-3.280431 h 0.529102 l 0.423282,2.956745 0.522877,-2.539688 h 0.616247 l 0.491754,2.539688 0.423281,-2.956745 h 0.504203 z"
     style="font-style:normal;font-variant:normal;font-weight:normal;font-stretch:normal;line-height:0;font-family:'Fira Code';-inkscape-font-specification:'Fira Code';fill:#a5d6a7;stroke-width:1"
     id="path2037"
     inkscape:connector-curvature="0" /><path
     d="m 24.454105,50.762562 v 4.600073 h -0.46063 l -0.0498,-0.429506 q -0.180517,0.248989 -0.417057,0.373483 -0.23654,0.124495 -0.510428,0.124495 -0.622472,0 -0.939933,-0.454405 -0.311237,-0.454405 -0.311237,-1.25117 0,-0.491754 0.155619,-0.877687 0.155618,-0.392157 0.441955,-0.610023 0.292562,-0.22409 0.68472,-0.22409 0.541551,0 0.883911,0.392158 v -1.705575 z m -1.269844,1.674452 q -0.410832,0 -0.634922,0.323685 -0.217865,0.323686 -0.217865,0.964833 0,0.634922 0.199191,0.964832 0.205416,0.323686 0.591349,0.323686 0.466854,0 0.809214,-0.522877 v -1.630878 q -0.136944,-0.205416 -0.32991,-0.311236 -0.192967,-0.112045 -0.417057,-0.112045 z"
     style="font-style:normal;font-variant:normal;font-weight:normal;font-stretch:normal;line-height:0;font-family:'Fira Code';-inkscape-font-specification:'Fira Code';fill:#a5d6a7;stroke-width:1"
     id="path2039"
     inkscape:connector-curvature="0" /><path
     d="m 26.47471,51.521979 v 1.500159 h 1.680676 v 0.435731 H 26.47471 v 1.904766 h -0.541551 v -4.288836 h 2.527239 l -0.06225,0.44818 z"
     style="font-style:normal;font-variant:normal;font-weight:normal;font-stretch:normal;line-height:0;font-family:'Fira Code';-inkscape-font-specification:'Fira Code';fill:#a5d6a7;stroke-width:1"
     id="path2041"
     inkscape:connector-curvature="0" /><path
     d="m 29.951899,54.410252 q 0,0.317461 0.130719,0.466854 0.136944,0.143169 0.423282,0.143169 0.261438,0 0.504203,-0.149394 0.242764,-0.149393 0.385933,-0.373483 v -2.415194 h 0.522877 v 3.280431 h -0.448181 l -0.04357,-0.441956 q -0.192966,0.242765 -0.479304,0.379709 -0.280112,0.130719 -0.572674,0.130719 -0.466855,0 -0.709619,-0.248989 -0.23654,-0.248989 -0.23654,-0.715844 v -2.38407 h 0.522877 z"
     style="font-style:normal;font-variant:normal;font-weight:normal;font-stretch:normal;line-height:0;font-family:'Fira Code';-inkscape-font-specification:'Fira Code';fill:#a5d6a7;stroke-width:1"
     id="path2043"
     inkscape:connector-curvature="0" /><path
     d="m 33.161427,52.082204 h 0.44818 l 0.04357,0.46063 q 0.192967,-0.248989 0.485529,-0.385933 0.298787,-0.143169 0.597574,-0.143169 0.921259,0 0.921259,0.971057 v 2.377846 h -0.522877 v -1.991913 q 0,-0.367258 -0.04357,-0.560225 -0.03735,-0.192966 -0.155618,-0.286337 -0.11827,-0.09337 -0.361034,-0.09337 -0.267664,0 -0.504203,0.161843 -0.23654,0.161843 -0.385933,0.385933 v 2.38407 h -0.522877 z"
     style="font-style:normal;font-variant:normal;font-weight:normal;font-stretch:normal;line-height:0;font-family:'Fira Code';-inkscape-font-specification:'Fira Code';fill:#a5d6a7;stroke-width:1"
     id="path2045"
     inkscape:connector-curvature="0" /><path
     d="m 39.383722,50.762562 v 4.600073 h -0.46063 l -0.0498,-0.429506 q -0.180518,0.248989 -0.417057,0.373483 -0.23654,0.124495 -0.510428,0.124495 -0.622472,0 -0.939933,-0.454405 -0.311237,-0.454405 -0.311237,-1.25117 0,-0.491754 0.155619,-0.877687 0.155618,-0.392157 0.441955,-0.610023 0.292562,-0.22409 0.68472,-0.22409 0.541551,0 0.883911,0.392158 v -1.705575 z m -1.269844,1.674452 q -0.410832,0 -0.634922,0.323685 -0.217866,0.323686 -0.217866,0.964833 0,0.634922 0.199192,0.964832 0.205416,0.323686 0.591349,0.323686 0.466854,0 0.809214,-0.522877 v -1.630878 q -0.136944,-0.205416 -0.32991,-0.311236 -0.192967,-0.112045 -0.417057,-0.112045 z"
     style="font-style:normal;font-variant:normal;font-weight:normal;font-stretch:normal;line-height:0;font-family:'Fira Code';-inkscape-font-specification:'Fira Code';fill:#a5d6a7;stroke-width:1"
     id="path2047"
     inkscape:connector-curvature="0" /><path
     d="m 41.87118,50.550921 q 0.174292,0 0.280112,0.105821 0.105821,0.0996 0.105821,0.261438 0,0.161843 -0.105821,0.267664 -0.10582,0.0996 -0.280112,0.0996 -0.168068,0 -0.273888,-0.0996 -0.0996,-0.105821 -0.0996,-0.267664 0,-0.161843 0.0996,-0.261438 0.10582,-0.105821 0.273888,-0.105821 z m 0.417056,1.531283 v 2.863374 h 0.92126 v 0.417057 h -2.452542 v -0.417057 h 1.008405 v -2.446317 h -0.977282 v -0.417057 z"
     style="font-style:normal;font-variant:normal;font-weight:normal;font-stretch:normal;line-height:0;font-family:'Fira Code';-inkscape-font-specification:'Fira Code';fill:#a5d6a7;stroke-width:1"
     id="path2049"
     inkscape:connector-curvature="0" /><path
     d="m 44.358641,52.082204 h 0.44818 l 0.04357,0.46063 q 0.192967,-0.248989 0.485529,-0.385933 0.298787,-0.143169 0.597574,-0.143169 0.921259,0 0.921259,0.971057 v 2.377846 h -0.522877 v -1.991913 q 0,-0.367258 -0.04357,-0.560225 -0.03735,-0.192966 -0.155618,-0.286337 -0.11827,-0.09337 -0.361034,-0.09337 -0.267663,0 -0.504203,0.161843 -0.23654,0.161843 -0.385933,0.385933 v 2.38407 h -0.522877 z"
     style="font-style:normal;font-variant:normal;font-weight:normal;font-stretch:normal;line-height:0;font-family:'Fira Code';-inkscape-font-specification:'Fira Code';fill:#a5d6a7;stroke-width:1"
     id="path2051"
     inkscape:connector-curvature="0" /><path
     d="m 50.91707,52.231598 q -0.186742,0.06225 -0.404608,0.08092 -0.217865,0.01245 -0.554,0.01245 0.572674,0.261439 0.572674,0.827889 0,0.497978 -0.32991,0.809214 -0.329911,0.305012 -0.902585,0.305012 -0.292562,0 -0.491754,-0.06847 -0.0747,0.05602 -0.124494,0.143169 -0.04357,0.08715 -0.04357,0.174292 0,0.280113 0.435731,0.280113 H 49.6659 q 0.323685,0 0.585124,0.11827 0.267663,0.112045 0.417056,0.317461 0.155619,0.205416 0.155619,0.454405 0,0.479304 -0.410832,0.734517 -0.404608,0.261439 -1.151575,0.261439 -0.759416,0 -1.070653,-0.23654 -0.311236,-0.236539 -0.311236,-0.753192 h 0.473079 q 0,0.205416 0.0747,0.323686 0.08092,0.124495 0.273888,0.180517 0.199191,0.06225 0.560225,0.06225 0.529102,0 0.778091,-0.136944 0.255214,-0.136944 0.255214,-0.404607 0,-0.22409 -0.205416,-0.348584 -0.205416,-0.11827 -0.529102,-0.11827 h -0.585124 q -0.404607,0 -0.616248,-0.174293 -0.211641,-0.180517 -0.211641,-0.44818 0,-0.155618 0.09337,-0.305011 0.09337,-0.155619 0.267663,-0.267664 -0.280112,-0.143168 -0.417056,-0.361034 -0.130719,-0.22409 -0.130719,-0.541551 0,-0.32991 0.161842,-0.585124 0.168068,-0.261439 0.46063,-0.404607 0.298787,-0.149394 0.68472,-0.149394 0.560225,0 0.852788,-0.06225 0.292562,-0.06225 0.641146,-0.211641 z m -1.655778,0.168067 q -0.379708,0 -0.572674,0.205416 -0.192967,0.199191 -0.192967,0.547776 0,0.348585 0.192967,0.560225 0.199191,0.205416 0.585124,0.205416 0.348584,0 0.529102,-0.199191 0.186741,-0.205416 0.186741,-0.572675 0,-0.746967 -0.728293,-0.746967 z"
     style="font-style:normal;font-variant:normal;font-weight:normal;font-stretch:normal;line-height:0;font-family:'Fira Code';-inkscape-font-specification:'Fira Code';fill:#a5d6a7;stroke-width:1"
     id="path2053"
     inkscape:connector-curvature="0" /></g><g
   aria-label="value of
deposit[CrowdFundingExploit]"
   transform="matrix(0.96589792,0,0,1.0353061,4,0)"
   style="font-style:normal;font-weight:normal;font-size:6.2247262px;line-height:1.25;font-family:sans-serif;letter-spacing:0px;word-spacing:0px;fill:#000000;fill-opacity:1;stroke:none;stroke-width:1"
   id="text1981"><path
     d="m 8.2048464,79.911211 -0.637412,1.749563 H 7.2454085 L 6.6113164,79.911211 h 0.2987868 l 0.5046179,1.497254 0.4979781,-1.497254 z"
     style="font-style:normal;font-variant:normal;font-weight:normal;font-stretch:normal;font-size:3.31985426px;line-height:0;font-family:'Fira Code';-inkscape-font-specification:'Fira Code';fill:#9e9e9e;stroke-width:1"
     id="path2113"
     inkscape:connector-curvature="0" /><path
     d="m 9.9896312,81.278991 q 0,0.102915 0.033199,0.152713 0.0332,0.04648 0.109555,0.06972 l -0.06972,0.199191 q -0.255628,-0.0332 -0.3187052,-0.248989 -0.092956,0.119515 -0.2357097,0.182592 -0.1394339,0.06308 -0.3120663,0.06308 -0.2622685,0 -0.4149818,-0.146074 -0.149394,-0.146074 -0.149394,-0.391743 0,-0.268908 0.2091508,-0.414982 0.2124707,-0.146073 0.6075333,-0.146073 h 0.2589487 v -0.142754 q 0,-0.185912 -0.1062354,-0.265588 -0.1062353,-0.083 -0.3087464,-0.083 -0.1991913,0 -0.4548201,0.08964 l -0.076357,-0.212471 q 0.3087464,-0.109555 0.5743348,-0.109555 0.318706,0 0.4846987,0.149393 0.1693126,0.149394 0.1693126,0.414982 z m -0.7237283,0.209151 q 0.1294744,0 0.2456693,-0.0664 0.1195147,-0.0664 0.1958714,-0.182592 v -0.448181 h -0.252309 q -0.2788677,0 -0.4017023,0.09296 -0.1228346,0.09296 -0.1228346,0.272228 0,0.331986 0.3353052,0.331985 z"
     style="font-style:normal;font-variant:normal;font-weight:normal;font-stretch:normal;font-size:3.31985426px;line-height:0;font-family:'Fira Code';-inkscape-font-specification:'Fira Code';fill:#9e9e9e;stroke-width:1"
     id="path2115"
     inkscape:connector-curvature="0" /><path
     d="m 11.409232,81.229193 q 0,0.23571 0.288827,0.23571 0.136114,0 0.292147,-0.05976 l 0.07304,0.202512 q -0.165992,0.08964 -0.414982,0.08964 -0.235709,0 -0.378463,-0.129475 -0.139434,-0.129474 -0.139434,-0.351904 v -1.786082 h -0.537816 v -0.22243 h 0.816684 z"
     style="font-style:normal;font-variant:normal;font-weight:normal;font-stretch:normal;font-size:3.31985426px;line-height:0;font-family:'Fira Code';-inkscape-font-specification:'Fira Code';fill:#9e9e9e;stroke-width:1"
     id="path2117"
     inkscape:connector-curvature="0" /><path
     d="m 12.994825,81.152837 q 0,0.169312 0.06972,0.248989 0.07304,0.07636 0.22575,0.07636 0.139434,0 0.268909,-0.07968 0.129474,-0.07968 0.205831,-0.199192 v -1.288103 h 0.278867 v 1.749563 H 13.80487 l -0.02324,-0.235709 q -0.102916,0.129474 -0.255629,0.202511 -0.149393,0.06972 -0.305427,0.06972 -0.248989,0 -0.378463,-0.132795 -0.126154,-0.132794 -0.126154,-0.381783 v -1.271504 h 0.278867 z"
     style="font-style:normal;font-variant:normal;font-weight:normal;font-stretch:normal;font-size:3.31985426px;line-height:0;font-family:'Fira Code';-inkscape-font-specification:'Fira Code';fill:#9e9e9e;stroke-width:1"
     id="path2119"
     inkscape:connector-curvature="0" /><path
     d="m 14.929004,80.883928 q 0.01,0.288828 0.149393,0.434901 0.142754,0.146074 0.358544,0.146074 0.129475,0 0.23571,-0.03652 0.109555,-0.03984 0.23239,-0.119514 l 0.129474,0.185912 q -0.122834,0.09628 -0.282187,0.149393 -0.156034,0.05312 -0.315387,0.05312 -0.378463,0 -0.590934,-0.24567 -0.209151,-0.248989 -0.209151,-0.66397 0,-0.262269 0.09296,-0.4681 0.09296,-0.209151 0.265589,-0.325346 0.172632,-0.119514 0.401702,-0.119514 0.331986,0 0.521217,0.232389 0.192552,0.22907 0.192552,0.627453 0,0.07636 -0.0066,0.149393 z m 0.471419,-0.780165 q -0.202511,0 -0.328666,0.146073 -0.126154,0.142754 -0.142753,0.421622 h 0.90964 q -0.0033,-0.275548 -0.119515,-0.421622 -0.116195,-0.146073 -0.318706,-0.146073 z"
     style="font-style:normal;font-variant:normal;font-weight:normal;font-stretch:normal;font-size:3.31985426px;line-height:0;font-family:'Fira Code';-inkscape-font-specification:'Fira Code';fill:#9e9e9e;stroke-width:1"
     id="path2121"
     inkscape:connector-curvature="0" /><path
     d="m 19.355095,79.874693 q 0.361864,0 0.554416,0.245669 0.195871,0.242349 0.195871,0.663971 0,0.411662 -0.199191,0.663971 -0.195871,0.248989 -0.554415,0.248989 -0.361865,0 -0.557736,-0.24235 -0.195871,-0.245669 -0.195871,-0.66729 0,-0.414982 0.195871,-0.663971 0.199191,-0.248989 0.561055,-0.248989 z m 0,0.22907 q -0.22907,0 -0.341945,0.169312 -0.112875,0.169313 -0.112875,0.514578 0,0.345264 0.109556,0.514577 0.112875,0.165993 0.341945,0.165993 0.229069,0 0.338625,-0.165993 0.112875,-0.169313 0.112875,-0.517897 0,-0.345265 -0.112875,-0.511258 -0.109556,-0.169312 -0.335306,-0.169312 z"
     style="font-style:normal;font-variant:normal;font-weight:normal;font-stretch:normal;font-size:3.31985426px;line-height:0;font-family:'Fira Code';-inkscape-font-specification:'Fira Code';fill:#9e9e9e;stroke-width:1"
     id="path2123"
     inkscape:connector-curvature="0" /><path
     d="m 21.710895,79.174203 q 0.248989,0 0.474739,0.09296 l -0.08964,0.209151 q -0.165992,-0.07304 -0.375143,-0.07304 -0.365184,0 -0.365184,0.288828 v 0.355224 h 0.590934 l -0.02988,0.22243 h -0.561055 v 1.391019 h -0.282188 v -1.391019 h -0.414982 v -0.22243 h 0.414982 V 79.69874 q 0,-0.235709 0.179272,-0.378463 0.182592,-0.146074 0.45814,-0.146074 z"
     style="font-style:normal;font-variant:normal;font-weight:normal;font-stretch:normal;font-size:3.31985426px;line-height:0;font-family:'Fira Code';-inkscape-font-specification:'Fira Code';fill:#9e9e9e;stroke-width:1"
     id="path2125"
     inkscape:connector-curvature="0" /><path
     d="m 9.5244882,82.909813 v 4.600073 H 9.0638585 L 9.0140605,87.08038 q -0.1805171,0.248989 -0.4170567,0.373483 -0.2365396,0.124495 -0.5104275,0.124495 -0.6224727,0 -0.9399337,-0.454405 -0.3112363,-0.454405 -0.3112363,-1.25117 0,-0.491753 0.1556181,-0.877686 0.1556182,-0.392158 0.4419556,-0.610024 0.2925621,-0.22409 0.6847199,-0.22409 0.5415512,0 0.8839111,0.392158 v -1.705575 z m -1.2698441,1.674452 q -0.410832,0 -0.6349221,0.323685 -0.2178654,0.323686 -0.2178654,0.964833 0,0.634922 0.1991912,0.964833 0.205416,0.323685 0.591349,0.323685 0.4668545,0 0.8092144,-0.522877 V 85.007546 Q 8.8646672,84.80213 8.6717007,84.69631 8.4787342,84.584265 8.2546441,84.584265 Z"
     style="font-style:normal;font-variant:normal;font-weight:normal;font-stretch:normal;line-height:0;font-family:'Fira Code';-inkscape-font-specification:'Fira Code';fill:#ffffff;stroke-width:1"
     id="path2127"
     inkscape:connector-curvature="0" /><path
     d="m 11.184059,86.0533 q 0.01867,0.541551 0.280112,0.815439 0.267664,0.273888 0.672271,0.273888 0.242764,0 0.441955,-0.06847 0.205416,-0.0747 0.435731,-0.22409 l 0.242764,0.348585 q -0.230314,0.180517 -0.529101,0.280112 -0.292562,0.0996 -0.591349,0.0996 -0.709619,0 -1.108002,-0.46063 -0.392157,-0.466854 -0.392157,-1.244945 0,-0.491753 0.174292,-0.877686 0.174292,-0.392158 0.497978,-0.610024 0.323686,-0.22409 0.753192,-0.22409 0.622473,0 0.977282,0.435731 0.361034,0.429506 0.361034,1.176473 0,0.143169 -0.01245,0.280113 z m 0.883911,-1.462811 q -0.379709,0 -0.616248,0.273888 -0.23654,0.267664 -0.267663,0.790541 h 1.705575 q -0.0062,-0.516653 -0.224091,-0.790541 -0.217865,-0.273888 -0.597573,-0.273888 z"
     style="font-style:normal;font-variant:normal;font-weight:normal;font-stretch:normal;line-height:0;font-family:'Fira Code';-inkscape-font-specification:'Fira Code';fill:#ffffff;stroke-width:1"
     id="path2129"
     inkscape:connector-curvature="0" /><path
     d="m 15.968442,84.160983 q 1.188922,0 1.188922,1.705575 0,0.778091 -0.323685,1.244946 -0.323686,0.466854 -0.939934,0.466854 -0.535327,0 -0.871462,-0.373484 v 1.562407 l -0.522877,0.06225 v -4.600073 h 0.44818 l 0.04357,0.46063 q 0.180517,-0.255214 0.429506,-0.392158 0.255213,-0.136944 0.547776,-0.136944 z m -0.124495,0.423282 q -0.248989,0 -0.46063,0.149393 -0.205416,0.149394 -0.361034,0.373484 v 1.624653 q 0.130719,0.192967 0.323686,0.305012 0.199191,0.10582 0.429506,0.10582 0.410832,0 0.610023,-0.311236 0.205416,-0.317461 0.205416,-0.964833 0,-0.647371 -0.180517,-0.964832 -0.180517,-0.317461 -0.56645,-0.317461 z"
     style="font-style:normal;font-variant:normal;font-weight:normal;font-stretch:normal;line-height:0;font-family:'Fira Code';-inkscape-font-specification:'Fira Code';fill:#ffffff;stroke-width:1"
     id="path2131"
     inkscape:connector-curvature="0" /><path
     d="m 19.48298,84.160983 q 0.678495,0 1.039529,0.46063 0.367259,0.454405 0.367259,1.244945 0,0.771866 -0.373484,1.244946 -0.367258,0.466854 -1.039529,0.466854 -0.678495,0 -1.045754,-0.454405 -0.367259,-0.46063 -0.367259,-1.25117 0,-0.778091 0.367259,-1.244945 0.373484,-0.466855 1.051979,-0.466855 z m 0,0.429506 q -0.429506,0 -0.641147,0.317461 -0.211641,0.317461 -0.211641,0.964833 0,0.647372 0.205416,0.964833 0.211641,0.311236 0.641147,0.311236 0.429506,0 0.634922,-0.311236 0.211641,-0.317461 0.211641,-0.971058 0,-0.647371 -0.211641,-0.958608 -0.205416,-0.317461 -0.628697,-0.317461 z"
     style="font-style:normal;font-variant:normal;font-weight:normal;font-stretch:normal;line-height:0;font-family:'Fira Code';-inkscape-font-specification:'Fira Code';fill:#ffffff;stroke-width:1"
     id="path2133"
     inkscape:connector-curvature="0" /><path
     d="m 23.084665,87.148852 q 0.373484,0 0.591349,-0.143169 0.217866,-0.143169 0.217866,-0.379708 0,-0.161843 -0.05602,-0.261439 -0.05602,-0.10582 -0.22409,-0.186741 -0.168068,-0.08715 -0.510427,-0.174293 -0.572675,-0.143168 -0.846563,-0.34236 -0.273888,-0.205416 -0.273888,-0.603798 0,-0.410832 0.34236,-0.653596 0.34236,-0.242765 0.902585,-0.242765 0.68472,0 1.195148,0.361034 l -0.23654,0.361035 q -0.205416,-0.143169 -0.429506,-0.217866 -0.22409,-0.08092 -0.516652,-0.08092 -0.709619,0 -0.709619,0.429506 0,0.149393 0.0747,0.242764 0.08092,0.09337 0.255214,0.168068 0.180517,0.06847 0.535327,0.168067 0.535326,0.143169 0.796765,0.367259 0.267663,0.217866 0.267663,0.641147 0,0.491753 -0.398383,0.734518 -0.398382,0.242764 -0.977282,0.242764 -0.771866,0 -1.282293,-0.441956 l 0.292562,-0.34236 q 0.199191,0.161843 0.454405,0.261439 0.255214,0.09337 0.535326,0.09337 z"
     style="font-style:normal;font-variant:normal;font-weight:normal;font-stretch:normal;line-height:0;font-family:'Fira Code';-inkscape-font-specification:'Fira Code';fill:#ffffff;stroke-width:1"
     id="path2135"
     inkscape:connector-curvature="0" /><path
     d="m 26.941565,82.698173 q 0.174292,0 0.280112,0.10582 0.105821,0.0996 0.105821,0.261438 0,0.161843 -0.105821,0.267664 -0.10582,0.09959 -0.280112,0.09959 -0.168068,0 -0.273888,-0.09959 -0.0996,-0.105821 -0.0996,-0.267664 0,-0.161842 0.0996,-0.261438 0.10582,-0.10582 0.273888,-0.10582 z m 0.417056,1.531282 v 2.863374 h 0.92126 v 0.417057 h -2.452542 v -0.417057 h 1.008405 v -2.446317 h -0.977282 v -0.417057 z"
     style="font-style:normal;font-variant:normal;font-weight:normal;font-stretch:normal;line-height:0;font-family:'Fira Code';-inkscape-font-specification:'Fira Code';fill:#ffffff;stroke-width:1"
     id="path2137"
     inkscape:connector-curvature="0" /><path
     d="m 32.037182,87.341818 q -0.168067,0.112045 -0.410831,0.174293 -0.23654,0.06225 -0.47308,0.06225 -0.516652,0 -0.809214,-0.267663 -0.292562,-0.273888 -0.292562,-0.715844 V 84.64029 h -0.753192 v -0.410832 h 0.753192 v -0.740742 l 0.522877,-0.06225 v 0.802989 h 1.139125 l -0.06847,0.410832 h -1.070653 v 1.94834 q 0,0.280112 0.149393,0.417056 0.149394,0.136944 0.479304,0.136944 0.336135,0 0.628697,-0.155618 z"
     style="font-style:normal;font-variant:normal;font-weight:normal;font-stretch:normal;line-height:0;font-family:'Fira Code';-inkscape-font-specification:'Fira Code';fill:#ffffff;stroke-width:1"
     id="path2139"
     inkscape:connector-curvature="0" /><path
     d="m 33.684304,88.225729 v -5.788995 h 1.562406 v 0.44818 h -1.064428 v 4.89886 h 1.064428 v 0.441955 z"
     style="font-style:normal;font-variant:normal;font-weight:normal;font-stretch:normal;line-height:0;font-family:'Fira Code';-inkscape-font-specification:'Fira Code';fill:#ffffff;stroke-width:1"
     id="path2141"
     inkscape:connector-curvature="0" /><path
     d="m 38.572757,83.152578 q 0.398383,0 0.68472,0.10582 0.286338,0.0996 0.560226,0.311236 l -0.305012,0.35481 q -0.379708,-0.317461 -0.902585,-0.317461 -0.5789,0 -0.946159,0.423281 -0.361034,0.417057 -0.361034,1.332091 0,0.90881 0.35481,1.332092 0.354809,0.423281 0.946158,0.423281 0.323686,0 0.554001,-0.09337 0.230315,-0.09337 0.441955,-0.261438 l 0.280113,0.348584 q -0.479304,0.466854 -1.282294,0.466854 -0.529101,0 -0.952383,-0.255214 -0.423281,-0.261438 -0.666045,-0.759416 -0.242765,-0.497978 -0.242765,-1.201373 0,-0.697169 0.242765,-1.195147 0.248989,-0.504203 0.666045,-0.759417 0.423282,-0.255213 0.927484,-0.255213 z"
     style="font-style:normal;font-variant:normal;font-weight:normal;font-stretch:normal;line-height:0;font-family:'Fira Code';-inkscape-font-specification:'Fira Code';fill:#ffffff;stroke-width:1"
     id="path2143"
     inkscape:connector-curvature="0" /><path
     d="m 42.915185,84.160983 q 0.199192,0 0.46063,0.06847 l -0.0747,1.114226 h -0.423281 v -0.703394 h -0.03112 q -0.759416,0 -1.076877,1.083103 v 1.381889 h 0.666045 v 0.404607 H 40.730307 V 87.105277 H 41.24696 V 84.63406 h -0.516653 v -0.404607 h 0.908811 l 0.0996,0.778091 q 0.199191,-0.423281 0.473079,-0.634922 0.280113,-0.211641 0.703394,-0.211641 z"
     style="font-style:normal;font-variant:normal;font-weight:normal;font-stretch:normal;line-height:0;font-family:'Fira Code';-inkscape-font-specification:'Fira Code';fill:#ffffff;stroke-width:1"
     id="path2145"
     inkscape:connector-curvature="0" /><path
     d="m 45.682756,84.160983 q 0.678495,0 1.039529,0.46063 0.367259,0.454405 0.367259,1.244945 0,0.771866 -0.373484,1.244946 -0.367259,0.466854 -1.039529,0.466854 -0.678495,0 -1.045754,-0.454405 -0.367259,-0.46063 -0.367259,-1.25117 0,-0.778091 0.367259,-1.244945 0.373483,-0.466855 1.051979,-0.466855 z m 0,0.429506 q -0.429506,0 -0.641147,0.317461 -0.211641,0.317461 -0.211641,0.964833 0,0.647372 0.205416,0.964833 0.211641,0.311236 0.641147,0.311236 0.429506,0 0.634922,-0.311236 0.211641,-0.317461 0.211641,-0.971058 0,-0.647371 -0.211641,-0.958608 -0.205416,-0.317461 -0.628697,-0.317461 z"
     style="font-style:normal;font-variant:normal;font-weight:normal;font-stretch:normal;line-height:0;font-family:'Fira Code';-inkscape-font-specification:'Fira Code';fill:#ffffff;stroke-width:1"
     id="path2147"
     inkscape:connector-curvature="0" /><path
     d="m 50.59786,87.509886 h -0.740742 l -0.429506,-2.402744 -0.46063,2.402744 h -0.722068 l -0.591349,-3.280431 h 0.529101 l 0.423282,2.956745 0.522877,-2.539688 h 0.616248 l 0.491753,2.539688 0.423281,-2.956745 h 0.504203 z"
     style="font-style:normal;font-variant:normal;font-weight:normal;font-stretch:normal;line-height:0;font-family:'Fira Code';-inkscape-font-specification:'Fira Code';fill:#ffffff;stroke-width:1"
     id="path2149"
     inkscape:connector-curvature="0" /><path
     d="m 54.386286,82.909813 v 4.600073 h -0.46063 l -0.0498,-0.429506 q -0.180517,0.248989 -0.417057,0.373483 -0.236539,0.124495 -0.510427,0.124495 -0.622473,0 -0.939934,-0.454405 -0.311236,-0.454405 -0.311236,-1.25117 0,-0.491753 0.155618,-0.877686 0.155618,-0.392158 0.441956,-0.610024 0.292562,-0.22409 0.684719,-0.22409 0.541552,0 0.883912,0.392158 v -1.705575 z m -1.269845,1.674452 q -0.410832,0 -0.634922,0.323685 -0.217865,0.323686 -0.217865,0.964833 0,0.634922 0.199191,0.964833 0.205416,0.323685 0.591349,0.323685 0.466855,0 0.809215,-0.522877 V 85.007546 Q 53.726465,84.80213 53.533498,84.69631 53.340532,84.584265 53.116441,84.584265 Z"
     style="font-style:normal;font-variant:normal;font-weight:normal;font-stretch:normal;line-height:0;font-family:'Fira Code';-inkscape-font-specification:'Fira Code';fill:#ffffff;stroke-width:1"
     id="path2151"
     inkscape:connector-curvature="0" /><path
     d="m 56.406889,83.66923 v 1.500159 h 1.680676 v 0.435731 h -1.680676 v 1.904766 H 55.865337 V 83.22105 h 2.527239 l -0.06225,0.44818 z"
     style="font-style:normal;font-variant:normal;font-weight:normal;font-stretch:normal;line-height:0;font-family:'Fira Code';-inkscape-font-specification:'Fira Code';fill:#ffffff;stroke-width:1"
     id="path2153"
     inkscape:connector-curvature="0" /><path
     d="m 59.884081,86.557503 q 0,0.317461 0.13072,0.466854 0.136944,0.143169 0.423281,0.143169 0.261439,0 0.504203,-0.149393 0.242764,-0.149394 0.385933,-0.373484 v -2.415194 h 0.522877 v 3.280431 h -0.44818 l -0.04357,-0.441956 q -0.192967,0.242765 -0.479304,0.379709 -0.280113,0.130719 -0.572675,0.130719 -0.466855,0 -0.709619,-0.248989 -0.23654,-0.248989 -0.23654,-0.715844 v -2.38407 h 0.522877 z"
     style="font-style:normal;font-variant:normal;font-weight:normal;font-stretch:normal;line-height:0;font-family:'Fira Code';-inkscape-font-specification:'Fira Code';fill:#ffffff;stroke-width:1"
     id="path2155"
     inkscape:connector-curvature="0" /><path
     d="m 63.093607,84.229455 h 0.448181 l 0.04357,0.46063 q 0.192966,-0.248989 0.485528,-0.385933 0.298787,-0.143169 0.597574,-0.143169 0.921259,0 0.921259,0.971058 v 2.377845 h -0.522874 v -1.991912 q 0,-0.367259 -0.04357,-0.560226 -0.03735,-0.192966 -0.155618,-0.286337 -0.11827,-0.09337 -0.361034,-0.09337 -0.267663,0 -0.504203,0.161843 -0.236539,0.161843 -0.385933,0.385933 v 2.38407 H 63.09361 Z"
     style="font-style:normal;font-variant:normal;font-weight:normal;font-stretch:normal;line-height:0;font-family:'Fira Code';-inkscape-font-specification:'Fira Code';fill:#ffffff;stroke-width:1"
     id="path2157"
     inkscape:connector-curvature="0" /><path
     d="m 69.315901,82.909813 v 4.600073 h -0.46063 l -0.0498,-0.429506 q -0.180517,0.248989 -0.417057,0.373483 -0.236539,0.124495 -0.510427,0.124495 -0.622473,0 -0.939934,-0.454405 -0.311236,-0.454405 -0.311236,-1.25117 0,-0.491753 0.155618,-0.877686 0.155618,-0.392158 0.441956,-0.610024 0.292562,-0.22409 0.684719,-0.22409 0.541552,0 0.883912,0.392158 v -1.705575 z m -1.269845,1.674452 q -0.410832,0 -0.634922,0.323685 -0.217865,0.323686 -0.217865,0.964833 0,0.634922 0.199191,0.964833 0.205416,0.323685 0.591349,0.323685 0.466855,0 0.809215,-0.522877 V 85.007546 Q 68.65608,84.80213 68.463113,84.69631 68.270147,84.584265 68.046056,84.584265 Z"
     style="font-style:normal;font-variant:normal;font-weight:normal;font-stretch:normal;line-height:0;font-family:'Fira Code';-inkscape-font-specification:'Fira Code';fill:#ffffff;stroke-width:1"
     id="path2159"
     inkscape:connector-curvature="0" /><path
     d="m 71.803362,82.698173 q 0.174292,0 0.280113,0.10582 0.10582,0.0996 0.10582,0.261438 0,0.161843 -0.10582,0.267664 -0.105821,0.09959 -0.280113,0.09959 -0.168068,0 -0.273888,-0.09959 -0.0996,-0.105821 -0.0996,-0.267664 0,-0.161842 0.0996,-0.261438 0.10582,-0.10582 0.273888,-0.10582 z m 0.417057,1.531282 v 2.863374 h 0.921259 v 0.417057 h -2.452542 v -0.417057 h 1.008406 V 84.646512 H 70.72026 v -0.417057 z"
     style="font-style:normal;font-variant:normal;font-weight:normal;font-stretch:normal;line-height:0;font-family:'Fira Code';-inkscape-font-specification:'Fira Code';fill:#ffffff;stroke-width:1"
     id="path2161"
     inkscape:connector-curvature="0" /><path
     d="m 74.290823,84.229455 h 0.448181 l 0.04357,0.46063 q 0.192966,-0.248989 0.485528,-0.385933 0.298787,-0.143169 0.597574,-0.143169 0.92126,0 0.92126,0.971058 v 2.377845 h -0.522874 v -1.991912 q 0,-0.367259 -0.04357,-0.560226 -0.03735,-0.192966 -0.155618,-0.286337 -0.11827,-0.09337 -0.361034,-0.09337 -0.267663,0 -0.504203,0.161843 -0.236539,0.161843 -0.385933,0.385933 v 2.38407 h -0.522877 z"
     style="font-style:normal;font-variant:normal;font-weight:normal;font-stretch:normal;line-height:0;font-family:'Fira Code';-inkscape-font-specification:'Fira Code';fill:#ffffff;stroke-width:1"
     id="path2163"
     inkscape:connector-curvature="0" /><path
     d="m 80.849248,84.378849 q -0.186742,0.06225 -0.404607,0.08092 -0.217866,0.01245 -0.554001,0.01245 0.572675,0.261438 0.572675,0.827888 0,0.497978 -0.329911,0.809215 -0.32991,0.305011 -0.902585,0.305011 -0.292562,0 -0.491753,-0.06847 -0.0747,0.05602 -0.124495,0.143169 -0.04357,0.08715 -0.04357,0.174292 0,0.280113 0.435731,0.280113 h 0.591349 q 0.323686,0 0.585124,0.11827 0.267664,0.112045 0.417057,0.317461 0.155618,0.205416 0.155618,0.454405 0,0.479304 -0.410832,0.734517 -0.404607,0.261439 -1.151574,0.261439 -0.759417,0 -1.070653,-0.23654 -0.311236,-0.236539 -0.311236,-0.753192 h 0.473079 q 0,0.205416 0.0747,0.323686 0.08092,0.124495 0.273887,0.180517 0.199192,0.06225 0.560226,0.06225 0.529102,0 0.778091,-0.136944 0.255213,-0.136944 0.255213,-0.404608 0,-0.22409 -0.205416,-0.348584 -0.205416,-0.11827 -0.529101,-0.11827 h -0.585125 q -0.404607,0 -0.616247,-0.174292 -0.211641,-0.180517 -0.211641,-0.448181 0,-0.155618 0.09337,-0.305011 0.09337,-0.155618 0.267663,-0.267664 -0.280113,-0.143168 -0.417057,-0.361034 -0.130719,-0.22409 -0.130719,-0.541551 0,-0.32991 0.161843,-0.585124 0.168068,-0.261439 0.46063,-0.404607 0.298787,-0.149394 0.68472,-0.149394 0.560225,0 0.852787,-0.06225 0.292562,-0.06225 0.641147,-0.211641 z m -1.655777,0.168067 q -0.379708,0 -0.572675,0.205416 -0.192966,0.199192 -0.192966,0.547776 0,0.348585 0.192966,0.560226 0.199191,0.205416 0.585124,0.205416 0.348585,0 0.529102,-0.199192 0.186742,-0.205416 0.186742,-0.572675 0,-0.746967 -0.728293,-0.746967 z"
     style="font-style:normal;font-variant:normal;font-weight:normal;font-stretch:normal;line-height:0;font-family:'Fira Code';-inkscape-font-specification:'Fira Code';fill:#ffffff;stroke-width:1"
     id="path2165"
     inkscape:connector-curvature="0" /><path
     d="m 82.452798,83.66923 v 1.444136 h 1.59353 v 0.441956 h -1.59353 v 1.518833 h 1.954564 v 0.435731 h -2.48989 V 83.22105 h 2.433868 l -0.06225,0.44818 z"
     style="font-style:normal;font-variant:normal;font-weight:normal;font-stretch:normal;line-height:0;font-family:'Fira Code';-inkscape-font-specification:'Fira Code';fill:#ffffff;stroke-width:1"
     id="path2167"
     inkscape:connector-curvature="0" /><path
     d="m 85.811721,87.509886 h -0.597573 l 1.207596,-1.730474 -1.064428,-1.549957 h 0.622473 l 0.759417,1.220047 0.765641,-1.220047 h 0.603798 l -1.064428,1.525058 1.207597,1.755373 h -0.634922 l -0.902585,-1.406788 z"
     style="font-style:normal;font-variant:normal;font-weight:normal;font-stretch:normal;line-height:0;font-family:'Fira Code';-inkscape-font-specification:'Fira Code';fill:#ffffff;stroke-width:1"
     id="path2169"
     inkscape:connector-curvature="0" /><path
     d="m 90.68947,84.160983 q 1.188923,0 1.188923,1.705575 0,0.778091 -0.323686,1.244946 -0.323686,0.466854 -0.939934,0.466854 -0.535326,0 -0.871461,-0.373484 v 1.562407 l -0.522877,0.06225 v -4.600073 h 0.44818 l 0.04357,0.46063 q 0.180517,-0.255214 0.429506,-0.392158 0.255214,-0.136944 0.547776,-0.136944 z m -0.124495,0.423282 q -0.248989,0 -0.460629,0.149393 -0.205416,0.149394 -0.361034,0.373484 v 1.624653 q 0.130719,0.192967 0.323685,0.305012 0.199192,0.10582 0.429506,0.10582 0.410832,0 0.610024,-0.311236 0.205416,-0.317461 0.205416,-0.964833 0,-0.647371 -0.180518,-0.964832 -0.180517,-0.317461 -0.56645,-0.317461 z"
     style="font-style:normal;font-variant:normal;font-weight:normal;font-stretch:normal;line-height:0;font-family:'Fira Code';-inkscape-font-specification:'Fira Code';fill:#ffffff;stroke-width:1"
     id="path2171"
     inkscape:connector-curvature="0" /><path
     d="m 94.235135,86.700672 q 0,0.441955 0.541551,0.441955 0.255214,0 0.547776,-0.112045 l 0.136944,0.379708 q -0.311237,0.168068 -0.778091,0.168068 -0.441956,0 -0.709619,-0.242764 -0.261438,-0.242765 -0.261438,-0.659821 V 83.32687 h -1.008406 v -0.417057 h 1.531283 z"
     style="font-style:normal;font-variant:normal;font-weight:normal;font-stretch:normal;line-height:0;font-family:'Fira Code';-inkscape-font-specification:'Fira Code';fill:#ffffff;stroke-width:1"
     id="path2173"
     inkscape:connector-curvature="0" /><path
     d="m 97.936418,84.160983 q 0.678495,0 1.039529,0.46063 0.367259,0.454405 0.367259,1.244945 0,0.771866 -0.373484,1.244946 -0.367259,0.466854 -1.039529,0.466854 -0.678495,0 -1.045754,-0.454405 -0.367259,-0.46063 -0.367259,-1.25117 0,-0.778091 0.367259,-1.244945 0.373484,-0.466855 1.051979,-0.466855 z m 0,0.429506 q -0.429506,0 -0.641147,0.317461 -0.211641,0.317461 -0.211641,0.964833 0,0.647372 0.205416,0.964833 0.211641,0.311236 0.641147,0.311236 0.429506,0 0.634922,-0.311236 0.211641,-0.317461 0.211641,-0.971058 0,-0.647371 -0.211641,-0.958608 -0.205416,-0.317461 -0.628697,-0.317461 z"
     style="font-style:normal;font-variant:normal;font-weight:normal;font-stretch:normal;line-height:0;font-family:'Fira Code';-inkscape-font-specification:'Fira Code';fill:#ffffff;stroke-width:1"
     id="path2175"
     inkscape:connector-curvature="0" /><path
     d="m 101.66259,82.698173 q 0.17429,0 0.28011,0.10582 0.10583,0.0996 0.10583,0.261438 0,0.161843 -0.10583,0.267664 -0.10582,0.09959 -0.28011,0.09959 -0.16807,0 -0.27389,-0.09959 -0.0996,-0.105821 -0.0996,-0.267664 0,-0.161842 0.0996,-0.261438 0.10582,-0.10582 0.27389,-0.10582 z m 0.41706,1.531282 v 2.863374 h 0.92126 v 0.417057 h -2.45254 v -0.417057 h 1.0084 v -2.446317 h -0.97728 v -0.417057 z"
     style="font-style:normal;font-variant:normal;font-weight:normal;font-stretch:normal;line-height:0;font-family:'Fira Code';-inkscape-font-specification:'Fira Code';fill:#ffffff;stroke-width:1"
     id="path2177"
     inkscape:connector-curvature="0" /><path
     d="m 106.75821,87.341818 q -0.16806,0.112045 -0.41083,0.174293 -0.23654,0.06225 -0.47308,0.06225 -0.51665,0 -0.80921,-0.267663 -0.29256,-0.273888 -0.29256,-0.715844 V 84.64029 h -0.7532 v -0.410832 h 0.7532 v -0.740742 l 0.52287,-0.06225 v 0.802989 h 1.13913 l -0.0685,0.410832 h -1.07066 v 1.94834 q 0,0.280112 0.1494,0.417056 0.14939,0.136944 0.4793,0.136944 0.33614,0 0.6287,-0.155618 z"
     style="font-style:normal;font-variant:normal;font-weight:normal;font-stretch:normal;line-height:0;font-family:'Fira Code';-inkscape-font-specification:'Fira Code';fill:#ffffff;stroke-width:1"
     id="path2179"
     inkscape:connector-curvature="0" /><path
     d="m 109.84947,82.436734 v 5.788995 h -1.5624 v -0.441955 h 1.06443 v -4.89886 h -1.06443 v -0.44818 z"
     style="font-style:normal;font-variant:normal;font-weight:normal;font-stretch:normal;line-height:0;font-family:'Fira Code';-inkscape-font-specification:'Fira Code';fill:#ffffff;stroke-width:1"
     id="path2181"
     inkscape:connector-curvature="0" /></g><text
   xml:space="preserve"
   style="font-style:normal;font-weight:normal;font-size:15.23406696px;line-height:1.25;font-family:sans-serif;letter-spacing:0px;word-spacing:0px;fill:#ffab91;fill-opacity:1;stroke:none;stroke-width:0.99999994"
   x="107.04231"
   y="38.224308"
   id="text1991"
   transform="scale(0.96589792,1.0353061)"><tspan
     sodipodi:role="line"
     id="tspan1989"
     x="107.04231"
     y="38.224308"
     style="font-style:normal;font-variant:normal;font-weight:normal;font-stretch:normal;font-family:'Fira Code';-inkscape-font-specification:'Fira Code';text-align:end;text-anchor:end;fill:#ffab91;stroke-width:2.02384448">1</tspan></text>
<g
   id="g1997"
   transform="matrix(0.1967531,0,0,0.21089152,67.329906,63.442071)"
   style="stroke-width:4.81720543"><path
     sodipodi:nodetypes="cccc"
     inkscape:connector-curvature="0"
     id="path1993"
     d="m 191.41508,11.250768 13.87556,27.751271 13.87555,-27.751271 c -8.42623,-6.6847038 -17.46962,-8.3635128 -27.75111,0 z"
     style="fill:#dce775;fill-opacity:1;stroke:none;stroke-width:128.63444519px;stroke-linecap:butt;stroke-linejoin:miter;stroke-opacity:1" /><path
     inkscape:connector-curvature="0"
     id="path1995"
     d="m 191.41508,11.250768 13.87556,-27.75086 13.87555,27.75086 z"
     style="fill:#afb42b;fill-opacity:1;stroke:none;stroke-width:128.63444519px;stroke-linecap:butt;stroke-linejoin:miter;stroke-opacity:1" /></g><text
   id="text2001"
   y="69.055695"
   x="107.04231"
   style="font-style:normal;font-weight:normal;font-size:15.23406696px;line-height:1.25;font-family:sans-serif;letter-spacing:0px;word-spacing:0px;fill:#000000;fill-opacity:1;stroke:none;stroke-width:0.99999994"
   xml:space="preserve"
   transform="scale(0.96589792,1.0353061)"><tspan
     style="font-style:normal;font-variant:normal;font-weight:normal;font-stretch:normal;font-family:'Fira Code';-inkscape-font-specification:'Fira Code';text-align:end;text-anchor:end;fill:#a5d6a7;stroke-width:2.02384448"
     y="69.055695"
     x="107.04231"
     id="tspan1999"
     sodipodi:role="line">7</tspan></text>
<g
   style="stroke-width:4.81720543"
   transform="matrix(0.1967531,0,0,0.21089152,67.329906,96.957986)"
   id="g2007"><path
     style="fill:#dce775;fill-opacity:1;stroke:none;stroke-width:128.63444519px;stroke-linecap:butt;stroke-linejoin:miter;stroke-opacity:1"
     d="m 191.41508,11.250768 13.87556,27.751271 13.87555,-27.751271 c -8.42623,-6.6847038 -17.46962,-8.3635128 -27.75111,0 z"
     id="path2003"
     inkscape:connector-curvature="0"
     sodipodi:nodetypes="cccc" /><path
     style="fill:#afb42b;fill-opacity:1;stroke:none;stroke-width:128.63444519px;stroke-linecap:butt;stroke-linejoin:miter;stroke-opacity:1"
     d="m 191.41508,11.250768 13.87556,-27.75086 13.87555,27.75086 z"
     id="path2005"
     inkscape:connector-curvature="0" /></g><text
   xml:space="preserve"
   style="font-style:normal;font-weight:normal;font-size:15.23406696px;line-height:1.25;font-family:sans-serif;letter-spacing:0px;word-spacing:0px;fill:#000000;fill-opacity:1;stroke:none;stroke-width:0.99999994"
   x="107.04231"
   y="101.42864"
   id="text2011"
   transform="scale(0.96589792,1.0353061)"><tspan
     sodipodi:role="line"
     id="tspan2009"
     x="107.04231"
     y="101.42864"
     style="font-style:normal;font-variant:normal;font-weight:normal;font-stretch:normal;font-family:'Fira Code';-inkscape-font-specification:'Fira Code';text-align:end;text-anchor:end;fill:#ffffff;stroke-width:2.02384448">1</tspan></text>
</g></svg>