<?xml version="1.0" encoding="UTF-8" standalone="no"?>
<!-- Created with Inkscape (http://www.inkscape.org/) -->

<svg
   xmlns:dc="http://purl.org/dc/elements/1.1/"
   xmlns:cc="http://creativecommons.org/ns#"
   xmlns:rdf="http://www.w3.org/1999/02/22-rdf-syntax-ns#"
   xmlns:svg="http://www.w3.org/2000/svg"
   xmlns="http://www.w3.org/2000/svg"
   xmlns:xlink="http://www.w3.org/1999/xlink"
   xmlns:sodipodi="http://sodipodi.sourceforge.net/DTD/sodipodi-0.dtd"
   xmlns:inkscape="http://www.inkscape.org/namespaces/inkscape"
   version="1.1"
   id="svg29"
   xml:space="preserve"
   width="100.00012mm"
   height="70mm"
   viewBox="0 0 377.95323 264.56694"
   sodipodi:docname="01.svg"
   inkscape:version="0.92.2 2405546, 2018-03-11"><metadata
     id="metadata35"><rdf:RDF><cc:Work
         rdf:about=""><dc:format>image/svg+xml</dc:format><dc:type
           rdf:resource="http://purl.org/dc/dcmitype/StillImage" /><dc:title /></cc:Work></rdf:RDF></metadata><defs
     id="defs33"><linearGradient
       inkscape:collect="always"
       id="linearGradient876"><stop
         style="stop-color:#ffffff;stop-opacity:1"
         offset="0"
         id="stop872" /><stop
         style="stop-color:#ffffff;stop-opacity:0"
         offset="1"
         id="stop874" /></linearGradient><linearGradient
       inkscape:collect="always"
       xlink:href="#linearGradient876"
       id="linearGradient878"
       x1="100.8952"
       y1="53.721825"
       x2="100.8952"
       y2="35.612434"
       gradientUnits="userSpaceOnUse" /></defs><sodipodi:namedview
     pagecolor="#000000"
     bordercolor="#666666"
     borderopacity="1"
     objecttolerance="10"
     gridtolerance="10"
     guidetolerance="10"
     inkscape:pageopacity="1"
     inkscape:pageshadow="2"
     inkscape:window-width="1366"
     inkscape:window-height="730"
     id="namedview31"
     showgrid="false"
     units="mm"
     inkscape:snap-page="true"
     borderlayer="true"
     inkscape:zoom="1.5461588"
     inkscape:cx="227.22055"
     inkscape:cy="138.17758"
     inkscape:window-x="0"
     inkscape:window-y="38"
     inkscape:window-maximized="0"
     inkscape:current-layer="layer1"
     inkscape:measure-start="0,0"
     inkscape:measure-end="0,0"
     inkscape:snap-bbox="true"
     inkscape:bbox-nodes="true"
     inkscape:object-nodes="true"
     inkscape:bbox-paths="true"
     inkscape:snap-object-midpoints="true"
     inkscape:object-paths="true" /><g
     id="g37"
     inkscape:groupmode="layer"
     inkscape:label="Background"
     transform="matrix(1.3333333,0,0,-1.3333333,0,264.56696)"
     sodipodi:insensitive="true"><rect
       style="opacity:1;fill:#000000;fill-opacity:1;stroke:none;stroke-width:0.75118107;stroke-linecap:round;stroke-linejoin:bevel;stroke-miterlimit:4;stroke-dasharray:none;stroke-dashoffset:0;stroke-opacity:1"
       id="rect43"
       width="283.4649"
       height="198.4252"
       x="0"
       y="-198.42522"
       transform="scale(1,-1)" /></g><g
     inkscape:groupmode="layer"
     id="layer1"
     inkscape:label="Foreground"><path
   style="opacity:1;fill:#212121;fill-opacity:1;stroke:none;stroke-width:1.00157475;stroke-linecap:round;stroke-linejoin:bevel;stroke-miterlimit:4;stroke-dasharray:none;stroke-dashoffset:0;stroke-opacity:1"
   d="M 15.796875 7.1152344 C 11.61641 7.1152344 8.2519531 10.479691 8.2519531 14.660156 L 8.2519531 151.08203 L 8.2519531 250.71094 L 8.2519531 255.2832 C 8.2519531 256.93005 11.61641 258.25586 15.796875 258.25586 L 362.15625 258.25586 C 366.33672 258.25586 369.70312 256.93005 369.70312 255.2832 L 369.70312 250.71094 L 369.70312 151.08203 L 369.70312 14.660156 C 369.70312 10.479691 366.33672 7.1152344 362.15625 7.1152344 L 15.796875 7.1152344 z "
   id="rect884" /><rect
   style="opacity:1;fill:#ffffff;fill-opacity:1;stroke:none;stroke-width:1.00157475;stroke-linecap:round;stroke-linejoin:bevel;stroke-miterlimit:4;stroke-dasharray:none;stroke-dashoffset:0;stroke-opacity:1"
   id="rect882"
   width="355.9632"
   height="224.9899"
   x="10.99499"
   y="30.522339" /><rect
   y="30.522335"
   x="10.99499"
   height="35.488022"
   width="355.9632"
   id="rect889"
   style="opacity:1;fill:#ffd600;fill-opacity:1;stroke:none;stroke-width:1.00157475;stroke-linecap:round;stroke-linejoin:bevel;stroke-miterlimit:4;stroke-dasharray:none;stroke-dashoffset:0;stroke-opacity:1" /><text
   xml:space="preserve"
   style="font-style:normal;font-weight:normal;font-size:21.96496964px;line-height:1.25;font-family:sans-serif;letter-spacing:0px;word-spacing:0px;fill:#000000;fill-opacity:1;stroke:none;stroke-width:1"
   x="26.748734"
   y="54.612503"
   id="text893"><tspan
     sodipodi:role="line"
     id="tspan891"
     x="26.748734"
     y="54.612503"
     style="font-style:normal;font-variant:normal;font-weight:normal;font-stretch:normal;font-family:Roboto;-inkscape-font-specification:Roboto;stroke-width:1"><tspan
   style="font-style:normal;font-variant:normal;font-weight:300;font-stretch:normal;font-family:Roboto;-inkscape-font-specification:'Roboto Light';stroke-width:1"
   id="tspan895">crowd</tspan>funding</tspan></text>

<rect
   style="opacity:1;fill:#bf360c;fill-opacity:1;stroke:none;stroke-width:1.00157475;stroke-linecap:round;stroke-linejoin:bevel;stroke-miterlimit:4;stroke-dasharray:none;stroke-dashoffset:0;stroke-opacity:1"
   id="rect899"
   width="49.580353"
   height="24.714964"
   x="311.07343"
   y="35.908859" /><text
   xml:space="preserve"
   style="font-style:normal;font-weight:normal;font-size:8.42266655px;line-height:1.25;font-family:sans-serif;letter-spacing:0px;word-spacing:0px;fill:#000000;fill-opacity:1;stroke:none;stroke-width:1"
   x="335.49359"
   y="45.237556"
   id="text903"><tspan
     sodipodi:role="line"
     id="tspan901"
     x="335.49359"
     y="45.237556"
     style="font-style:normal;font-variant:normal;font-weight:normal;font-stretch:normal;font-family:Roboto;-inkscape-font-specification:Roboto;text-align:center;text-anchor:middle;fill:#ffffff;stroke-width:3.1222949">Start</tspan><tspan
     sodipodi:role="line"
     x="335.49359"
     y="55.848141"
     style="font-style:normal;font-variant:normal;font-weight:normal;font-stretch:normal;font-family:Roboto;-inkscape-font-specification:Roboto;text-align:center;text-anchor:middle;fill:#ffffff;stroke-width:3.1222949"
     id="tspan907">campaign</tspan></text>

<rect
   y="71.136894"
   x="32.03223"
   height="71.19162"
   width="313.8887"
   id="rect909"
   style="opacity:1;fill:#eeeeee;fill-opacity:1;stroke:none;stroke-width:1.00157475;stroke-linecap:round;stroke-linejoin:bevel;stroke-miterlimit:4;stroke-dasharray:none;stroke-dashoffset:0;stroke-opacity:1" /><rect
   style="opacity:1;fill:#eeeeee;fill-opacity:1;stroke:none;stroke-width:1.00157475;stroke-linecap:round;stroke-linejoin:bevel;stroke-miterlimit:4;stroke-dasharray:none;stroke-dashoffset:0;stroke-opacity:1"
   id="rect911"
   width="313.8887"
   height="42.087234"
   x="32.03223"
   y="151.1369" /><rect
   y="142.32851"
   x="32.03223"
   height="4.1287389"
   width="313.8887"
   id="rect913"
   style="opacity:1;fill:#bdbdbd;fill-opacity:1;stroke:none;stroke-width:1.00157475;stroke-linecap:round;stroke-linejoin:bevel;stroke-miterlimit:4;stroke-dasharray:none;stroke-dashoffset:0;stroke-opacity:1" /><rect
   style="opacity:1;fill:#01579b;fill-opacity:1;stroke:none;stroke-width:1.00157475;stroke-linecap:round;stroke-linejoin:bevel;stroke-miterlimit:4;stroke-dasharray:none;stroke-dashoffset:0;stroke-opacity:1"
   id="rect915"
   width="146.96278"
   height="4.1287389"
   x="32.03223"
   y="142.32851" /><rect
   style="opacity:1;fill:#81d4fa;fill-opacity:1;stroke:none;stroke-width:1.00157475;stroke-linecap:round;stroke-linejoin:bevel;stroke-miterlimit:4;stroke-dasharray:none;stroke-dashoffset:0;stroke-opacity:1"
   id="rect917"
   width="193.15324"
   height="71.19162"
   x="32.03223"
   y="71.136909" /><circle
   style="opacity:1;fill:#757575;fill-opacity:1;stroke:none;stroke-width:1.00157475;stroke-linecap:round;stroke-linejoin:bevel;stroke-miterlimit:4;stroke-dasharray:none;stroke-dashoffset:0;stroke-opacity:1"
   id="path919"
   cx="245.19086"
   cy="91.183678"
   r="13.262607" /><path
   style="opacity:1;fill:#212121;fill-opacity:1;stroke:none;stroke-width:1.00157475;stroke-linecap:round;stroke-linejoin:bevel;stroke-miterlimit:4;stroke-dasharray:none;stroke-dashoffset:0;stroke-opacity:1"
   d="M 245.47266 79.806641 A 6.6884704 6.6884704 0 0 0 238.7832 86.496094 A 6.6884704 6.6884704 0 0 0 242.87109 92.658203 C 238.23139 93.309084 234.74299 95.869455 234.49414 98.998047 A 13.262607 13.262607 0 0 0 245.19141 104.44531 A 13.262607 13.262607 0 0 0 255.88867 98.998047 C 255.64743 95.960649 252.35006 93.46191 247.91211 92.722656 A 6.6884704 6.6884704 0 0 0 252.16016 86.496094 A 6.6884704 6.6884704 0 0 0 245.47266 79.806641 z "
   id="rect921" /><text
   xml:space="preserve"
   style="font-style:normal;font-weight:normal;font-size:8.503088px;line-height:1.25;font-family:sans-serif;letter-spacing:0px;word-spacing:0px;fill:#000000;fill-opacity:1;stroke:none;stroke-width:1"
   x="263.24741"
   y="94.119263"
   id="text931"><tspan
     sodipodi:role="line"
     x="263.24741"
     y="94.119263"
     style="font-style:normal;font-variant:normal;font-weight:normal;font-stretch:normal;font-family:'Roboto Condensed';-inkscape-font-specification:'Roboto Condensed, ';stroke-width:4.70417356"
     id="tspan937">Konstantin Fickel</tspan></text>

<rect
   y="198.39825"
   x="32.03223"
   height="57.113987"
   width="313.8887"
   id="rect941"
   style="opacity:1;fill:#eeeeee;fill-opacity:1;stroke:none;stroke-width:1.00157475;stroke-linecap:round;stroke-linejoin:bevel;stroke-miterlimit:4;stroke-dasharray:none;stroke-dashoffset:0;stroke-opacity:1" /><rect
   y="114.4701"
   x="32.03223"
   height="27.858425"
   width="193.15324"
   id="rect945"
   style="opacity:1;fill:#6d4c41;fill-opacity:1;stroke:none;stroke-width:1.00157475;stroke-linecap:round;stroke-linejoin:bevel;stroke-miterlimit:4;stroke-dasharray:none;stroke-dashoffset:0;stroke-opacity:1" /><circle
   style="opacity:1;fill:#00796b;fill-opacity:1;stroke:none;stroke-width:2;stroke-linecap:round;stroke-linejoin:bevel;stroke-miterlimit:4;stroke-dasharray:none;stroke-dashoffset:0;stroke-opacity:1"
   id="circle864"
   cx="150.46199"
   cy="109.95148"
   r="14.177263" /><path
   style="opacity:1;fill:#424242;fill-opacity:1;stroke:none;stroke-width:1.00157475;stroke-linecap:round;stroke-linejoin:bevel;stroke-miterlimit:4;stroke-dasharray:none;stroke-dashoffset:0;stroke-opacity:1"
   d="m 50.892578,159.04478 c -1.074922,0 -1.941406,0.72975 -1.941406,1.63672 0,0.90696 0.866484,1.63672 1.941406,1.63672 h 3.677734 v 1.41406 a 10.833299,10.833299 0 0 0 -9.621093,10.75195 10.833299,10.833299 0 0 0 10.833984,10.83203 10.833299,10.833299 0 0 0 10.833985,-10.83203 10.833299,10.833299 0 0 0 -9.136719,-10.68555 v -1.48046 h 3.679687 c 1.074922,0 1.939453,-0.72976 1.939453,-1.63672 0,-0.90697 -0.864531,-1.63672 -1.939453,-1.63672 h -5.134765 z m 4.890625,7.12109 a 8.317977,8.317977 0 0 1 8.318359,8.31836 8.317977,8.317977 0 0 1 -8.318359,8.31641 8.317977,8.317977 0 0 1 -8.318359,-8.31641 8.317977,8.317977 0 0 1 8.318359,-8.31836 z m -0.0078,0.73242 a 0.50005,0.50005 0 0 0 -0.492188,0.50586 v 7.28711 l 2.994141,2.99219 a 0.50005,0.50005 0 1 0 0.707031,-0.70703 l -2.701172,-2.69922 v -6.87305 a 0.50005,0.50005 0 0 0 -0.507812,-0.50586 z"
   id="path947"
   inkscape:connector-curvature="0" /><path
   style="opacity:1;fill:#424242;fill-opacity:1;stroke:none;stroke-width:0.40000001;stroke-linecap:round;stroke-linejoin:bevel;stroke-miterlimit:4;stroke-dasharray:none;stroke-dashoffset:0;stroke-opacity:1"
   d="m 160.6264,161.01548 a 11.165383,11.165383 0 0 0 -11.16601,11.16602 11.165383,11.165383 0 0 0 11.16601,11.16406 11.165383,11.165383 0 0 0 11.16407,-11.16406 11.165383,11.165383 0 0 0 -11.16407,-11.16602 z m 0,3.84766 a 7.088635,7.3173008 0 0 1 7.08789,7.31836 7.088635,7.3173008 0 0 1 -7.08789,7.3164 7.088635,7.3173008 0 0 1 -7.08984,-7.3164 7.088635,7.3173008 0 0 1 7.08984,-7.31836 z m 0,4.01367 a 3.2013192,3.3045876 0 0 0 -3.20117,3.30469 3.2013192,3.3045876 0 0 0 3.20117,3.30468 3.2013192,3.3045876 0 0 0 3.20118,-3.30468 3.2013192,3.3045876 0 0 0 -3.20118,-3.30469 z"
   id="path964"
   inkscape:connector-curvature="0" /><path
   inkscape:connector-curvature="0"
   style="opacity:1;fill:#424242;fill-opacity:1;stroke:none;stroke-width:1.00157475;stroke-linecap:round;stroke-linejoin:bevel;stroke-miterlimit:4;stroke-dasharray:none;stroke-dashoffset:0;stroke-opacity:1"
   d="m 279.91804,162.58481 c -3.69471,-5.5e-4 -6.69001,2.99475 -6.68946,6.68946 3e-5,2.68903 1.61044,5.11657 4.08789,6.16211 -4.6397,0.65088 -8.1281,3.21125 -8.37695,6.33984 h 21.39453 c -0.24124,-3.0374 -3.53861,-5.53613 -7.97656,-6.27539 2.56206,-1.00404 4.24772,-3.47479 4.24805,-6.22656 5.5e-4,-3.69395 -2.99355,-6.68892 -6.6875,-6.68946 z"
   id="rect921-3"
   sodipodi:nodetypes="cccccccc" /><text
   xml:space="preserve"
   style="font-style:normal;font-weight:normal;font-size:8.40042305px;line-height:1.25;font-family:sans-serif;letter-spacing:0px;word-spacing:0px;fill:#000000;fill-opacity:1;stroke:none;stroke-width:1"
   x="290.83154"
   y="175.28966"
   id="text931-6"><tspan
     sodipodi:role="line"
     x="290.83154"
     y="175.28966"
     style="font-style:normal;font-variant:normal;font-weight:normal;font-stretch:normal;font-family:'Roboto Condensed';-inkscape-font-specification:'Roboto Condensed, ';fill:#000000;stroke-width:4.70417356"
     id="tspan937-7"><tspan
   style="font-style:normal;font-variant:normal;font-weight:bold;font-stretch:normal;font-family:'Roboto Condensed';-inkscape-font-specification:'Roboto Condensed, Bold';fill:#000000;stroke-width:4.70417356"
   id="tspan1007">10</tspan> Backers</tspan></text>

<text
   id="text1015"
   y="170.04144"
   x="179.08905"
   style="font-style:normal;font-weight:normal;font-size:8.40042305px;line-height:1.25;font-family:sans-serif;letter-spacing:0px;word-spacing:0px;fill:#000000;fill-opacity:1;stroke:none;stroke-width:1"
   xml:space="preserve"><tspan
     style="font-style:normal;font-variant:normal;font-weight:normal;font-stretch:normal;font-family:'Roboto Condensed';-inkscape-font-specification:'Roboto Condensed, ';stroke-width:4.70417356"
     y="170.04144"
     x="179.08905"
     sodipodi:role="line"
     id="tspan1025"><tspan
   style="font-style:normal;font-variant:normal;font-weight:bold;font-stretch:normal;font-family:'Roboto Condensed';-inkscape-font-specification:'Roboto Condensed,  Bold';stroke-width:4.70417356"
   id="tspan1035">8.436 €</tspan> of 20.000€</tspan><tspan
     style="font-style:normal;font-variant:normal;font-weight:normal;font-stretch:normal;font-family:'Roboto Condensed';-inkscape-font-specification:'Roboto Condensed, ';stroke-width:4.70417356"
     y="180.62401"
     x="179.08905"
     sodipodi:role="line"
     id="tspan1033">have been raised</tspan></text>

<text
   xml:space="preserve"
   style="font-style:normal;font-weight:normal;font-size:8.40042305px;line-height:1.25;font-family:sans-serif;letter-spacing:0px;word-spacing:0px;fill:#000000;fill-opacity:1;stroke:none;stroke-width:1"
   x="71.724258"
   y="175.33273"
   id="text931-6-5"><tspan
     sodipodi:role="line"
     x="71.724258"
     y="175.33273"
     style="font-style:normal;font-variant:normal;font-weight:normal;font-stretch:normal;font-family:'Roboto Condensed';-inkscape-font-specification:'Roboto Condensed, ';fill:#000000;stroke-width:4.70417356"
     id="tspan937-7-3"><tspan
   style="font-style:normal;font-variant:normal;font-weight:bold;font-stretch:normal;font-family:'Roboto Condensed';-inkscape-font-specification:'Roboto Condensed,  Bold';stroke-width:4.70417356"
   id="tspan1058">2</tspan> weeks left</tspan></text>

<rect
   style="opacity:1;fill:#616161;fill-opacity:1;stroke:none;stroke-width:1.00157475;stroke-linecap:round;stroke-linejoin:bevel;stroke-miterlimit:4;stroke-dasharray:none;stroke-dashoffset:0;stroke-opacity:1"
   id="rect1060"
   width="302.91275"
   height="6.1052999"
   x="37.520206"
   y="218.45955" /><rect
   y="202.45955"
   x="37.520206"
   height="11.52195"
   width="19.630075"
   id="rect1072"
   style="opacity:1;fill:#616161;fill-opacity:1;stroke:none;stroke-width:1.00157475;stroke-linecap:round;stroke-linejoin:bevel;stroke-miterlimit:4;stroke-dasharray:none;stroke-dashoffset:0;stroke-opacity:1" /><rect
   y="228.45955"
   x="37.520206"
   height="6.1052999"
   width="302.91275"
   id="rect1074"
   style="opacity:1;fill:#616161;fill-opacity:1;stroke:none;stroke-width:1.00157475;stroke-linecap:round;stroke-linejoin:bevel;stroke-miterlimit:4;stroke-dasharray:none;stroke-dashoffset:0;stroke-opacity:1" /><rect
   style="opacity:1;fill:#616161;fill-opacity:1;stroke:none;stroke-width:1.00157475;stroke-linecap:round;stroke-linejoin:bevel;stroke-miterlimit:4;stroke-dasharray:none;stroke-dashoffset:0;stroke-opacity:1"
   id="rect1076"
   width="302.91275"
   height="6.1052999"
   x="37.520206"
   y="238.45955" /><rect
   y="248.45955"
   x="37.520206"
   height="6.1052999"
   width="302.91275"
   id="rect1078"
   style="opacity:1;fill:#616161;fill-opacity:1;stroke:none;stroke-width:1.00157475;stroke-linecap:round;stroke-linejoin:bevel;stroke-miterlimit:4;stroke-dasharray:none;stroke-dashoffset:0;stroke-opacity:1" /><rect
   style="opacity:1;fill:#616161;fill-opacity:1;stroke:none;stroke-width:1.00157475;stroke-linecap:round;stroke-linejoin:bevel;stroke-miterlimit:4;stroke-dasharray:none;stroke-dashoffset:0;stroke-opacity:1"
   id="rect1080"
   width="51.025059"
   height="11.52195"
   x="59.970943"
   y="202.45955" /><path
   style="opacity:1;fill:#424242;fill-opacity:1;stroke:none;stroke-width:1.00157475;stroke-linecap:round;stroke-linejoin:bevel;stroke-miterlimit:4;stroke-dasharray:none;stroke-dashoffset:0;stroke-opacity:1"
   d="M 348.55078 7.1152344 L 348.55078 19.097656 C 348.55078 23.278116 351.91524 26.642578 356.0957 26.642578 L 369.70312 26.642578 L 369.70312 14.660156 C 369.70312 10.479691 366.33672 7.1152344 362.15625 7.1152344 L 348.55078 7.1152344 z "
   id="path1084" /><path
   style="color:#000000;font-style:normal;font-variant:normal;font-weight:normal;font-stretch:normal;font-size:medium;line-height:normal;font-family:sans-serif;font-variant-ligatures:normal;font-variant-position:normal;font-variant-caps:normal;font-variant-numeric:normal;font-variant-alternates:normal;font-feature-settings:normal;text-indent:0;text-align:start;text-decoration:none;text-decoration-line:none;text-decoration-style:solid;text-decoration-color:#000000;letter-spacing:normal;word-spacing:normal;text-transform:none;writing-mode:lr-tb;direction:ltr;text-orientation:mixed;dominant-baseline:auto;baseline-shift:baseline;text-anchor:start;white-space:normal;shape-padding:0;clip-rule:nonzero;display:inline;overflow:visible;visibility:visible;opacity:1;isolation:auto;mix-blend-mode:normal;color-interpolation:sRGB;color-interpolation-filters:linearRGB;solid-color:#000000;solid-opacity:1;vector-effect:none;fill:#ffffff;fill-opacity:1;fill-rule:nonzero;stroke:none;stroke-width:2;stroke-linecap:round;stroke-linejoin:miter;stroke-miterlimit:4;stroke-dasharray:none;stroke-dashoffset:0;stroke-opacity:1;color-rendering:auto;image-rendering:auto;shape-rendering:auto;text-rendering:auto;enable-background:accumulate"
   d="m 355.77927,12.195981 a 0.81441173,0.81441173 0 0 0 -0.56781,1.39804 l 3.61359,3.61359 -3.61359,3.615181 a 0.81441173,0.81441173 0 1 0 1.15151,1.151515 l 3.61359,-3.613591 3.61359,3.613591 a 0.81441173,0.81441173 0 1 0 1.15151,-1.151515 l -3.61359,-3.615181 3.61359,-3.61359 a 0.81441173,0.81441173 0 0 0 -0.59166,-1.39804 0.81441173,0.81441173 0 0 0 -0.55985,0.246526 l -3.61359,3.613591 -3.61359,-3.613591 a 0.81441173,0.81441173 0 0 0 -0.5837,-0.246526 z"
   id="path1089"
   inkscape:connector-curvature="0" /><circle
   style="opacity:1;fill:#b71c1c;fill-opacity:1;stroke:none;stroke-width:2;stroke-linecap:round;stroke-linejoin:bevel;stroke-miterlimit:4;stroke-dasharray:none;stroke-dashoffset:0;stroke-opacity:1"
   id="path860"
   cx="102.44221"
   cy="108.21432"
   r="22.409231" /><circle
   r="14.177263"
   cy="120.4701"
   cx="131.02541"
   id="circle862"
   style="opacity:1;fill:#ff9800;fill-opacity:1;stroke:none;stroke-width:2;stroke-linecap:round;stroke-linejoin:bevel;stroke-miterlimit:4;stroke-dasharray:none;stroke-dashoffset:0;stroke-opacity:1" /></g></svg>