<?xml version="1.0" encoding="UTF-8" standalone="no"?>
<!-- Created with Inkscape (http://www.inkscape.org/) -->

<svg
   xmlns:dc="http://purl.org/dc/elements/1.1/"
   xmlns:cc="http://creativecommons.org/ns#"
   xmlns:rdf="http://www.w3.org/1999/02/22-rdf-syntax-ns#"
   xmlns:svg="http://www.w3.org/2000/svg"
   xmlns="http://www.w3.org/2000/svg"
   xmlns:xlink="http://www.w3.org/1999/xlink"
   xmlns:sodipodi="http://sodipodi.sourceforge.net/DTD/sodipodi-0.dtd"
   xmlns:inkscape="http://www.inkscape.org/namespaces/inkscape"
   version="1.1"
   id="svg29"
   xml:space="preserve"
   width="100.00012mm"
   height="70mm"
   viewBox="0 0 377.95323 264.56694"
   sodipodi:docname="02.svg"
   inkscape:version="0.92.2 2405546, 2018-03-11"><metadata
     id="metadata35"><rdf:RDF><cc:Work
         rdf:about=""><dc:format>image/svg+xml</dc:format><dc:type
           rdf:resource="http://purl.org/dc/dcmitype/StillImage" /><dc:title /></cc:Work></rdf:RDF></metadata><defs
     id="defs33"><marker
       inkscape:isstock="true"
       style="overflow:visible"
       id="marker2837"
       refX="0.0"
       refY="0.0"
       orient="auto"
       inkscape:stockid="TriangleInM"><path
         transform="scale(-0.4)"
         style="fill-rule:evenodd;stroke:#757575;stroke-width:1pt;stroke-opacity:1;fill:#757575;fill-opacity:1"
         d="M 5.77,0.0 L -2.88,5.0 L -2.88,-5.0 L 5.77,0.0 z "
         id="path2835" /></marker><marker
       inkscape:stockid="TriangleInM"
       orient="auto"
       refY="0.0"
       refX="0.0"
       id="TriangleInM"
       style="overflow:visible"
       inkscape:isstock="true"><path
         id="path1927"
         d="M 5.77,0.0 L -2.88,5.0 L -2.88,-5.0 L 5.77,0.0 z "
         style="fill-rule:evenodd;stroke:#ffffff;stroke-width:1pt;stroke-opacity:1;fill:#ffffff;fill-opacity:1"
         transform="scale(-0.4)" /></marker><marker
       inkscape:stockid="TriangleOutS"
       orient="auto"
       refY="0.0"
       refX="0.0"
       id="TriangleOutS"
       style="overflow:visible"
       inkscape:isstock="true"><path
         id="path12556"
         d="M 5.77,0.0 L -2.88,5.0 L -2.88,-5.0 L 5.77,0.0 z "
         style="fill-rule:evenodd;stroke:#e0e0e0;stroke-width:1pt;stroke-opacity:1;fill:#eeeeee;fill-opacity:1"
         transform="scale(0.2)" /></marker><marker
       inkscape:stockid="TriangleOutM"
       orient="auto"
       refY="0.0"
       refX="0.0"
       id="TriangleOutM"
       style="overflow:visible"
       inkscape:isstock="true"><path
         id="path12553"
         d="M 5.77,0.0 L -2.88,5.0 L -2.88,-5.0 L 5.77,0.0 z "
         style="fill-rule:evenodd;stroke:#ffffff;stroke-width:1pt;stroke-opacity:1;fill:#ffffff;fill-opacity:1"
         transform="scale(0.4)" /></marker><linearGradient
       inkscape:collect="always"
       id="linearGradient876"><stop
         style="stop-color:#ffffff;stop-opacity:1"
         offset="0"
         id="stop872" /><stop
         style="stop-color:#ffffff;stop-opacity:0"
         offset="1"
         id="stop874" /></linearGradient><linearGradient
       inkscape:collect="always"
       xlink:href="#linearGradient876"
       id="linearGradient878"
       x1="100.8952"
       y1="53.721825"
       x2="100.8952"
       y2="35.612434"
       gradientUnits="userSpaceOnUse" /></defs><sodipodi:namedview
     pagecolor="#000000"
     bordercolor="#666666"
     borderopacity="1"
     objecttolerance="10"
     gridtolerance="10"
     guidetolerance="10"
     inkscape:pageopacity="1"
     inkscape:pageshadow="2"
     inkscape:window-width="1366"
     inkscape:window-height="730"
     id="namedview31"
     showgrid="false"
     units="mm"
     inkscape:snap-page="true"
     borderlayer="true"
     inkscape:zoom="2.1865987"
     inkscape:cx="123.54862"
     inkscape:cy="122.76445"
     inkscape:window-x="0"
     inkscape:window-y="38"
     inkscape:window-maximized="0"
     inkscape:current-layer="layer1"
     inkscape:measure-start="0,0"
     inkscape:measure-end="0,0"
     inkscape:snap-bbox="true"
     inkscape:bbox-nodes="true"
     inkscape:object-nodes="true"
     inkscape:bbox-paths="true"
     inkscape:snap-object-midpoints="true"
     inkscape:object-paths="false"
     inkscape:snap-global="true"
     inkscape:snap-bbox-edge-midpoints="true"><inkscape:grid
       type="xygrid"
       id="grid12184" /></sodipodi:namedview><g
     id="g37"
     inkscape:groupmode="layer"
     inkscape:label="Background"
     transform="matrix(1.3333333,0,0,-1.3333333,0,264.56696)"
     sodipodi:insensitive="true"><rect
       style="opacity:1;fill:#000000;fill-opacity:1;stroke:none;stroke-width:0.75118107;stroke-linecap:round;stroke-linejoin:bevel;stroke-miterlimit:4;stroke-dasharray:none;stroke-dashoffset:0;stroke-opacity:1"
       id="rect43"
       width="283.4649"
       height="198.4252"
       x="0"
       y="-198.42522"
       transform="scale(1,-1)" /></g><g
     inkscape:groupmode="layer"
     id="layer1"
     inkscape:label="Foreground">





<path
   style="fill:#eeeeee;fill-rule:evenodd;stroke:#9e9e9e;stroke-width:3.7795279;stroke-linecap:butt;stroke-linejoin:miter;stroke-miterlimit:4;stroke-dasharray:none;stroke-opacity:1"
   d="M 131.01928,161.95124 259.13785,98.511598"
   id="path918"
   inkscape:connector-type="polyline"
   inkscape:connector-curvature="0" /><g
   id="g979"
   transform="matrix(0.7192183,0.33343345,-0.33361032,0.71883697,232.94425,5.801973)"
   style="stroke-width:1.26164758"><rect
     y="19.894695"
     x="112.39449"
     height="58.538403"
     width="7.6496611"
     id="rect967"
     style="opacity:1;fill:#5c3b14;fill-opacity:1;stroke:none;stroke-width:4.76843214;stroke-linecap:round;stroke-linejoin:bevel;stroke-miterlimit:4;stroke-dasharray:none;stroke-dashoffset:0;stroke-opacity:1" /><path
     sodipodi:nodetypes="ccc"
     inkscape:connector-curvature="0"
     id="path969"
     d="m 84.215111,31.799646 c 21.336139,-23.0382072 42.672279,-23.0382072 64.008419,0 -31.79123,-10.361973 -31.78603,-10.277473 -64.008419,0 z"
     style="fill:#90a4ae;stroke:none;stroke-width:1.26363432;stroke-linecap:butt;stroke-linejoin:miter;stroke-miterlimit:4;stroke-dasharray:none;stroke-opacity:1" /><path
     id="path971"
     d="m 116.45117,14.529297 11.00781,11.007812 c 5.35547,1.264824 11.76528,3.328799 20.76368,6.261719 -10.59059,-11.435437 -21.1809,-17.186472 -31.77149,-17.269531 z"
     style="fill:#607d8b;stroke:none;stroke-width:1.26164758px;stroke-linecap:butt;stroke-linejoin:miter;stroke-opacity:1"
     inkscape:connector-curvature="0" /></g><g
   transform="matrix(0.7192183,0.33343345,-0.33361032,0.71883697,198.77704,111.68751)"
   id="g987"
   style="stroke-width:1.26164758"><rect
     style="opacity:1;fill:#5c3b14;fill-opacity:1;stroke:none;stroke-width:4.76843214;stroke-linecap:round;stroke-linejoin:bevel;stroke-miterlimit:4;stroke-dasharray:none;stroke-dashoffset:0;stroke-opacity:1"
     id="rect981"
     width="7.6496611"
     height="58.538403"
     x="112.39449"
     y="19.894695" /><path
     style="fill:#90a4ae;stroke:none;stroke-width:1.26363432;stroke-linecap:butt;stroke-linejoin:miter;stroke-miterlimit:4;stroke-dasharray:none;stroke-opacity:1"
     d="m 84.215111,31.799646 c 21.336139,-23.0382072 42.672279,-23.0382072 64.008419,0 -31.79123,-10.361973 -31.78603,-10.277473 -64.008419,0 z"
     id="path983"
     inkscape:connector-curvature="0"
     sodipodi:nodetypes="ccc" /><path
     inkscape:connector-curvature="0"
     style="fill:#607d8b;stroke:none;stroke-width:1.26164758px;stroke-linecap:butt;stroke-linejoin:miter;stroke-opacity:1"
     d="m 116.45117,14.529297 11.00781,11.007812 c 5.35547,1.264824 11.76528,3.328799 20.76368,6.261719 -10.59059,-11.435437 -21.1809,-17.186472 -31.77149,-17.269531 z"
     id="path985" /></g><g
   transform="matrix(0.7192183,0.33343345,-0.33361032,0.71883697,62.554919,90.17255)"
   id="g995"
   style="stroke-width:1.26164758"><rect
     style="opacity:1;fill:#5c3b14;fill-opacity:1;stroke:none;stroke-width:4.76843214;stroke-linecap:round;stroke-linejoin:bevel;stroke-miterlimit:4;stroke-dasharray:none;stroke-dashoffset:0;stroke-opacity:1"
     id="rect989"
     width="7.6496611"
     height="58.538403"
     x="112.39449"
     y="19.894695" /><path
     style="fill:#90a4ae;stroke:none;stroke-width:1.26363432;stroke-linecap:butt;stroke-linejoin:miter;stroke-miterlimit:4;stroke-dasharray:none;stroke-opacity:1"
     d="m 84.215111,31.799646 c 21.336139,-23.0382072 42.672279,-23.0382072 64.008419,0 -31.79123,-10.361973 -31.78603,-10.277473 -64.008419,0 z"
     id="path991"
     inkscape:connector-curvature="0"
     sodipodi:nodetypes="ccc" /><path
     inkscape:connector-curvature="0"
     style="fill:#607d8b;stroke:none;stroke-width:1.26164758px;stroke-linecap:butt;stroke-linejoin:miter;stroke-opacity:1"
     d="m 116.45117,14.529297 11.00781,11.007812 c 5.35547,1.264824 11.76528,3.328799 20.76368,6.261719 -10.59059,-11.435437 -21.1809,-17.186472 -31.77149,-17.269531 z"
     id="path993" /></g><ellipse
   cy="68.046051"
   cx="96.304146"
   id="circle910"
   style="opacity:1;fill:#eeeeee;fill-opacity:1;stroke:#9e9e9e;stroke-width:3.7795279;stroke-linecap:round;stroke-linejoin:bevel;stroke-miterlimit:4;stroke-dasharray:none;stroke-dashoffset:0;stroke-opacity:1"
   rx="23.587442"
   ry="23.574936" /><ellipse
   style="opacity:1;fill:#eeeeee;fill-opacity:1;stroke:#9e9e9e;stroke-width:3.7795279;stroke-linecap:round;stroke-linejoin:bevel;stroke-miterlimit:4;stroke-dasharray:none;stroke-dashoffset:0;stroke-opacity:1"
   id="circle912"
   cx="280.27322"
   cy="88.046127"
   rx="23.587442"
   ry="23.574936" /><ellipse
   cy="172.4167"
   cx="109.8839"
   id="circle914"
   style="opacity:1;fill:#eeeeee;fill-opacity:1;stroke:#9e9e9e;stroke-width:3.7795279;stroke-linecap:round;stroke-linejoin:bevel;stroke-miterlimit:4;stroke-dasharray:none;stroke-dashoffset:0;stroke-opacity:1"
   rx="23.587442"
   ry="23.574936" /><path
   style="fill:#eeeeee;fill-rule:evenodd;stroke:#9e9e9e;stroke-width:3.7795279;stroke-linecap:butt;stroke-linejoin:miter;stroke-miterlimit:4;stroke-dasharray:none;stroke-opacity:1"
   d="m 99.345833,91.423706 7.496387,57.615344"
   id="path916"
   inkscape:connector-type="polyline"
   inkscape:connector-curvature="0"
   inkscape:connection-start="#circle910"
   inkscape:connection-end="#circle914" /><path
   style="fill:#eeeeee;fill-rule:evenodd;stroke:#9e9e9e;stroke-width:3.7795279;stroke-linecap:butt;stroke-linejoin:miter;stroke-miterlimit:4;stroke-dasharray:none;stroke-opacity:1"
   d="M 256.82434,85.496898 119.75303,70.595281"
   id="path920"
   inkscape:connector-type="polyline"
   inkscape:connector-curvature="0"
   inkscape:connection-start="#circle912"
   inkscape:connection-end="#circle910" /><ellipse
   style="opacity:1;fill:#eeeeee;fill-opacity:1;stroke:#9e9e9e;stroke-width:3.7795279;stroke-linecap:round;stroke-linejoin:bevel;stroke-miterlimit:4;stroke-dasharray:none;stroke-dashoffset:0;stroke-opacity:1"
   id="circle912-3"
   cx="246.10602"
   cy="193.93166"
   rx="23.587442"
   ry="23.574936" /><path
   style="display:inline;fill:#eeeeee;fill-rule:evenodd;stroke:#9e9e9e;stroke-width:3.7795279;stroke-linecap:butt;stroke-linejoin:miter;stroke-miterlimit:4;stroke-dasharray:none;stroke-opacity:1"
   d="m 133.18193,176.0964 89.62606,14.15556"
   id="path918-6"
   inkscape:connector-type="polyline"
   inkscape:connector-curvature="0"
   inkscape:connection-start="#circle914"
   inkscape:connection-end="#circle912-3" /><path
   style="display:inline;fill:#eeeeee;fill-rule:evenodd;stroke:#9e9e9e;stroke-width:3.7795279;stroke-linecap:butt;stroke-linejoin:miter;stroke-miterlimit:4;stroke-dasharray:none;stroke-opacity:1"
   d="m 273.03339,110.48265 -19.68754,61.01248"
   id="path918-6-7"
   inkscape:connector-type="polyline"
   inkscape:connector-curvature="0"
   inkscape:connection-end="#circle912-3"
   inkscape:connection-start="#circle912" /><g
   transform="matrix(0.32726604,0,0,0.32954172,184.26039,155.52457)"
   id="g1199"
   style="stroke-width:3.04504919"><g
     style="stroke-width:4.46981144"
     transform="matrix(1.1372831,0,0,1.1372831,89.035845,-18.160285)"
     id="g1101"><g
       style="stroke-width:4.46981144"
       id="g1075"><g
         style="stroke-width:4.46981144"
         id="g1073"
         transform="translate(-21.49456,129.86315)" /></g><g
       id="g1099"
       style="stroke-width:4.46981144"><rect
   y="43.741032"
   x="39.419495"
   height="149.411"
   width="96.914551"
   id="rect1077"
   style="opacity:1;fill:#424242;fill-opacity:1;stroke:#ffffff;stroke-width:5.25207138;stroke-linecap:round;stroke-linejoin:bevel;stroke-miterlimit:4;stroke-dasharray:none;stroke-dashoffset:0;stroke-opacity:1" /><rect
   style="opacity:1;fill:#424242;fill-opacity:1;stroke:none;stroke-width:5.25461912;stroke-linecap:round;stroke-linejoin:bevel;stroke-miterlimit:4;stroke-dasharray:none;stroke-dashoffset:0;stroke-opacity:1"
   id="rect1079"
   width="96.914551"
   height="149.411"
   x="39.419495"
   y="43.741032" /><rect
   style="opacity:1;fill:#212121;fill-opacity:1;stroke:none;stroke-width:5.25461769;stroke-linecap:round;stroke-linejoin:bevel;stroke-miterlimit:4;stroke-dasharray:none;stroke-dashoffset:0;stroke-opacity:1"
   id="rect1081"
   width="96.914551"
   height="19.777657"
   x="39.419495"
   y="43.741032" /><text
   xml:space="preserve"
   style="font-style:normal;font-weight:normal;font-size:11.72620869px;line-height:1.25;font-family:sans-serif;letter-spacing:0px;word-spacing:0px;fill:#ffffff;fill-opacity:1;stroke:none;stroke-width:2.67747688"
   x="52.836018"
   y="57.980282"
   id="text1085"><tspan
     sodipodi:role="line"
     id="tspan1083"
     x="52.836018"
     y="57.980282"
     style="font-style:normal;font-variant:normal;font-weight:bold;font-stretch:normal;font-family:'Fira Code';-inkscape-font-specification:'Fira Code Bold';fill:#ffffff;stroke-width:2.67747688">0x00f3a871</tspan></text>


<rect
   y="68.159073"
   x="44.119865"
   height="19.777657"
   width="87.123032"
   id="rect1087"
   style="opacity:1;fill:#757575;fill-opacity:1;stroke:none;stroke-width:5.25461769;stroke-linecap:round;stroke-linejoin:bevel;stroke-miterlimit:4;stroke-dasharray:none;stroke-dashoffset:0;stroke-opacity:1" /><text
   id="text1091"
   y="82.568573"
   x="52.464737"
   style="font-style:normal;font-weight:normal;font-size:11.72620869px;line-height:1.25;font-family:sans-serif;letter-spacing:0px;word-spacing:0px;fill:#000000;fill-opacity:1;stroke:none;stroke-width:2.67747688"
   xml:space="preserve"><tspan
     style="font-style:normal;font-variant:normal;font-weight:normal;font-stretch:normal;font-family:'Fira Code';-inkscape-font-specification:'Fira Code';stroke-width:2.67747688"
     y="82.568573"
     x="52.464737"
     id="tspan1089"
     sodipodi:role="line">0x00148278</tspan></text>


<rect
   y="91.620453"
   x="44.119862"
   height="19.777657"
   width="87.123032"
   id="rect1093"
   style="opacity:1;fill:#81d4fa;fill-opacity:1;stroke:none;stroke-width:5.25461769;stroke-linecap:round;stroke-linejoin:bevel;stroke-miterlimit:4;stroke-dasharray:none;stroke-dashoffset:0;stroke-opacity:1" /><text
   id="text1097"
   y="106.02995"
   x="52.464741"
   style="font-style:normal;font-weight:normal;font-size:11.72620869px;line-height:1.25;font-family:sans-serif;letter-spacing:0px;word-spacing:0px;fill:#000000;fill-opacity:1;stroke:none;stroke-width:2.67747688"
   xml:space="preserve"><tspan
     style="font-style:normal;font-variant:normal;font-weight:normal;font-stretch:normal;font-family:'Fira Code';-inkscape-font-specification:'Fira Code';stroke-width:2.67747688"
     y="106.02995"
     x="52.464741"
     id="tspan1095"
     sodipodi:role="line">0x00000138</tspan></text>


</g></g><g
     style="stroke-width:8.42729664"
     transform="matrix(0.36864052,0,0,0.36864052,139.65871,183.97675)"
     id="g1123"><rect
   style="opacity:1;fill:#212121;fill-opacity:1;stroke:none;stroke-width:16.85459328;stroke-linecap:round;stroke-linejoin:bevel;stroke-miterlimit:4;stroke-dasharray:none;stroke-dashoffset:0;stroke-opacity:1"
   id="rect1103"
   width="102.55566"
   height="63.382881"
   x="160.5596"
   y="-57.198208"
   ry="18.594301"
   rx="22.074928" /><g
   id="g1109"
   transform="matrix(0.79625728,0,0,0.79625728,-3.7065337,-54.570034)"
   style="stroke-width:10.58363438"><path
     inkscape:connector-curvature="0"
     id="path1105"
     d="m 191.41508,36.905578 26.70308,-53.40567 26.70308,53.40567 c -19.12856,10.169855 -36.56231,7.346189 -53.40616,0 z"
     style="fill:#afb42b;fill-opacity:1;stroke:none;stroke-width:282.61611938px;stroke-linecap:butt;stroke-linejoin:miter;stroke-opacity:1"
     sodipodi:nodetypes="cccc" /><path
     inkscape:connector-curvature="0"
     id="path1107"
     d="m 191.41508,36.905578 26.70308,53.40646 26.70308,-53.40646 z"
     style="fill:#dce775;fill-opacity:1;stroke:none;stroke-width:282.61611938px;stroke-linecap:butt;stroke-linejoin:miter;stroke-opacity:1" /></g><path
   sodipodi:nodetypes="cccccccc"
   id="path1111"
   d="m 240.50365,-36.894723 c -4.50931,-6.62e-4 -8.16501,3.655021 -8.16434,8.164332 4e-5,3.2819 1.96551,6.244658 4.98918,7.520715 -5.66265,0.794386 -9.92016,3.91926 -10.22388,7.737632 h 26.11154 c -0.29443,-3.707078 -4.31879,-6.756722 -9.73521,-7.658971 3.12694,-1.225408 5.18425,-4.240903 5.18465,-7.599376 7.4e-4,-4.508383 -3.65356,-8.163673 -8.16194,-8.164332 z"
   style="opacity:1;fill:#ffeb3b;fill-opacity:1;stroke:none;stroke-width:8.44056797;stroke-linecap:round;stroke-linejoin:bevel;stroke-miterlimit:4;stroke-dasharray:none;stroke-dashoffset:0;stroke-opacity:1"
   inkscape:connector-curvature="0" /><path
   style="fill:#ffffff;stroke:none;stroke-width:8.42729568px;stroke-linecap:butt;stroke-linejoin:miter;stroke-opacity:1"
   d="m 230.62307,-29.84501 v 4.044709 h -20.4154 v 8.411416 h 20.4154 v 4.366709 l 8.41143,-8.411417 z"
   id="path1113"
   inkscape:connector-curvature="0"
   sodipodi:nodetypes="cccccccc" /><path
   inkscape:connector-curvature="0"
   style="opacity:1;fill:#c62828;fill-opacity:1;stroke:none;stroke-width:8.44056797;stroke-linecap:round;stroke-linejoin:bevel;stroke-miterlimit:4;stroke-dasharray:none;stroke-dashoffset:0;stroke-opacity:1"
   d="m 210.50365,-36.894723 c -4.50931,-6.62e-4 -8.16501,3.655021 -8.16434,8.164332 4e-5,3.2819 1.96551,6.244658 4.98918,7.520715 -5.66265,0.794386 -9.92016,3.91926 -10.22388,7.737632 h 26.11154 c -0.29443,-3.707078 -4.31879,-6.756722 -9.73521,-7.658971 3.12694,-1.225408 5.18425,-4.240903 5.18465,-7.599376 7.4e-4,-4.508383 -3.65356,-8.163673 -8.16194,-8.164332 z"
   id="path1115"
   sodipodi:nodetypes="cccccccc" /><text
   xml:space="preserve"
   style="font-style:normal;font-weight:normal;font-size:47.02243805px;line-height:1.25;font-family:sans-serif;letter-spacing:0px;word-spacing:0px;fill:#000000;fill-opacity:1;stroke:none;stroke-width:8.42729568"
   x="156.17055"
   y="-9.2427778"
   id="text1119"><tspan
     sodipodi:role="line"
     id="tspan1117"
     x="156.17055"
     y="-9.2427778"
     style="font-style:normal;font-variant:normal;font-weight:normal;font-stretch:normal;font-family:'Fira Code';-inkscape-font-specification:'Fira Code';fill:#e53935;stroke-width:8.42729568">6</tspan></text>


<path
   style="color:#000000;font-style:normal;font-variant:normal;font-weight:normal;font-stretch:normal;font-size:medium;line-height:normal;font-family:sans-serif;font-variant-ligatures:normal;font-variant-position:normal;font-variant-caps:normal;font-variant-numeric:normal;font-variant-alternates:normal;font-feature-settings:normal;text-indent:0;text-align:start;text-decoration:none;text-decoration-line:none;text-decoration-style:solid;text-decoration-color:#000000;letter-spacing:normal;word-spacing:normal;text-transform:none;writing-mode:lr-tb;direction:ltr;text-orientation:mixed;dominant-baseline:auto;baseline-shift:baseline;text-anchor:start;white-space:normal;shape-padding:0;clip-rule:nonzero;display:inline;overflow:visible;visibility:visible;opacity:1;isolation:auto;mix-blend-mode:normal;color-interpolation:sRGB;color-interpolation-filters:linearRGB;solid-color:#000000;solid-opacity:1;vector-effect:none;fill:#9e9e9e;fill-opacity:1;fill-rule:nonzero;stroke:none;stroke-width:63.34651184;stroke-linecap:round;stroke-linejoin:round;stroke-miterlimit:4;stroke-dasharray:none;stroke-dashoffset:0;stroke-opacity:1;color-rendering:auto;image-rendering:auto;shape-rendering:auto;text-rendering:auto;enable-background:accumulate"
   d="m 212.20767,-21.973781 c -2.93934,0 -5.34896,2.409621 -5.34896,5.348912 0,2.939355 2.40962,5.350627 5.34896,5.350627 2.62553,0 4.82833,-1.924266 5.26901,-4.42994 h 4.9393 v 4.399631 a 0.92180185,0.92180185 0 1 0 1.84255,0 v -1.088388 a 0.92196397,0.92196397 0 0 0 0.86473,-0.919019 v -0.308997 a 0.83141847,0.83141847 0 0 0 0.8298,0.01751 v 0.435265 a 0.83141847,0.83141847 0 0 0 0.98204,0.826878 v 0.265415 a 0.922125,0.922125 0 1 0 1.84425,0 v -4.549435 a 0.92180185,0.92180185 0 0 0 -0.92191,-0.92063 h -2.18785 a 0.83141847,0.83141847 0 0 0 -0.12991,-0.0074 0.83141847,0.83141847 0 0 0 -0.10767,0.0074 h -7.9557 c -0.44139,-2.504554 -2.64366,-4.426993 -5.26859,-4.426993 z m 0,2.584896 c 1.54234,0 2.76446,1.221673 2.76446,2.764016 0,1.542417 -1.22212,2.766158 -2.76446,2.766158 -1.54237,0 -2.76449,-1.223741 -2.76449,-2.766158 0,-1.542343 1.22212,-2.764016 2.76449,-2.764016 z"
   id="path1121"
   inkscape:connector-curvature="0" /></g><g
     id="g1145"
     transform="matrix(0.36864052,0,0,0.36864052,89.116766,183.97675)"
     style="stroke-width:8.42729664"><rect
   rx="22.074928"
   ry="18.594301"
   y="-57.198208"
   x="160.5596"
   height="63.382881"
   width="102.55566"
   id="rect1125"
   style="opacity:1;fill:#212121;fill-opacity:1;stroke:none;stroke-width:16.85459328;stroke-linecap:round;stroke-linejoin:bevel;stroke-miterlimit:4;stroke-dasharray:none;stroke-dashoffset:0;stroke-opacity:1" /><g
   style="stroke-width:10.58363438"
   transform="matrix(0.79625728,0,0,0.79625728,-3.7065337,-54.570034)"
   id="g1131"><path
     sodipodi:nodetypes="cccc"
     style="fill:#afb42b;fill-opacity:1;stroke:none;stroke-width:282.61611938px;stroke-linecap:butt;stroke-linejoin:miter;stroke-opacity:1"
     d="m 191.41508,36.905578 26.70308,-53.40567 26.70308,53.40567 c -19.12856,10.169855 -36.56231,7.346189 -53.40616,0 z"
     id="path1127"
     inkscape:connector-curvature="0" /><path
     style="fill:#dce775;fill-opacity:1;stroke:none;stroke-width:282.61611938px;stroke-linecap:butt;stroke-linejoin:miter;stroke-opacity:1"
     d="m 191.41508,36.905578 26.70308,53.40646 26.70308,-53.40646 z"
     id="path1129"
     inkscape:connector-curvature="0" /></g><path
   inkscape:connector-curvature="0"
   style="opacity:1;fill:#ffeb3b;fill-opacity:1;stroke:none;stroke-width:8.44056797;stroke-linecap:round;stroke-linejoin:bevel;stroke-miterlimit:4;stroke-dasharray:none;stroke-dashoffset:0;stroke-opacity:1"
   d="m 240.50365,-36.894723 c -4.50931,-6.62e-4 -8.16501,3.655021 -8.16434,8.164332 4e-5,3.2819 1.96551,6.244658 4.98918,7.520715 -5.66265,0.794386 -9.92016,3.91926 -10.22388,7.737632 h 26.11154 c -0.29443,-3.707078 -4.31879,-6.756722 -9.73521,-7.658971 3.12694,-1.225408 5.18425,-4.240903 5.18465,-7.599376 7.4e-4,-4.508383 -3.65356,-8.163673 -8.16194,-8.164332 z"
   id="path1133"
   sodipodi:nodetypes="cccccccc" /><path
   sodipodi:nodetypes="cccccccc"
   inkscape:connector-curvature="0"
   id="path1135"
   d="m 230.62307,-29.84501 v 4.044709 h -20.4154 v 8.411416 h 20.4154 v 4.366709 l 8.41143,-8.411417 z"
   style="fill:#ffffff;stroke:none;stroke-width:8.42729568px;stroke-linecap:butt;stroke-linejoin:miter;stroke-opacity:1" /><path
   sodipodi:nodetypes="cccccccc"
   id="path1137"
   d="m 210.50365,-36.894723 c -4.50931,-6.62e-4 -8.16501,3.655021 -8.16434,8.164332 4e-5,3.2819 1.96551,6.244658 4.98918,7.520715 -5.66265,0.794386 -9.92016,3.91926 -10.22388,7.737632 h 26.11154 c -0.29443,-3.707078 -4.31879,-6.756722 -9.73521,-7.658971 3.12694,-1.225408 5.18425,-4.240903 5.18465,-7.599376 7.4e-4,-4.508383 -3.65356,-8.163673 -8.16194,-8.164332 z"
   style="opacity:1;fill:#c62828;fill-opacity:1;stroke:none;stroke-width:8.44056797;stroke-linecap:round;stroke-linejoin:bevel;stroke-miterlimit:4;stroke-dasharray:none;stroke-dashoffset:0;stroke-opacity:1"
   inkscape:connector-curvature="0" /><text
   id="text1141"
   y="-9.2427778"
   x="156.17055"
   style="font-style:normal;font-weight:normal;font-size:47.02243805px;line-height:1.25;font-family:sans-serif;letter-spacing:0px;word-spacing:0px;fill:#000000;fill-opacity:1;stroke:none;stroke-width:8.42729568"
   xml:space="preserve"><tspan
     style="font-style:normal;font-variant:normal;font-weight:normal;font-stretch:normal;font-family:'Fira Code';-inkscape-font-specification:'Fira Code';fill:#000000;stroke-width:8.42729568"
     y="-9.2427778"
     x="156.17055"
     id="tspan1139"
     sodipodi:role="line">5</tspan></text>


<path
   inkscape:connector-curvature="0"
   id="path1143"
   d="m 212.20767,-21.973781 c -2.93934,0 -5.34896,2.409621 -5.34896,5.348912 0,2.939355 2.40962,5.350627 5.34896,5.350627 2.62553,0 4.82833,-1.924266 5.26901,-4.42994 h 4.9393 v 4.399631 a 0.92180185,0.92180185 0 1 0 1.84255,0 v -1.088388 a 0.92196397,0.92196397 0 0 0 0.86473,-0.919019 v -0.308997 a 0.83141847,0.83141847 0 0 0 0.8298,0.01751 v 0.435265 a 0.83141847,0.83141847 0 0 0 0.98204,0.826878 v 0.265415 a 0.922125,0.922125 0 1 0 1.84425,0 v -4.549435 a 0.92180185,0.92180185 0 0 0 -0.92191,-0.92063 h -2.18785 a 0.83141847,0.83141847 0 0 0 -0.12991,-0.0074 0.83141847,0.83141847 0 0 0 -0.10767,0.0074 h -7.9557 c -0.44139,-2.504554 -2.64366,-4.426993 -5.26859,-4.426993 z m 0,2.584896 c 1.54234,0 2.76446,1.221673 2.76446,2.764016 0,1.542417 -1.22212,2.766158 -2.76446,2.766158 -1.54237,0 -2.76449,-1.223741 -2.76449,-2.766158 0,-1.542343 1.22212,-2.764016 2.76449,-2.764016 z"
   style="color:#000000;font-style:normal;font-variant:normal;font-weight:normal;font-stretch:normal;font-size:medium;line-height:normal;font-family:sans-serif;font-variant-ligatures:normal;font-variant-position:normal;font-variant-caps:normal;font-variant-numeric:normal;font-variant-alternates:normal;font-feature-settings:normal;text-indent:0;text-align:start;text-decoration:none;text-decoration-line:none;text-decoration-style:solid;text-decoration-color:#000000;letter-spacing:normal;word-spacing:normal;text-transform:none;writing-mode:lr-tb;direction:ltr;text-orientation:mixed;dominant-baseline:auto;baseline-shift:baseline;text-anchor:start;white-space:normal;shape-padding:0;clip-rule:nonzero;display:inline;overflow:visible;visibility:visible;opacity:1;isolation:auto;mix-blend-mode:normal;color-interpolation:sRGB;color-interpolation-filters:linearRGB;solid-color:#000000;solid-opacity:1;vector-effect:none;fill:#9e9e9e;fill-opacity:1;fill-rule:nonzero;stroke:none;stroke-width:63.34651184;stroke-linecap:round;stroke-linejoin:round;stroke-miterlimit:4;stroke-dasharray:none;stroke-dashoffset:0;stroke-opacity:1;color-rendering:auto;image-rendering:auto;shape-rendering:auto;text-rendering:auto;enable-background:accumulate" /></g><g
     style="stroke-width:8.42729664"
     transform="matrix(0.36864052,0,0,0.36864052,139.74629,144.33049)"
     id="g1167"><rect
   style="opacity:1;fill:#212121;fill-opacity:1;stroke:none;stroke-width:16.85459328;stroke-linecap:round;stroke-linejoin:bevel;stroke-miterlimit:4;stroke-dasharray:none;stroke-dashoffset:0;stroke-opacity:1"
   id="rect1147"
   width="102.55566"
   height="63.382881"
   x="160.5596"
   y="-57.198208"
   ry="18.594301"
   rx="22.074928" /><g
   id="g1153"
   transform="matrix(0.79625728,0,0,0.79625728,-3.7065337,-54.570034)"
   style="stroke-width:10.58363438"><path
     inkscape:connector-curvature="0"
     id="path1149"
     d="m 191.41508,36.905578 26.70308,-53.40567 26.70308,53.40567 c -19.12856,10.169855 -36.56231,7.346189 -53.40616,0 z"
     style="fill:#afb42b;fill-opacity:1;stroke:none;stroke-width:282.61611938px;stroke-linecap:butt;stroke-linejoin:miter;stroke-opacity:1"
     sodipodi:nodetypes="cccc" /><path
     inkscape:connector-curvature="0"
     id="path1151"
     d="m 191.41508,36.905578 26.70308,53.40646 26.70308,-53.40646 z"
     style="fill:#dce775;fill-opacity:1;stroke:none;stroke-width:282.61611938px;stroke-linecap:butt;stroke-linejoin:miter;stroke-opacity:1" /></g><path
   sodipodi:nodetypes="cccccccc"
   id="path1155"
   d="m 240.50365,-36.894723 c -4.50931,-6.62e-4 -8.16501,3.655021 -8.16434,8.164332 4e-5,3.2819 1.96551,6.244658 4.98918,7.520715 -5.66265,0.794386 -9.92016,3.91926 -10.22388,7.737632 h 26.11154 c -0.29443,-3.707078 -4.31879,-6.756722 -9.73521,-7.658971 3.12694,-1.225408 5.18425,-4.240903 5.18465,-7.599376 7.4e-4,-4.508383 -3.65356,-8.163673 -8.16194,-8.164332 z"
   style="opacity:1;fill:#00acc1;fill-opacity:1;stroke:none;stroke-width:8.44056797;stroke-linecap:round;stroke-linejoin:bevel;stroke-miterlimit:4;stroke-dasharray:none;stroke-dashoffset:0;stroke-opacity:1"
   inkscape:connector-curvature="0" /><path
   style="fill:#ffffff;stroke:none;stroke-width:8.42729568px;stroke-linecap:butt;stroke-linejoin:miter;stroke-opacity:1"
   d="m 230.62307,-29.84501 v 4.044709 h -20.4154 v 8.411416 h 20.4154 v 4.366709 l 8.41143,-8.411417 z"
   id="path1157"
   inkscape:connector-curvature="0"
   sodipodi:nodetypes="cccccccc" /><path
   inkscape:connector-curvature="0"
   style="opacity:1;fill:#aeea00;fill-opacity:1;stroke:none;stroke-width:8.44056797;stroke-linecap:round;stroke-linejoin:bevel;stroke-miterlimit:4;stroke-dasharray:none;stroke-dashoffset:0;stroke-opacity:1"
   d="m 210.50365,-36.894723 c -4.50931,-6.62e-4 -8.16501,3.655021 -8.16434,8.164332 4e-5,3.2819 1.96551,6.244658 4.98918,7.520715 -5.66265,0.794386 -9.92016,3.91926 -10.22388,7.737632 h 26.11154 c -0.29443,-3.707078 -4.31879,-6.756722 -9.73521,-7.658971 3.12694,-1.225408 5.18425,-4.240903 5.18465,-7.599376 7.4e-4,-4.508383 -3.65356,-8.163673 -8.16194,-8.164332 z"
   id="path1159"
   sodipodi:nodetypes="cccccccc" /><text
   xml:space="preserve"
   style="font-style:normal;font-weight:normal;font-size:47.02243805px;line-height:1.25;font-family:sans-serif;letter-spacing:0px;word-spacing:0px;fill:#000000;fill-opacity:1;stroke:none;stroke-width:8.42729568"
   x="156.17055"
   y="-9.2427778"
   id="text1163"><tspan
     sodipodi:role="line"
     id="tspan1161"
     x="156.17055"
     y="-9.2427778"
     style="font-style:normal;font-variant:normal;font-weight:normal;font-stretch:normal;font-family:'Fira Code';-inkscape-font-specification:'Fira Code';fill:#000000;stroke-width:8.42729568">2</tspan></text>


<path
   style="color:#000000;font-style:normal;font-variant:normal;font-weight:normal;font-stretch:normal;font-size:medium;line-height:normal;font-family:sans-serif;font-variant-ligatures:normal;font-variant-position:normal;font-variant-caps:normal;font-variant-numeric:normal;font-variant-alternates:normal;font-feature-settings:normal;text-indent:0;text-align:start;text-decoration:none;text-decoration-line:none;text-decoration-style:solid;text-decoration-color:#000000;letter-spacing:normal;word-spacing:normal;text-transform:none;writing-mode:lr-tb;direction:ltr;text-orientation:mixed;dominant-baseline:auto;baseline-shift:baseline;text-anchor:start;white-space:normal;shape-padding:0;clip-rule:nonzero;display:inline;overflow:visible;visibility:visible;opacity:1;isolation:auto;mix-blend-mode:normal;color-interpolation:sRGB;color-interpolation-filters:linearRGB;solid-color:#000000;solid-opacity:1;vector-effect:none;fill:#9e9e9e;fill-opacity:1;fill-rule:nonzero;stroke:none;stroke-width:63.34651184;stroke-linecap:round;stroke-linejoin:round;stroke-miterlimit:4;stroke-dasharray:none;stroke-dashoffset:0;stroke-opacity:1;color-rendering:auto;image-rendering:auto;shape-rendering:auto;text-rendering:auto;enable-background:accumulate"
   d="m 212.20767,-21.973781 c -2.93934,0 -5.34896,2.409621 -5.34896,5.348912 0,2.939355 2.40962,5.350627 5.34896,5.350627 2.62553,0 4.82833,-1.924266 5.26901,-4.42994 h 4.9393 v 4.399631 a 0.92180185,0.92180185 0 1 0 1.84255,0 v -1.088388 a 0.92196397,0.92196397 0 0 0 0.86473,-0.919019 v -0.308997 a 0.83141847,0.83141847 0 0 0 0.8298,0.01751 v 0.435265 a 0.83141847,0.83141847 0 0 0 0.98204,0.826878 v 0.265415 a 0.922125,0.922125 0 1 0 1.84425,0 v -4.549435 a 0.92180185,0.92180185 0 0 0 -0.92191,-0.92063 h -2.18785 a 0.83141847,0.83141847 0 0 0 -0.12991,-0.0074 0.83141847,0.83141847 0 0 0 -0.10767,0.0074 h -7.9557 c -0.44139,-2.504554 -2.64366,-4.426993 -5.26859,-4.426993 z m 0,2.584896 c 1.54234,0 2.76446,1.221673 2.76446,2.764016 0,1.542417 -1.22212,2.766158 -2.76446,2.766158 -1.54237,0 -2.76449,-1.223741 -2.76449,-2.766158 0,-1.542343 1.22212,-2.764016 2.76449,-2.764016 z"
   id="path1165"
   inkscape:connector-curvature="0" /></g><g
     style="stroke-width:8.42729664"
     transform="matrix(0.36864052,0,0,0.36864052,89.116766,144.33049)"
     id="g1189"><rect
   style="opacity:1;fill:#212121;fill-opacity:1;stroke:none;stroke-width:16.85459328;stroke-linecap:round;stroke-linejoin:bevel;stroke-miterlimit:4;stroke-dasharray:none;stroke-dashoffset:0;stroke-opacity:1"
   id="rect1169"
   width="102.55566"
   height="63.382881"
   x="160.5596"
   y="-57.198208"
   ry="18.594301"
   rx="22.074928" /><g
   id="g1175"
   transform="matrix(0.79625728,0,0,0.79625728,-3.7065337,-54.570034)"
   style="stroke-width:10.58363438"><path
     inkscape:connector-curvature="0"
     id="path1171"
     d="m 191.41508,36.905578 26.70308,-53.40567 26.70308,53.40567 c -19.12856,10.169855 -36.56231,7.346189 -53.40616,0 z"
     style="fill:#afb42b;fill-opacity:1;stroke:none;stroke-width:282.61611938px;stroke-linecap:butt;stroke-linejoin:miter;stroke-opacity:1"
     sodipodi:nodetypes="cccc" /><path
     inkscape:connector-curvature="0"
     id="path1173"
     d="m 191.41508,36.905578 26.70308,53.40646 26.70308,-53.40646 z"
     style="fill:#dce775;fill-opacity:1;stroke:none;stroke-width:282.61611938px;stroke-linecap:butt;stroke-linejoin:miter;stroke-opacity:1" /></g><path
   sodipodi:nodetypes="cccccccc"
   id="path1177"
   d="m 240.50365,-36.894723 c -4.50931,-6.62e-4 -8.16501,3.655021 -8.16434,8.164332 4e-5,3.2819 1.96551,6.244658 4.98918,7.520715 -5.66265,0.794386 -9.92016,3.91926 -10.22388,7.737632 h 26.11154 c -0.29443,-3.707078 -4.31879,-6.756722 -9.73521,-7.658971 3.12694,-1.225408 5.18425,-4.240903 5.18465,-7.599376 7.4e-4,-4.508383 -3.65356,-8.163673 -8.16194,-8.164332 z"
   style="opacity:1;fill:#aeea00;fill-opacity:1;stroke:none;stroke-width:8.44056797;stroke-linecap:round;stroke-linejoin:bevel;stroke-miterlimit:4;stroke-dasharray:none;stroke-dashoffset:0;stroke-opacity:1"
   inkscape:connector-curvature="0" /><path
   style="fill:#ffffff;stroke:none;stroke-width:8.42729568px;stroke-linecap:butt;stroke-linejoin:miter;stroke-opacity:1"
   d="m 230.62307,-29.84501 v 4.044709 h -20.4154 v 8.411416 h 20.4154 v 4.366709 l 8.41143,-8.411417 z"
   id="path1179"
   inkscape:connector-curvature="0"
   sodipodi:nodetypes="cccccccc" /><path
   inkscape:connector-curvature="0"
   style="opacity:1;fill:#3949ab;fill-opacity:1;stroke:none;stroke-width:8.44056797;stroke-linecap:round;stroke-linejoin:bevel;stroke-miterlimit:4;stroke-dasharray:none;stroke-dashoffset:0;stroke-opacity:1"
   d="m 210.50365,-36.894723 c -4.50931,-6.62e-4 -8.16501,3.655021 -8.16434,8.164332 4e-5,3.2819 1.96551,6.244658 4.98918,7.520715 -5.66265,0.794386 -9.92016,3.91926 -10.22388,7.737632 h 26.11154 c -0.29443,-3.707078 -4.31879,-6.756722 -9.73521,-7.658971 3.12694,-1.225408 5.18425,-4.240903 5.18465,-7.599376 7.4e-4,-4.508383 -3.65356,-8.163673 -8.16194,-8.164332 z"
   id="path1181"
   sodipodi:nodetypes="cccccccc" /><text
   xml:space="preserve"
   style="font-style:normal;font-weight:normal;font-size:47.02243805px;line-height:1.25;font-family:sans-serif;letter-spacing:0px;word-spacing:0px;fill:#000000;fill-opacity:1;stroke:none;stroke-width:8.42729568"
   x="156.17055"
   y="-9.2427778"
   id="text1185"><tspan
     sodipodi:role="line"
     id="tspan1183"
     x="156.17055"
     y="-9.2427778"
     style="font-style:normal;font-variant:normal;font-weight:normal;font-stretch:normal;font-family:'Fira Code';-inkscape-font-specification:'Fira Code';fill:#000000;stroke-width:8.42729568">1</tspan></text>


<path
   style="color:#000000;font-style:normal;font-variant:normal;font-weight:normal;font-stretch:normal;font-size:medium;line-height:normal;font-family:sans-serif;font-variant-ligatures:normal;font-variant-position:normal;font-variant-caps:normal;font-variant-numeric:normal;font-variant-alternates:normal;font-feature-settings:normal;text-indent:0;text-align:start;text-decoration:none;text-decoration-line:none;text-decoration-style:solid;text-decoration-color:#000000;letter-spacing:normal;word-spacing:normal;text-transform:none;writing-mode:lr-tb;direction:ltr;text-orientation:mixed;dominant-baseline:auto;baseline-shift:baseline;text-anchor:start;white-space:normal;shape-padding:0;clip-rule:nonzero;display:inline;overflow:visible;visibility:visible;opacity:1;isolation:auto;mix-blend-mode:normal;color-interpolation:sRGB;color-interpolation-filters:linearRGB;solid-color:#000000;solid-opacity:1;vector-effect:none;fill:#9e9e9e;fill-opacity:1;fill-rule:nonzero;stroke:none;stroke-width:63.34651184;stroke-linecap:round;stroke-linejoin:round;stroke-miterlimit:4;stroke-dasharray:none;stroke-dashoffset:0;stroke-opacity:1;color-rendering:auto;image-rendering:auto;shape-rendering:auto;text-rendering:auto;enable-background:accumulate"
   d="m 212.20767,-21.973781 c -2.93934,0 -5.34896,2.409621 -5.34896,5.348912 0,2.939355 2.40962,5.350627 5.34896,5.350627 2.62553,0 4.82833,-1.924266 5.26901,-4.42994 h 4.9393 v 4.399631 a 0.92180185,0.92180185 0 1 0 1.84255,0 v -1.088388 a 0.92196397,0.92196397 0 0 0 0.86473,-0.919019 v -0.308997 a 0.83141847,0.83141847 0 0 0 0.8298,0.01751 v 0.435265 a 0.83141847,0.83141847 0 0 0 0.98204,0.826878 v 0.265415 a 0.922125,0.922125 0 1 0 1.84425,0 v -4.549435 a 0.92180185,0.92180185 0 0 0 -0.92191,-0.92063 h -2.18785 a 0.83141847,0.83141847 0 0 0 -0.12991,-0.0074 0.83141847,0.83141847 0 0 0 -0.10767,0.0074 h -7.9557 c -0.44139,-2.504554 -2.64366,-4.426993 -5.26859,-4.426993 z m 0,2.584896 c 1.54234,0 2.76446,1.221673 2.76446,2.764016 0,1.542417 -1.22212,2.766158 -2.76446,2.766158 -1.54237,0 -2.76449,-1.223741 -2.76449,-2.766158 0,-1.542343 1.22212,-2.764016 2.76449,-2.764016 z"
   id="path1187"
   inkscape:connector-curvature="0" /></g><g
     id="g1197"
     transform="matrix(1.1372831,0,0,1.1372831,89.035845,-18.160285)"
     style="stroke-width:4.46981144"><g
       id="g1193"
       style="stroke-width:4.46981144"><g
         transform="translate(-21.49456,129.86315)"
         id="g1191"
         style="stroke-width:4.46981144" /></g><g
       id="g1195"
       style="stroke-width:4.46981144" /></g></g></g></svg>